<?xml version="1.0" standalone="no"?>
<!DOCTYPE svg PUBLIC "-//W3C//DTD SVG 1.1//EN" "http://www.w3.org/Graphics/SVG/1.1/DTD/svg11.dtd" >
<svg xmlns="http://www.w3.org/2000/svg" xmlns:xlink="http://www.w3.org/1999/xlink" version="1.1">
<metadata>
Created by FontForge 20170731 at Thu Aug  2 12:35:14 2012
 By Aleksey,,,
Copyright (c) 1992-2012 AsiaSoft Inc. Seoul Korea All Rights Reserved. http://www.asiasoft.co.kr
</metadata>
<defs>
<font id="KoreanGRHD-B" horiz-adv-x="826" >
  <font-face 
    font-family="KoreanGRHDB"
    font-weight="400"
    font-stretch="normal"
    units-per-em="1000"
    panose-1="2 2 6 0 0 0 0 0 0 0"
    ascent="800"
    descent="-200"
    x-height="505"
    cap-height="708"
    bbox="11 -220 932 798"
    underline-thickness="0"
    underline-position="0"
    unicode-range="U+0021-D79D"
  />
<missing-glyph horiz-adv-x="1000" 
 />
    <glyph glyph-name=".notdef" horiz-adv-x="1000" 
 />
    <glyph glyph-name=".null" horiz-adv-x="0" 
 />
    <glyph glyph-name="nonmarkingreturn" horiz-adv-x="333" 
 />
    <glyph glyph-name="exclam" unicode="!" horiz-adv-x="326" 
d="M247 431l-30 -304h-109l-29 304v303h168v-303zM70 -114v166h186v-166h-186z" />
    <glyph glyph-name="quotedbl" unicode="&#x22;" horiz-adv-x="440" 
d="M50 506v274h145v-274h-145zM246 506v274h144v-274h-144z" />
    <glyph glyph-name="numbersign" unicode="#" horiz-adv-x="696" 
d="M542 361l-18 -97h102v-138h-126l-37 -199h-153l36 199h-64l-38 -199h-153l37 199h-98v138h121q1 6 8 39.5t11 57.5h-99v137h123l33 199h155l-32 -199h62l33 199h155l-33 -199h99v-137h-124zM325 361l-19 -97h63q1 6 8 39.5t11 57.5h-63z" />
    <glyph glyph-name="dollar" unicode="$" horiz-adv-x="656" 
d="M257 -138v70q-105 19 -161 91t-66 177h167q-2 -94 60 -122v191q-46 11 -78.5 23.5t-64 34t-48 55t-16.5 78.5q0 97 56 155.5t151 74.5v73h131v-73q201 -31 228 -255h-170q-2 89 -58 113v-167q42 -10 70.5 -19t63 -26.5t55 -39.5t35 -56.5t14.5 -78.5q0 -98 -63 -158
t-175 -73v-68h-131zM463 160q-4 51 -75 75v-166q80 21 75 91zM217 467q3 -31 40 -48v128q-46 -22 -40 -80z" />
    <glyph glyph-name="percent" unicode="%" horiz-adv-x="906" 
d="M690 -60q-75 0 -131 57t-56 158t56 158t131 57q73 0 129.5 -57t56.5 -157q0 -101 -56.5 -158.5t-129.5 -57.5zM403 472q0 -101 -55.5 -158t-129.5 -57q-74 -2 -131 55.5t-57 158.5t56.5 158t130.5 57t130 -57t56 -157zM332 -83h-159l402 791h159zM648 156q0 -40 12.5 -63
t29.5 -23q16 0 28 23t12 63q0 38 -12.5 60t-28.5 22q-17 0 -29 -22t-12 -60zM176 472q0 -40 12.5 -62.5t28.5 -22.5q17 0 29 22.5t12 62.5q0 39 -12.5 61t-29.5 22q-16 0 -28 -22t-12 -61z" />
    <glyph glyph-name="ampersand" unicode="&#x26;" horiz-adv-x="752" 
d="M543 -100l-55 76q-99 -84 -220 -84q-101 0 -169.5 61.5t-68.5 168.5q0 130 164 233q-70 88 -74 160q-2 94 61.5 150t149.5 56q85 0 146 -55.5t61 -156.5q0 -110 -124 -199l80 -107q15 37 17 105h159q-9 -138 -83 -232l135 -176h-179zM406 83l-127 164q-91 -54 -91 -128
q0 -44 25 -67t65 -23q66 0 128 54zM329 586q-23 0 -40.5 -15.5t-15.5 -43.5q4 -45 56 -109q61 45 61 95q0 73 -61 73z" />
    <glyph glyph-name="quotesingle" unicode="'" horiz-adv-x="320" 
d="M82 506v274h156v-274h-156z" />
    <glyph glyph-name="parenleft" unicode="(" horiz-adv-x="369" 
d="M339 -138l-178 1q-111 219 -111 450q0 221 119 440h170q-126 -225 -126 -434q0 -206 126 -457z" />
    <glyph glyph-name="parenright" unicode=")" horiz-adv-x="370" 
d="M209 -137l-178 -1q126 251 126 457q0 209 -126 434h170q119 -219 119 -440q0 -231 -111 -450z" />
    <glyph glyph-name="asterisk" unicode="*" horiz-adv-x="528" 
d="M406 440l-81 66l14 -101h-150l15 103l-88 -68l-66 122l105 36l-102 33l64 117l88 -64l-17 102h151l-15 -103l90 65l62 -124l-101 -29l103 -35z" />
    <glyph glyph-name="plus" unicode="+" horiz-adv-x="604" 
d="M381 245v-178h-158v178h-173v131h173v177h158v-177h173v-131h-173z" />
    <glyph glyph-name="comma" unicode="," horiz-adv-x="320" 
d="M148 -220l-82 51q29 13 46 34t19 40h-65v149h188v-123q0 -48 -30.5 -91.5t-75.5 -59.5z" />
    <glyph glyph-name="hyphen" unicode="-" horiz-adv-x="604" 
d="M50 244v133h504v-133h-504z" />
    <glyph glyph-name="period" unicode="." horiz-adv-x="320" 
d="M66 -112v166h188v-166h-188z" />
    <glyph glyph-name="slash" unicode="/" horiz-adv-x="478" 
d="M209 -119h-159l218 863h160z" />
    <glyph glyph-name="zero" unicode="0" horiz-adv-x="674" 
d="M337 -107q-138 0 -216 115t-78 302t78.5 303t215.5 116q138 0 216 -116.5t78 -302.5q0 -187 -78 -302t-216 -115zM337 591q-58 0 -88.5 -76.5t-30.5 -204.5q0 -127 30.5 -203t88.5 -76q59 0 89.5 75.5t30.5 203.5q0 129 -30.5 205t-89.5 76z" />
    <glyph glyph-name="one" unicode="1" horiz-adv-x="503" 
d="M198 -86v507h-165v127q85 -6 130.5 42t53.5 122h153v-798h-172z" />
    <glyph glyph-name="two" unicode="2" horiz-adv-x="636" 
d="M48 -86l2 27q16 211 230 354q66 44 103 87.5t37 98.5q0 45 -24.5 78.5t-69.5 32.5q-31 -1 -55 -19.5t-36 -45.5t-17.5 -49.5t-6.5 -40.5h-173q3 25 9.5 54t27 74t50 79t82.5 59.5t121 25.5q113 0 187.5 -68.5t74.5 -182.5q0 -77 -53.5 -151t-133.5 -128
q-32 -23 -60.5 -40t-54 -45t-37.5 -63h347v-137h-550z" />
    <glyph glyph-name="three" unicode="3" horiz-adv-x="664" 
d="M318 -106q-76 3 -132 31.5t-84.5 64t-45 82t-20 74t-3.5 52.5h170q-1 -21 2.5 -42.5t13.5 -51.5t36.5 -50t65.5 -22q43 -3 80 35.5t37 101.5q-5 27 -27 46.5t-50.5 29t-52 13.5t-41.5 4v127q19 -1 40 1.5t48.5 10.5t46 27t21.5 48q5 47 -26 82t-82 34q-32 -1 -53.5 -20
t-30 -49.5t-11.5 -52t-3 -42.5h-166q1 18 2 34.5t7.5 48.5t16.5 58t30 57t46.5 52t68 36t92.5 16q125 2 204 -69t76 -185q-1 -89 -77 -148q86 -55 93 -155q5 -125 -83.5 -204t-208.5 -75z" />
    <glyph glyph-name="four" unicode="4" horiz-adv-x="678" 
d="M544 41v-127h-174v127h-337v144l365 525h146v-531h101v-138h-101zM370 419l-163 -240h163v240z" />
    <glyph glyph-name="five" unicode="5" horiz-adv-x="665" 
d="M324 -107q-69 2 -122 27t-84 65t-49 81.5t-26 89.5h171q2 -17 6.5 -33.5t15.5 -39.5t34.5 -38t56.5 -17q55 -4 90 46t35 115q0 47 -27.5 85.5t-74.5 47.5q-31 2 -58 -15.5t-39 -34.5t-18 -31h-180l82 466h448v-137h-307q-4 -24 -12.5 -68t-12.5 -67q43 23 107 23
q39 0 67 -7q79 -20 137 -92t58 -175q0 -123 -87.5 -210.5t-210.5 -80.5z" />
    <glyph glyph-name="six" unicode="6" horiz-adv-x="654" 
d="M344 -107q-69 -1 -126 24t-92.5 66.5t-56 89t-25.5 98.5q-6 70 -6 127q0 62 8 119t28.5 115.5t53 100.5t86 69t122.5 27q103 0 178.5 -59t94.5 -184h-171q-4 47 -35.5 77t-70.5 28q-52 -3 -79.5 -51.5t-32.5 -120.5q65 39 147 39q103 0 175.5 -85t73.5 -201
q-7 -122 -90 -199.5t-182 -79.5zM332 319q-45 0 -78 -38.5t-33 -104.5q0 -68 32.5 -106.5t78.5 -38.5q45 0 77.5 39t32.5 106q0 65 -32.5 104t-77.5 39z" />
    <glyph glyph-name="seven" unicode="7" horiz-adv-x="632" 
d="M326 -87h-187q3 176 72.5 353t169.5 306h-343v136h556v-125q-137 -124 -202.5 -298.5t-65.5 -371.5z" />
    <glyph glyph-name="eight" unicode="8" horiz-adv-x="662" 
d="M331 -107q-128 0 -208.5 75t-78.5 187q1 113 99 172q-80 73 -80 171q0 104 76.5 167.5t191.5 63.5q123 0 195 -66t74 -165q1 -111 -79 -172q96 -62 97 -171q2 -104 -75 -183t-212 -79zM331 267q-49 0 -84 -34.5t-35 -84.5q0 -49 35 -83t84 -34t84.5 34t35.5 83
q0 50 -35.5 84.5t-84.5 34.5zM331 591q-43 0 -71.5 -29t-28.5 -70t28.5 -69.5t71.5 -28.5t72 28.5t29 69.5t-29 70t-72 29z" />
    <glyph glyph-name="nine" unicode="9" horiz-adv-x="655" 
d="M589 109q-24 -93 -96 -154.5t-168 -61.5q-100 0 -163 49.5t-104 182.5h176q5 -42 30.5 -68.5t62.5 -25.5q31 1 53.5 18.5t33.5 45t16.5 52.5t7.5 52q-61 -36 -145 -36q-103 0 -176.5 84.5t-72.5 200.5q6 123 89.5 201t182.5 80q67 0 121.5 -25t88.5 -67.5t54 -90
t26 -98.5q10 -76 5.5 -172t-22.5 -167zM328 591q-45 0 -77.5 -39t-32.5 -106t32.5 -106t77.5 -39t77 38.5t32 106.5q0 67 -32 106t-77 39z" />
    <glyph glyph-name="colon" unicode=":" horiz-adv-x="320" 
d="M66 26v165h188v-165h-188zM66 432v165h188v-165h-188z" />
    <glyph glyph-name="semicolon" unicode=";" horiz-adv-x="320" 
d="M66 430v165h188v-165h-188zM148 -86l-82 51q29 13 46 34t19 40h-65v149h188v-123q0 -48 -30.5 -91.5t-75.5 -59.5z" />
    <glyph glyph-name="less" unicode="&#x3c;" horiz-adv-x="493" 
d="M239 313l223 -295l-122 -91l-290 385l292 386l121 -94z" />
    <glyph glyph-name="equal" unicode="=" horiz-adv-x="604" 
d="M50 387v133h504v-133h-504zM50 102v133h504v-133h-504z" />
    <glyph glyph-name="greater" unicode="&#x3e;" horiz-adv-x="493" 
d="M31 18l223 295l-224 291l121 94l292 -386l-291 -385z" />
    <glyph glyph-name="question" unicode="?" horiz-adv-x="605" 
d="M386 253v-125h-164v127q0 38 15.5 70.5t32.5 49.5t49 44q65 52 79 102q9 30 -16.5 60.5t-77.5 29.5q-31 -1 -51.5 -18t-27.5 -44t-9 -46.5t-1 -38.5h-165q0 50 13.5 98t42 91t79.5 69t119 26q114 0 182.5 -64t68.5 -152q0 -85 -66 -155q-1 -1 -40 -34q-21 -17 -31.5 -27
t-21 -27.5t-10.5 -35.5zM211 -114v166h186v-166h-186z" />
    <glyph glyph-name="at" unicode="@" horiz-adv-x="875" 
d="M829 387q0 -80 -31 -146t-78 -110h114q-49 -113 -151.5 -172t-223.5 -59q-176 0 -297.5 116t-121.5 303q0 178 121 292.5t293 114.5q152 0 263.5 -95t111.5 -244zM559 65q-50 5 -69 31q-46 -33 -104 -33q-76 0 -118 59.5t-42 146.5q0 113 60.5 201t158.5 88q58 0 95 -42
q3 6 3 11h104q-70 80 -195 83q-118 2 -202.5 -85t-84.5 -210q0 -121 88 -208t205 -87q62 0 121 21t97 56q-63 -39 -117 -32zM452 443q-45 3 -71.5 -45.5t-26.5 -120.5q4 -98 45 -98q46 0 75 52t35 112q2 40 -14.5 69.5t-42.5 30.5zM704 366q0 70 -35 133l-76 -299
q0 -12 2 -14q33 2 71 60t38 120z" />
    <glyph glyph-name="A" unicode="A" horiz-adv-x="775" 
d="M587 -87l-70 194h-261l-71 -194h-173l297 795h157l297 -795h-176zM387 471l-82 -227h163z" />
    <glyph glyph-name="B" unicode="B" horiz-adv-x="700" 
d="M436 -88h-388v796h369q21 0 46 -5t57 -19.5t57.5 -37t43 -61.5t17.5 -89q0 -101 -63 -160q46 -32 71.5 -73.5t25.5 -108.5q0 -57 -19.5 -102t-47.5 -70.5t-62.5 -42t-60.5 -22t-46 -5.5zM418 252h-198v-202h198q33 0 58 30t25 74q0 42 -25 70t-58 28zM395 572h-175v-182
h175q31 0 51 25t20 61t-20.5 66t-50.5 30z" />
    <glyph glyph-name="C" unicode="C" horiz-adv-x="729" 
d="M372 -107q-165 0 -254.5 120.5t-89.5 299.5q0 83 22 157.5t63.5 132.5t108.5 92t150 34q64 0 117.5 -21.5t88.5 -54.5t60.5 -77t38.5 -85.5t19 -84.5h-171q-3 26 -13 55t-27.5 59.5t-46.5 50.5t-65 20q-85 0 -129.5 -78.5t-44.5 -199.5q0 -132 48 -207t126 -75
q33 0 60.5 17t43.5 39t29 53t17.5 49t8.5 37h169q-7 -49 -20 -93t-39 -89.5t-61 -77.5t-89 -52.5t-120 -20.5z" />
    <glyph glyph-name="D" unicode="D" horiz-adv-x="700" 
d="M335 -87h-287v795h288q52 0 94.5 -8t89.5 -34t78.5 -68.5t52.5 -118.5t21 -177q0 -107 -30.5 -186t-81 -121.5t-107 -62t-118.5 -19.5zM350 572h-130v-522h133q22 0 44 10t47.5 34.5t41 78t15.5 128.5q0 67 -11 118t-27.5 79t-38 45.5t-39 23t-35.5 5.5z" />
    <glyph glyph-name="E" unicode="E" horiz-adv-x="653" 
d="M48 -87v795h567v-136h-395v-183h357v-138h-357v-201h405v-137h-577z" />
    <glyph glyph-name="F" unicode="F" horiz-adv-x="666" 
d="M220 572v-183h378v-138h-378v-338h-172v795h590v-136h-418z" />
    <glyph glyph-name="G" unicode="G" horiz-adv-x="801" 
d="M584 -86v40q-86 -60 -182 -60q-55 0 -104.5 11t-100 40.5t-87 75t-59.5 120.5t-23 171q0 103 30.5 184.5t83 131.5t119.5 76t143 26q74 0 138.5 -31t106 -80.5t68 -103t34.5 -105.5h-172q-4 33 -23.5 73t-60.5 74.5t-91 34.5q-87 0 -146 -65t-59 -217q0 -77 18 -133
t48.5 -86t65 -44t73.5 -14q74 0 126 52t53 120h-135v137h305v-428h-169z" />
    <glyph glyph-name="H" unicode="H" horiz-adv-x="711" 
d="M490 -87v338h-271v-338h-171v795h171v-319h271v319h173v-795h-173z" />
    <glyph glyph-name="I" unicode="I" horiz-adv-x="308" 
d="M68 -88v796h172v-796h-172z" />
    <glyph glyph-name="J" unicode="J" horiz-adv-x="632" 
d="M295 -109q-121 0 -199 68t-78 182v120h170v-118q0 -52 28 -84t79 -32q52 0 80 32t28 84v564h171v-531q0 -127 -72 -206t-207 -79z" />
    <glyph glyph-name="K" unicode="K" horiz-adv-x="728" 
d="M527 -87l-226 336l-82 -88v-248h-171v795h171v-326l286 326h206l-296 -332l302 -463h-190z" />
    <glyph glyph-name="L" unicode="L" horiz-adv-x="662" 
d="M48 -87v795h172v-658h414v-137h-586z" />
    <glyph glyph-name="M" unicode="M" horiz-adv-x="869" 
d="M660 -87v435l-166 -435h-119l-166 435v-435h-161v795h195l192 -496l192 496h194v-795h-161z" />
    <glyph glyph-name="N" unicode="N" horiz-adv-x="730" 
d="M496 -88l-276 507v-507h-172v796h187l275 -506v506h172v-796h-186z" />
    <glyph glyph-name="O" unicode="O" horiz-adv-x="766" 
d="M383 -107q-111 0 -193.5 61t-122 154.5t-39.5 202.5q0 110 40 203.5t122.5 154t192.5 60.5q109 0 192 -60.5t123 -154t40 -202.5q0 -110 -40 -203.5t-123 -154.5t-192 -61zM383 591q-80 0 -132.5 -77t-52.5 -202q0 -127 52.5 -204t132.5 -77t132 76.5t52 204.5
q0 126 -52 202.5t-132 76.5z" />
    <glyph glyph-name="P" unicode="P" horiz-adv-x="693" 
d="M377 184h-158v-271h-171v795h330q53 0 102 -14.5t91.5 -44.5t68 -82t25.5 -120t-25.5 -120.5t-68 -82.5t-92 -45t-102.5 -15zM371 572h-152v-249h152q45 0 83.5 30.5t38.5 93.5q0 62 -38.5 93.5t-83.5 31.5z" />
    <glyph glyph-name="Q" unicode="Q" horiz-adv-x="786" 
d="M383 -107q-111 0 -193.5 60.5t-122 154t-39.5 202.5t40 203t122.5 154.5t192.5 60.5t192.5 -60.5t123 -154t40.5 -202.5q0 -139 -68 -253l87 -95l-111 -102l-79 86q-82 -54 -185 -54zM383 591q-79 0 -132 -77.5t-53 -202.5q0 -127 52.5 -204t132.5 -77q47 0 85 28
l-102 113l110 102l76 -83q16 54 16 121q0 126 -52.5 203t-132.5 77z" />
    <glyph glyph-name="R" unicode="R" horiz-adv-x="705" 
d="M665 466q0 -120 -103 -187q56 -45 73 -124q6 -38 6 -97q0 -26 1.5 -40.5t10 -43t26.5 -62.5h-178q-15 33 -22.5 70.5t-8.5 63t-1 75.5q0 33 -27 63.5t-50 30.5h-173v-303h-171v796h350q267 0 267 -242zM418 572h-199v-221h201q28 0 50.5 32t22.5 78q0 48 -22.5 79.5
t-52.5 31.5z" />
    <glyph glyph-name="S" unicode="S" horiz-adv-x="686" 
d="M344 -107q-150 0 -227 82t-89 209h173q-1 -63 38 -105.5t108 -42.5q70 0 108 33t34 74q-2 18 -13.5 33.5t-25 25.5t-41 21.5t-45.5 17l-54 16.5q-37 12 -55 17.5t-51.5 18.5t-50.5 23.5t-40.5 28.5t-35.5 36.5t-20.5 45t-8.5 56.5q0 120 80 183t215 63q131 0 210 -69
t94 -200h-176q-1 52 -33 89.5t-93 37.5q-59 0 -91 -27.5t-33 -69.5q10 -47 155 -93q39 -12 65.5 -21.5t63 -26t60.5 -35t47 -43t34.5 -57t11.5 -70.5q0 -114 -87.5 -182.5t-226.5 -68.5z" />
    <glyph glyph-name="T" unicode="T" horiz-adv-x="671" 
d="M421 572v-659h-172v659h-221v136h615v-136h-222z" />
    <glyph glyph-name="U" unicode="U" horiz-adv-x="711" 
d="M356 -109q-148 0 -228 84t-80 240v492h171v-525q0 -69 34.5 -112t102.5 -43q66 0 100 42.5t34 112.5v525h173v-492q0 -156 -80 -240t-227 -84z" />
    <glyph glyph-name="V" unicode="V" horiz-adv-x="728" 
d="M443 -87h-156l-275 795h172l180 -539l180 539h172z" />
    <glyph glyph-name="W" unicode="W" horiz-adv-x="945" 
d="M748 -87h-162l-113 449l-114 -449h-162l-184 795h171l99 -492l119 492h140l119 -495l99 495h172z" />
    <glyph glyph-name="X" unicode="X" horiz-adv-x="747" 
d="M544 -87l-170 278l-171 -278h-192l270 408l-260 387h188l164 -246l165 246h188l-261 -387l271 -408h-192z" />
    <glyph glyph-name="Y" unicode="Y" horiz-adv-x="737" 
d="M454 201v-288h-172v288l-271 507h185l172 -337l174 337h184z" />
    <glyph glyph-name="Z" unicode="Z" horiz-adv-x="690" 
d="M28 -87v114l409 545h-391v136h598v-112l-409 -546h427v-137h-634z" />
    <glyph glyph-name="bracketleft" unicode="[" horiz-adv-x="374" 
d="M50 -151v916h294v-134h-135v-647h135v-135h-294z" />
    <glyph glyph-name="backslash" unicode="\" horiz-adv-x="548" 
d="M336 -119l-286 863h162l286 -863h-162z" />
    <glyph glyph-name="bracketright" unicode="]" horiz-adv-x="374" 
d="M30 -151v135h135v647h-135v134h294v-916h-294z" />
    <glyph glyph-name="asciicircum" unicode="^" horiz-adv-x="565" 
d="M376 402l-92 193l-95 -193h-159l191 396h123l191 -396h-159z" />
    <glyph glyph-name="underscore" unicode="_" horiz-adv-x="638" 
d="M588 -192h-538v134h538v-134z" />
    <glyph glyph-name="grave" unicode="`" horiz-adv-x="320" 
d="M139 521l-92 268h174l52 -268h-134z" />
    <glyph glyph-name="a" unicode="a" horiz-adv-x="648" 
d="M621 -90h-173q-6 6 -14 24v1q-81 -44 -208 -44q-43 0 -86.5 17t-77.5 59t-34 99q0 56 19.5 97t54 63.5t70.5 33.5t79 15q71 6 122 20.5t51 31.5q0 22 -28.5 38t-71.5 16q-48 0 -76 -22.5t-28 -63.5h-174q6 108 78.5 167.5t197.5 59.5q148 0 211 -61t63 -174v-237
q0 -69 25 -140zM292 29q62 0 97 35t35 96v10q-40 -15 -91 -22q-131 -18 -132 -79q10 -42 91 -40z" />
    <glyph glyph-name="b" unicode="b" horiz-adv-x="663" 
d="M368 -104q-93 0 -149 43v-26h-171v795h171v-211q56 30 143 30q114 0 193.5 -96t79.5 -221q0 -131 -77.5 -222.5t-189.5 -91.5zM342 390q-50 0 -86.5 -49.5t-36.5 -130.5q0 -79 36.5 -128t86.5 -49q49 0 85 49t36 130q0 80 -35.5 129t-85.5 49z" />
    <glyph glyph-name="c" unicode="c" horiz-adv-x="637" 
d="M325 -108q-76 0 -142.5 35t-110.5 107.5t-44 169.5q0 147 87.5 233t209.5 86q119 0 193 -72.5t91 -179.5h-172q-3 16 -10 32.5t-19.5 35t-34 30.5t-48.5 12q-57 0 -91.5 -47t-34.5 -130q0 -80 35 -124.5t91 -44.5q51 0 77.5 37.5t34.5 79.5h172q-14 -105 -91 -182.5
t-193 -77.5z" />
    <glyph glyph-name="d" unicode="d" horiz-adv-x="663" 
d="M295 -105q-112 0 -189.5 91.5t-77.5 222.5q0 125 79.5 221t193.5 96q87 0 143 -30v211h171v-794h-171v24q-64 -42 -149 -42zM321 389q-50 0 -85.5 -49t-35.5 -129q0 -81 36 -130t85 -49q50 0 86.5 49t36.5 128q0 81 -36.5 130.5t-86.5 49.5z" />
    <glyph glyph-name="e" unicode="e" horiz-adv-x="649" 
d="M619 150h-416q6 -51 43.5 -83t84.5 -32q48 0 77.5 26.5t40.5 63.5h172q-8 -34 -27.5 -70.5t-53 -74.5t-88.5 -62t-121 -24q-132 0 -217.5 90.5t-85.5 225.5q0 134 85.5 224t217.5 90q121 0 207 -103t81 -271zM325 382q-42 0 -71.5 -25.5t-42.5 -68.5h229q-12 42 -42 68
t-73 26z" />
    <glyph glyph-name="f" unicode="f" horiz-adv-x="444" 
d="M303 369v-456h-172v456h-103v137h103v27q0 97 44.5 136.5t132.5 39.5h108v-134h-75q-23 0 -30.5 -7t-7.5 -29v-33h113v-137h-113z" />
    <glyph glyph-name="g" unicode="g" horiz-adv-x="642" 
d="M322 -85q48 0 71.5 32.5t27.5 73.5q-59 -26 -126 -26q-111 0 -189 72.5t-78 193.5q0 120 75 192.5t184 72.5q79 0 135 -37v17h172v-448q0 -135 -78 -206.5t-203 -71.5q-119 0 -187.5 55.5t-81.5 162.5h157q26 -83 121 -83zM310 390q-47 0 -79 -33.5t-32 -95.5
q0 -63 32 -96t79 -33q49 0 80.5 34t31.5 96t-31 95t-81 33z" />
    <glyph glyph-name="h" unicode="h" horiz-adv-x="646" 
d="M427 -87v362q0 43 -25.5 75t-70.5 32q-48 0 -80 -34t-32 -71v-364h-171v795h171v-214q68 34 155 31q97 -8 160.5 -76t63.5 -130v-406h-171z" />
    <glyph glyph-name="i" unicode="i" horiz-adv-x="308" 
d="M68 -87v568h172v-568h-172zM68 541v167h172v-167h-172z" />
    <glyph glyph-name="j" unicode="j" horiz-adv-x="417" 
d="M160 -177h-142v137h107q35 0 48.5 15.5t13.5 54.5v451h172v-439q0 -105 -50 -162t-149 -57zM187 541v167h172v-167h-172z" />
    <glyph glyph-name="k" unicode="k" horiz-adv-x="678" 
d="M468 -87l-177 240l-32 -29l-40 -37v-174h-171v795h171v-410l218 209h224l-256 -244l130 -173l132 -177h-199z" />
    <glyph glyph-name="l" unicode="l" horiz-adv-x="308" 
d="M68 -87v795h172v-795h-172z" />
    <glyph glyph-name="m" unicode="m" horiz-adv-x="922" 
d="M705 -87v395q0 26 -19 50t-55 24q-42 0 -65 -25t-23 -49v-395h-165v393q0 27 -17.5 51.5t-54.5 24.5q-42 0 -65.5 -24t-23.5 -48v-397h-169v592h169v-9q54 28 124 28q90 0 146 -66q75 66 177 66q81 0 145.5 -56t64.5 -128v-427h-169z" />
    <glyph glyph-name="n" unicode="n" horiz-adv-x="662" 
d="M442 -87v365q0 38 -26.5 70.5t-74.5 32.5q-54 0 -88 -34t-34 -69v-365h-171v592h171v-12q62 31 149 31q109 0 177.5 -67t68.5 -137v-407h-172z" />
    <glyph glyph-name="o" unicode="o" horiz-adv-x="652" 
d="M326 -107q-129 0 -213.5 91.5t-84.5 222.5q0 134 84 225t214 91t214 -90.5t84 -223.5q0 -134 -84 -225t-214 -91zM326 381q-56 0 -91.5 -45.5t-35.5 -127.5q0 -79 35.5 -126t91.5 -47t91.5 47t35.5 126q0 82 -35.5 127.5t-91.5 45.5z" />
    <glyph glyph-name="p" unicode="p" horiz-adv-x="663" 
d="M219 -26v-194h-171v726h171v-16q23 16 67 27t91 8q105 -6 181.5 -87t76.5 -205t-70 -207.5t-182 -87.5q-91 -3 -164 36zM342 386q-52 0 -87.5 -38.5t-35.5 -115.5q0 -76 35.5 -115t87.5 -39t86.5 38t34.5 114q0 78 -35 117t-86 39z" />
    <glyph glyph-name="q" unicode="q" horiz-adv-x="663" 
d="M444 -220v194q-73 -39 -164 -36q-112 4 -182 87.5t-70 207.5q0 120 77.5 201t180.5 91q102 6 158 -36v17h171v-726h-171zM321 386q-51 0 -86 -39t-35 -117q0 -76 34.5 -114t86.5 -38t87.5 39t35.5 115q0 77 -35.5 115.5t-87.5 38.5z" />
    <glyph glyph-name="r" unicode="r" horiz-adv-x="464" 
d="M219 234v-321h-171v593h171v-19q65 39 134 39q23 0 83 -10v-145q-56 8 -77 8q-66 0 -103 -42.5t-37 -102.5z" />
    <glyph glyph-name="s" unicode="s" horiz-adv-x="625" 
d="M313 -106q-69 0 -122.5 20t-82 47t-48 63t-25 60.5t-7.5 46.5h173q3 -42 25 -66.5t83 -26.5q47 -2 82 13t35 41q0 10 -11.5 18.5t-35.5 15.5t-41 11t-48 10q-4 1 -12.5 2.5t-12.5 2.5q-40 9 -65.5 15.5t-59 20.5t-53 31t-33.5 43.5t-14 60.5q0 90 73 145.5t191 55.5
q74 0 129.5 -21t85.5 -56.5t44.5 -72t16.5 -75.5h-169q-4 31 -30 57t-75 26q-95 0 -95 -39q0 -26 100 -48l13 -3q13 -2 19 -4h-1q16 -3 33.5 -8t35 -9t34.5 -10t33.5 -12t32 -14.5t28.5 -18t23.5 -21.5t18.5 -25.5t12 -30t4 -35.5q0 -54 -26.5 -96t-69 -66t-90.5 -36
t-98 -12z" />
    <glyph glyph-name="t" unicode="t" horiz-adv-x="454" 
d="M426 -88h-91q-109 0 -156.5 48.5t-47.5 153.5v255h-103v137h103v202h172v-202h123v-137h-123v-262q0 -35 28 -45.5t95 -10.5v-139z" />
    <glyph glyph-name="u" unicode="u" horiz-adv-x="662" 
d="M442 -87v11q-69 -30 -161 -30q-101 0 -167 67.5t-66 137.5v406h171v-369q0 -38 27 -71t76 -33q54 0 87 34t33 70v369h172v-592h-172z" />
    <glyph glyph-name="v" unicode="v" horiz-adv-x="633" 
d="M399 -86h-165l-222 592h188l116 -345l117 345h188z" />
    <glyph glyph-name="w" unicode="w" horiz-adv-x="854" 
d="M662 -86h-176l-59 243l-58 -243h-177l-180 592h184l87 -306l74 306h141l74 -304l84 304h186z" />
    <glyph glyph-name="x" unicode="x" horiz-adv-x="675" 
d="M464 -87l-125 177l-126 -177h-202l230 309l-218 284h204l112 -151l113 151h203l-216 -285l225 -308h-200z" />
    <glyph glyph-name="y" unicode="y" horiz-adv-x="641" 
d="M442 506h187l-244 -575q-28 -63 -78.5 -103t-118.5 -40h-117v136h110q23 0 39 24.5t8 44.5l-216 513h188l123 -311z" />
    <glyph glyph-name="z" unicode="z" horiz-adv-x="586" 
d="M28 -87v121l291 335h-273v137h494v-119l-290 -335h308v-139h-530z" />
    <glyph glyph-name="braceleft" unicode="{" horiz-adv-x="375" 
d="M113 14v160q0 50 -63 62v130q63 19 63 64v160q0 95 55.5 133.5t176.5 40.5v-134q-44 -1 -58 -12t-14 -40v-147q0 -82 -66 -129q66 -49 66 -129v-148q0 -31 13 -40.5t59 -10.5v-134q-124 2 -178 40t-54 134z" />
    <glyph glyph-name="bar" unicode="|" horiz-adv-x="291" 
d="M70 -119v863h151v-863h-151z" />
    <glyph glyph-name="braceright" unicode="}" horiz-adv-x="375" 
d="M261 174v-160q0 -96 -54 -134t-177 -40v134q46 1 59 10.5t13 40.5v148q0 80 66 129q-66 47 -66 129v147q0 29 -14 40t-58 12v134q121 -2 176 -40.5t55 -133.5v-160q0 -45 64 -64v-130q-64 -12 -64 -62z" />
    <glyph glyph-name="asciitilde" unicode="~" horiz-adv-x="706" 
d="M472 208q-48 0 -88 18.5t-73.5 37.5t-64.5 19q-46 0 -107 -94l-119 89q12 18 29.5 37.5t48 48t70 47t79.5 18.5q42 0 77.5 -12t55 -26t45 -26t49.5 -12q35 0 93 90l119 -89q-11 -18 -27 -37.5t-43.5 -46.5t-65.5 -44.5t-78 -17.5z" />
    <glyph glyph-name="uniAC00" unicode="&#xac00;" horiz-adv-x="850" 
d="M739 360v-497h-189v874h189v-229h91v-148h-91zM62 -61l-42 147q110 34 183 124t73 203v157h-233v148h421v-283q0 -188 -109 -318t-293 -178z" />
    <glyph glyph-name="uniAC01" unicode="&#xac01;" horiz-adv-x="844" 
d="M734 455v-210h-188v492h188v-134h90v-148h-90zM60 239l-40 142q45 2 89 12t86 30.5t66.5 57.5t20.5 86q-217 2 -243 2v149h441v-175q0 -61 -26 -114t-68.5 -89t-97 -61t-113.5 -34.5t-115 -5.5zM546 -137v201h-467v148h655v-349h-188z" />
    <glyph glyph-name="uniAC04" unicode="&#xac04;" horiz-adv-x="844" 
d="M746 417v-305h-189v625h189v-172h91v-148h-91zM39 207l-19 148q66 -2 129.5 18.5t107.5 71.5t36 122v-1q0 4 -253 4v148h451v-178q0 -86 -41.5 -154t-108 -107t-145 -57.5t-157.5 -14.5zM755 -137v148h-467v162h-187v-139q0 -71 49.5 -120.5t119.5 -49.5z" />
    <glyph glyph-name="uniAC07" unicode="&#xac07;" horiz-adv-x="844" 
d="M735 465v-191h-189v463h189v-124h90v-148h-90zM60 264l-40 141q35 1 77.5 11t87 28.5t72.5 50.5t25 72h-243v151h441v-161q0 -73 -41.5 -132.5t-105.5 -93.5t-135 -51.5t-138 -15.5zM91 240h644v-148h-467v-81h477v-148h-486q-70 0 -120 50t-49 120z" />
    <glyph glyph-name="uniAC08" unicode="&#xac08;" horiz-adv-x="844" 
d="M737 474v-181h-189v444h189v-115h91v-148h-91zM54 279l-34 142q31 -1 75 7.5t88.5 25.5t74 47t26.5 66h-243v151h441v-159q0 -59 -28.5 -108.5t-74.5 -82t-103 -54.5t-114 -30t-108 -5zM92 115h456v29h-456v115h645v-249h-458v-28h467v-119h-485q-70 0 -119.5 50
t-49.5 120v82z" />
    <glyph glyph-name="uniAC09" unicode="&#xac09;" horiz-adv-x="844" 
d="M737 474v-181h-189v444h189v-115h91v-148h-91zM54 279l-34 142q31 -1 75 7.5t88.5 25.5t74 47t26.5 66h-243v151h441v-159q0 -59 -28.5 -108.5t-74.5 -82t-103 -54.5t-114 -30t-108 -5zM548 -137v249h-121v147h309v-396h-188zM81 115h132v29h-132v115h311v-249h-133v-28
h142v-119h-151q-70 0 -119.5 50t-49.5 121v81z" />
    <glyph glyph-name="uniAC10" unicode="&#xac10;" horiz-adv-x="844" 
d="M737 474v-191h-189v454h189v-115h91v-148h-91zM54 279l-34 142q31 -1 75 7.5t88.5 25.5t74 47t26.5 66h-243v151h441v-159q0 -59 -28.5 -108.5t-74.5 -82t-103 -54.5t-114 -30t-108 -5zM81 250h655v-387h-485q-71 0 -121 50t-49 120v217zM548 102h-279v-91h279v91z" />
    <glyph glyph-name="uniAC11" unicode="&#xac11;" horiz-adv-x="844" 
d="M737 474v-181h-189v444h189v-115h91v-148h-91zM54 279l-34 142q31 -1 75 7.5t88.5 25.5t74 47t26.5 66h-243v151h441v-159q0 -59 -28.5 -108.5t-74.5 -82t-103 -54.5t-114 -30t-108 -5zM81 259h188v-47h279v47h188v-396h-486q-70 0 -119.5 50t-49.5 120v226zM548 64h-279
v-53h279v53z" />
    <glyph glyph-name="uniAC12" unicode="&#xac12;" horiz-adv-x="844" 
d="M736 474v-182h-188v444h188v-114h91v-148h-91zM53 279l-33 141q34 -1 77 7.5t86 25t72 47t29 68.5h-243v149h441v-159q0 -61 -28.5 -110.5t-73.5 -80t-103.5 -51t-114 -29t-109.5 -8.5zM81 259h148v-57h45v57h146v-270q67 48 89.5 111t20.5 159h173q0 -100 26.5 -170.5
t100.5 -110.5l-59 -134q-101 47 -154 126q-23 -48 -67.5 -83t-86.5 -43l-42 93v-74h-170q-71 0 -121 50t-49 120v226zM274 63h-45v-62h45v62z" />
    <glyph glyph-name="uniAC13" unicode="&#xac13;" horiz-adv-x="844" 
d="M39 216l-19 148q60 -2 122 19t105 69.5t36 113.5q0 3 -243 3v148h441v-178q0 -65 -27.5 -120.5t-72.5 -93.5t-102.5 -64.5t-119 -37t-120.5 -7.5zM693 -157q-223 68 -278 174h-5q-74 -105 -276 -174l-73 139q41 13 83.5 36.5t82 56t64 76.5t23.5 89h197q2 -49 27.5 -94
t65.5 -76.5t80.5 -53t81.5 -34.5zM736 417v-239h-189v558h189v-172h91v-147h-91z" />
    <glyph glyph-name="uniAC14" unicode="&#xac14;" horiz-adv-x="844" 
d="M754 455v-201h-188v482h188v-133h91v-148h-91zM59 252l-39 141q42 1 87.5 10t93 27.5t76.5 54t26 81.5q-1 1 -119 1t-145 -1v151h462v-161q0 -102 -72.5 -177.5t-172.5 -106.5t-197 -20zM736 -156q-36 13 -82 49t-67 80q-47 -75 -159 -123q-43 12 -91.5 49.5t-62.5 73.5
q-24 -46 -66.5 -81t-87.5 -48l-91 115q58 27 100 86.5t50 124.5q3 24 3 51h178q0 -11 3 -39q12 -111 62 -142h4q50 24 64 143q2 19 2 38h179q0 -25 3 -47q8 -67 49 -125.5t101 -89.5z" />
    <glyph glyph-name="uniAC15" unicode="&#xac15;" horiz-adv-x="844" 
d="M735 455v-249h-111q121 -61 121 -164q0 -66 -50 -114.5t-125 -70.5t-162.5 -21.5t-162.5 22t-125 70t-50 114.5q0 58 35 101.5t89.5 65t119.5 31.5t125.5 7t107.5 -15v504h188v-134h90v-147h-90zM60 235l-40 141q263 22 263 192h-243v149h441v-159q0 -80 -38.5 -144.5
t-100.5 -103t-135 -58t-147 -17.5zM269 42q0 -38 69.5 -53.5t139 0t69.5 53.5t-69.5 53t-139 -0.5t-69.5 -52.5z" />
    <glyph glyph-name="uniAC16" unicode="&#xac16;" horiz-adv-x="844" 
d="M735 464v-181h-189v453h189v-124h90v-148h-90zM60 271l-40 142q46 1 104.5 16t110 51.5t47.5 85.5q0 1 -108.5 1t-134.5 -1v151h441v-161q0 -71 -42 -129t-107 -91t-136 -50t-135 -15zM692 -156q-72 11 -155.5 60t-125.5 105q-42 -57 -128.5 -104.5t-150.5 -60.5l-71 135
q44 15 119.5 57t76.5 66h-167v147h644v-147h-169q10 -26 85.5 -69t111.5 -55z" />
    <glyph glyph-name="uniAC17" unicode="&#xac17;" horiz-adv-x="844" 
d="M735 464v-181h-189v453h189v-124h90v-148h-90zM60 271l-40 142q46 1 104.5 16t110 51.5t47.5 85.5q0 1 -108.5 1t-134.5 -1v151h441v-161q0 -71 -42 -129t-107 -91t-136 -50t-135 -15zM692 -156q-73 14 -156 63t-125 102q-33 -51 -120.5 -97.5t-158.5 -67.5l-71 135
q46 15 117.5 54.5t78.5 68.5h-167v138h231v57h184v-57h229v-138h-169q17 -29 79 -65t118 -59z" />
    <glyph glyph-name="uniAC19" unicode="&#xac19;" horiz-adv-x="844" 
d="M735 465v-182h-189v454h189v-124h90v-148h-90zM60 272l-40 141q32 1 75 10.5t87.5 27t73.5 48.5t26 68h-243v151h441v-161q0 -71 -42 -129t-107 -91t-136 -50t-135 -15zM90 250h645v-110h-458v-29h447v-109h-447v-29h468v-110h-486q-70 0 -119.5 50t-49.5 120v217z" />
    <glyph glyph-name="uniAC1A" unicode="&#xac1a;" horiz-adv-x="844" 
d="M735 465v-182h-189v454h189v-124h90v-148h-90zM60 272l-40 141q32 1 75 10.5t87.5 27t73.5 48.5t26 68h-243v151h441v-161q0 -71 -42 -129t-107 -91t-136 -50t-135 -15zM79 -137v139h102v100h-91v138h644v-138h-91v-100h101v-139h-665zM465 102h-106v-100h106v100z" />
    <glyph glyph-name="uniAC1B" unicode="&#xac1b;" horiz-adv-x="844" 
d="M734 464v-191h-188v463h188v-124h91v-148h-91zM59 271l-39 141q36 1 77.5 10.5t84.5 26.5t71.5 48.5t28.5 70.5h-243v149h441v-161q0 -73 -42 -130.5t-107.5 -89.5t-135 -48t-136.5 -17zM69 12q0 46 66 88l-66 1v129h239v57h188v-57h238v-129h-65q65 -41 65 -89
q0 -56 -49.5 -97.5t-123 -59.5t-160 -18t-160 18.5t-123 59.5t-49.5 97zM266 11q0 -32 67.5 -45t135 0t67.5 45t-67.5 45t-135 0t-67.5 -45z" />
    <glyph glyph-name="uniAC1C" unicode="&#xac1c;" horiz-adv-x="837" 
d="M588 -137v478h-35v-478h-168v874h168v-249h35v249h169v-874h-169zM71 -59l-51 147q86 37 114 86.5t28 148.5v247h-122v148h300v-396q0 -154 -63 -246t-206 -135z" />
    <glyph glyph-name="uniAC1D" unicode="&#xac1d;" horiz-adv-x="868" 
d="M630 236v219h-36v-219h-157v501h157v-134h36v134h158v-501h-158zM41 235l-21 143q81 11 136.5 68.5t57.5 119.5q0 1 -82 2.5t-91 1.5v148h360v-133q0 -148 -106 -249t-254 -101zM599 -137v191h-516v148h705v-339h-189z" />
    <glyph glyph-name="uniAC20" unicode="&#xac20;" horiz-adv-x="868" 
d="M620 112v296h-36v-296h-147v625h147v-181h36v181h148v-625h-148zM41 206l-21 141q90 13 141.5 79.5t52.5 139.5q0 1 -82 2.5t-91 1.5v148h361v-160q0 -148 -106 -249.5t-255 -102.5zM102 164h188v-153h488v-148h-506q-70 0 -120.5 50t-49.5 120v131z" />
    <glyph glyph-name="uniAC24" unicode="&#xac24;" horiz-adv-x="868" 
d="M620 293v172h-36v-172h-147v444h147v-115h36v115h148v-444h-148zM42 292l-22 134q66 4 126.5 42t67.5 98q0 3 -173 3v149h361v-122q0 -97 -51.5 -167.5t-131.5 -104t-177 -32.5zM102 115h477v29h-477v115h666v-249h-478v-28h488v-119h-506q-70 0 -120.5 50t-49.5 120v82z
" />
    <glyph glyph-name="uniAC2D" unicode="&#xac2d;" horiz-adv-x="868" 
d="M620 283v164h-36v-164h-147v454h147v-143h36v143h148v-454h-148zM41 284l-21 138q83 15 135 58.5t59 85.5q0 1 -82 2.5t-91 1.5v148h361v-112q0 -96 -53 -169.5t-133.5 -111t-174.5 -41.5zM102 250h188v-58h289v58h189v-387h-496q-70 0 -120.5 50t-49.5 120v217zM579 64
h-289v-62h289v62z" />
    <glyph glyph-name="uniAC2F" unicode="&#xac2f;" horiz-adv-x="868" 
d="M620 207v257h-36v-200h-147v472h147v-124h36v124h147v-529h-147zM724 -157q-188 59 -277 174h-5q-35 -44 -97 -84.5t-103 -59t-76 -30.5l-73 139q57 19 111.5 52t98 89t43.5 117h197q1 -62 45.5 -118t99 -89.5t110.5 -50.5zM41 206l-21 141q80 12 143 79.5t51 139.5
q0 3 -173 3v148h360v-160q0 -148 -106 -249.5t-254 -101.5z" />
    <glyph glyph-name="uniAC30" unicode="&#xac30;" horiz-adv-x="868" 
d="M619 254v190h-35v-190h-147v482h147v-144h35v144h149v-482h-149zM40 234l-20 144q80 16 129 67t64 121q0 3 -172 3v148h360v-132q0 -148 -106 -249t-255 -102zM743 -156q-39 16 -84 49.5t-65 79.5q-23 -47 -71.5 -82t-87.5 -41q-11 5 -23.5 9t-29 14t-33 21.5t-34.5 32
t-34 46.5q-48 -80 -154 -129l-91 115q58 27 100 86.5t50 124.5q3 24 3 51h179q0 -20 2 -39q15 -128 65 -140q49 5 65 141q3 29 3 38h178q0 -25 3 -47q8 -67 49 -125.5t101 -89.5z" />
    <glyph glyph-name="uniAC31" unicode="&#xac31;" horiz-adv-x="868" 
d="M92 42q0 58 35.5 101t92 64.5t111 31.5t106.5 10v487h147v-134h36v134h147v-530h-123q123 -62 123 -164q0 -66 -50 -114.5t-125 -70t-162.5 -21.5t-162.5 21.5t-125 70t-50 114.5zM41 213l-21 142q79 13 143 75t50 138l-172 1v148h361v-160q0 -144 -107.5 -243.5
t-253.5 -100.5zM290 42q0 -38 70 -53.5t140 0t70 53.5t-70 53t-140 -0.5t-70 -52.5zM620 455h-36v-209h-97q74 -7 133 -31v240z" />
    <glyph glyph-name="uniAC38" unicode="&#xac38;" horiz-adv-x="844" 
d="M739 159v-296h-189v874h189v-144h91v-147h-91v-139h91v-148h-91zM62 -61l-42 147q110 34 183 124t73 203v157h-233v148h421v-283q0 -188 -109 -318t-293 -178z" />
    <glyph glyph-name="uniAC39" unicode="&#xac39;" horiz-adv-x="844" 
d="M734 322v-77h-188v492h188v-77h91v-138h-91v-62h91v-138h-91zM60 239l-40 142q49 2 92 11.5t83 30t63.5 58t23.5 88.5h-243v149h441v-175q0 -64 -26 -116.5t-68.5 -87.5t-97.5 -59t-113 -33.5t-115 -7.5zM546 -137v201h-467v148h655v-349h-188z" />
    <glyph glyph-name="uniAC40" unicode="&#xac40;" horiz-adv-x="844" 
d="M736 379v-86h-188v444h188v-67h92v-119h-92v-53h92v-119h-92zM54 279l-34 142q31 -1 75 7.5t88.5 25.5t74 47t26.5 66h-243v151h441v-159q0 -59 -28.5 -108.5t-74.5 -82t-103 -54.5t-114 -30t-108 -5zM92 115h456v29h-456v115h644v-249h-457v-28h467v-119h-485
q-70 0 -119.5 50t-49.5 120v82z" />
    <glyph glyph-name="uniAC54" unicode="&#xac54;" horiz-adv-x="837" 
d="M588 -137v325h-35v-325h-168v874h168v-153h35v153h169v-874h-169zM71 -59l-51 147q89 41 115.5 88t26.5 147v247h-122v148h300v-396q0 -154 -63 -246t-206 -135zM588 436h-35v-100h35v100z" />
    <glyph glyph-name="uniAC58" unicode="&#xac58;" horiz-adv-x="868" 
d="M620 112v171h-36v-171h-147v625h147v-96h36v96h148v-625h-148zM41 206l-21 141q92 13 141 74.5t53 144.5q0 1 -82 2.5t-91 1.5v148h361v-160q0 -148 -106 -249.5t-255 -102.5zM102 164h188v-153h487v-148h-505q-70 0 -120.5 50t-49.5 120v131zM620 503h-36v-81h36v81z
" />
    <glyph glyph-name="uniAC70" unicode="&#xac70;" horiz-adv-x="819" 
d="M550 -137v458h-98q-30 -146 -135 -244.5t-255 -137.5l-42 147q111 37 183.5 125t72.5 202v157h-234v148h422v-250h86v269h189v-874h-189z" />
    <glyph glyph-name="uniAC71" unicode="&#xac71;" horiz-adv-x="815" 
d="M546 237v180h-97q-53 -95 -161.5 -138.5t-228.5 -39.5l-39 142q49 2 92 11.5t83 30t63.5 58t23.5 88.5h-244v149h442v-153h66v172h189v-500h-189zM546 -137v191h-469v148h658v-339h-189z" />
    <glyph glyph-name="uniAC74" unicode="&#xac74;" horiz-adv-x="815" 
d="M548 112v304h-94q-50 -109 -167 -162.5t-247 -46.5l-20 148q104 -3 189.5 55t74.5 159l-244 1v148h442v-154h66v173h189v-625h-189zM91 164h188v-153h467v-148h-485q-71 0 -121 50t-49 120v131z" />
    <glyph glyph-name="uniAC77" unicode="&#xac77;" horiz-adv-x="815" 
d="M546 274v153h-112q-101 -161 -375 -163l-39 141q38 1 80 10.5t84.5 28t70 51t27.5 74.5h-244v149h442v-144h66v163h189v-463h-189zM90 240h645v-148h-467v-81h477v-148h-483q-70 0 -120.5 50t-50.5 120z" />
    <glyph glyph-name="uniAC78" unicode="&#xac78;" horiz-adv-x="815" 
d="M548 293v152h-101q-100 -163 -394 -165l-33 141q34 -1 77 7.5t86 25t72 47t29 68.5h-244v149h442v-125h66v144h189v-444h-189zM91 115h457v29h-457v115h646v-249h-458v-28h468v-119h-485q-71 0 -121.5 50t-49.5 120v82z" />
    <glyph glyph-name="uniAC80" unicode="&#xac80;" horiz-adv-x="815" 
d="M548 283v153h-106q-104 -154 -389 -156l-33 141q34 -1 77 7.5t86 25t72 47t29 68.5h-244v149h442v-134h66v153h188v-454h-188zM81 250h655v-387h-486q-70 0 -120 50t-49 120v217zM548 102h-279v-91h279v91z" />
    <glyph glyph-name="uniAC81" unicode="&#xac81;" horiz-adv-x="815" 
d="M549 293v143h-107q-104 -154 -389 -156l-33 141q34 -1 77 7.5t86 25t72 47t29 68.5h-244v149h442v-134h67v153h187v-444h-187zM81 259h188v-47h279v47h188v-396h-486q-70 0 -120 50t-49 120v226zM548 64h-279v-53h279v53z" />
    <glyph glyph-name="uniAC83" unicode="&#xac83;" horiz-adv-x="815" 
d="M549 178v239h-98q-37 -71 -105 -119t-146 -67.5t-160 -14.5l-20 148q45 -2 92.5 11t88.5 37t64.5 65t18.5 91l-244 1v148h442v-153h67v172h187v-558h-187zM693 -157q-81 22 -161.5 71.5t-118.5 106.5q-99 -114 -279 -178l-72 139q45 15 85.5 36.5t79 52.5t62.5 75t26 94
h197q3 -52 28.5 -97t65.5 -76t79.5 -51.5t81.5 -33.5z" />
    <glyph glyph-name="uniAC84" unicode="&#xac84;" horiz-adv-x="815" 
d="M553 254v191h-83q-45 -108 -159.5 -159.5t-243.5 -46.5l-40 141q49 2 92.5 12t83.5 30.5t63.5 58t23.5 87.5h-244v149h442v-124h65v143h189v-482h-189zM727 -156q-97 44 -152 126q-4 -8 -13.5 -21.5t-49.5 -46t-93 -52.5q-96 40 -156 120q-27 -63 -152 -126l-91 115
q72 33 112.5 106t40.5 156h179q0 -137 67 -182q22 14 37 40.5t20.5 56.5t7.5 49t2 36h179q-2 -82 39.5 -153.5t113.5 -108.5z" />
    <glyph glyph-name="uniAC85" unicode="&#xac85;" horiz-adv-x="815" 
d="M70 42q0 73 54 122t133 65.5t159 16t141 -16.5v206h-100v16q-54 -116 -158 -168t-240 -48l-39 141q263 22 263 192h-244v149h442v-134h76v153h188v-530h-123q123 -62 123 -164q0 -66 -50 -114.5t-125 -70t-162.5 -21.5t-162.5 21.5t-125 70t-50 114.5zM268 42
q0 -38 70 -53.5t140 0t70 53.5t-70 53t-140 -0.5t-70 -52.5z" />
    <glyph glyph-name="uniAC86" unicode="&#xac86;" horiz-adv-x="815" 
d="M546 283v153h-109q-108 -162 -378 -164l-39 141q35 1 77 10t85 26.5t71.5 48.5t28.5 70h-244v149h442v-134h66v153h188v-453h-188zM691 -156q-76 17 -153 62t-127 102q-91 -112 -280 -164l-70 135q80 27 123.5 51.5t74.5 71.5h-170v147h645v-147h-173q67 -79 201 -124z
" />
    <glyph glyph-name="uniAC89" unicode="&#xac89;" horiz-adv-x="815" 
d="M546 283v153h-109q-108 -162 -378 -164l-39 141q35 1 77 10t85 26.5t71.5 49t28.5 70.5h-244v149h442v-134h66v153h189v-454h-189zM89 250h646v-110h-458v-29h447v-109h-447v-29h468v-110h-488q-70 0 -119.5 50t-48.5 120v217z" />
    <glyph glyph-name="uniAC8A" unicode="&#xac8a;" horiz-adv-x="815" 
d="M546 274v172l-102 -1q-106 -171 -385 -173l-39 141q35 1 77 10t85 26.5t71.5 49t28.5 70.5h-244v149h442v-125h66v144h189v-463h-189zM79 -137v139h101v100h-91v138h645v-138h-92v-101h102v-138h-665zM465 102h-107v-100h107v100z" />
    <glyph glyph-name="uniAC8B" unicode="&#xac8b;" horiz-adv-x="815" 
d="M546 273v182h-97q-97 -182 -390 -184l-39 141q35 1 77 10.5t85 26.5t71.5 48.5t28.5 70.5h-244v149h442v-115h66v134h188v-463h-188zM69 13q0 45 69 88h-69v129h238v57h188v-57h239v-129h-69q69 -43 69 -88q0 -56 -49.5 -97.5t-123 -60t-160 -18.5t-160 18.5t-123 60
t-49.5 97.5zM266 13q0 -32 67.5 -45t135 0t67.5 45t-67.5 45t-135 0t-67.5 -45z" />
    <glyph glyph-name="uniAC8C" unicode="&#xac8c;" horiz-adv-x="837" 
d="M588 -137v874h169v-874h-169zM385 -137v478h-45q0 -165 -59.5 -259.5t-209.5 -140.5l-51 147q89 41 115.5 88t26.5 147v247h-122v148h300v-230h45v249h168v-874h-168z" />
    <glyph glyph-name="uniAC90" unicode="&#xac90;" horiz-adv-x="848" 
d="M620 112v625h148v-625h-148zM437 112v305h-66q-40 -96 -131.5 -153t-198.5 -58l-21 142q81 12 144 79.5t49 141.5l-172 1v148h361v-153h35v172h147v-625h-147zM102 164h188v-153h488v-148h-507q-70 0 -120 50t-49 120v131z" />
    <glyph glyph-name="uniAC94" unicode="&#xac94;" horiz-adv-x="848" 
d="M620 293v444h148v-444h-148zM437 293v161h-72q-45 -85 -131 -123.5t-192 -38.5l-22 135q66 3 130 43.5t64 98.5h-173v149h361v-116h35v135h147v-444h-147zM102 115h477v29h-477v115h666v-249h-478v-28h488v-119h-507q-70 0 -120 50t-49 120v82z" />
    <glyph glyph-name="uniAC9D" unicode="&#xac9d;" horiz-adv-x="848" 
d="M102 250h188v-58h289v58h189v-387h-497q-70 0 -120 50t-49 120v217zM437 283v172h-78q-96 -159 -318 -171l-21 138q25 5 57.5 17.5t66 31t54 45t15.5 53.5l-172 1v148h361v-115h35v134h147v-454h-147zM620 283v454h148v-454h-148zM579 64h-289v-62h289v62z" />
    <glyph glyph-name="uniAC9F" unicode="&#xac9f;" horiz-adv-x="848" 
d="M620 207v529h147v-529h-147zM437 264v181h-55q-38 -110 -130.5 -174.5t-210.5 -64.5l-21 141q81 13 143.5 80t49.5 141l-172 1v148h360v-124h36v143h147v-472h-147zM724 -157q-174 53 -279 178q-45 -50 -123.5 -99t-155.5 -79l-73 139q41 13 83 36t81.5 55.5t64 76
t24.5 90.5h197q1 -87 82.5 -158.5t172.5 -99.5z" />
    <glyph glyph-name="uniACA0" unicode="&#xaca0;" horiz-adv-x="848" 
d="M619 254v482h149v-482h-149zM437 254v190h-66q-43 -97 -133 -153t-198 -57l-20 144q70 10 133 64.5t60 125.5l-172 1v148h360v-125h36v144h147v-482h-147zM743 -156q-49 22 -89 56t-63 70q-51 -76 -156 -120q-96 40 -156 120q-21 -40 -67.5 -76t-84.5 -50l-91 115
q72 33 112.5 106t40.5 156h179q0 -137 67 -182q32 20 49.5 72.5t18.5 109.5h178q-2 -81 37 -149t116 -113z" />
    <glyph glyph-name="uniACA1" unicode="&#xaca1;" horiz-adv-x="848" 
d="M643 206q124 -62 124 -164q0 -66 -50 -114.5t-125 -70t-162.5 -21.5t-162.5 21.5t-125 70t-50 114.5q0 58 35.5 101t92 64.5t111 31.5t106.5 10v196h-56q-39 -105 -132.5 -168t-207.5 -64l-21 142q79 13 143 75t50 138l-172 1v148h361v-124h35v143h147v-492h-81
q60 -6 117 -28v520h148v-530h-125zM290 42q0 -38 70 -53.5t140 0t70 53.5t-70 53t-140 -0.5t-70 -52.5z" />
    <glyph glyph-name="uniACA8" unicode="&#xaca8;" horiz-adv-x="819" 
d="M428 226v11q-50 -113 -146 -189.5t-220 -108.5l-42 147q111 37 183.5 125t72.5 202v157h-234v148h422v-115h86v134h189v-874h-189v363h-122zM550 454h-86q0 -14 -1.5 -40t-1.5 -40h89v80z" />
    <glyph glyph-name="uniACA9" unicode="&#xaca9;" horiz-adv-x="815" 
d="M546 245v86h-102v79q-59 -92 -162 -133.5t-223 -37.5l-39 142q49 2 92 11.5t83 30t63.5 58t23.5 88.5h-244v149h442v-58h66v77h189v-492h-189zM546 -137v201h-467v148h655v-349h-188zM546 522h-67q0 -22 -9 -53h76v53z" />
    <glyph glyph-name="uniACAA" unicode="&#xacaa;" horiz-adv-x="815" 
d="M546 245v86h-102v79q-59 -92 -162 -133.5t-223 -37.5l-39 142q49 2 92 11.5t83 30t63.5 58t23.5 88.5h-244v149h442v-58h66v77h189v-492h-189zM546 -137v201h-121v148h310v-349h-189zM211 -137v201h-132v148h320v-349h-188zM546 522h-67q0 -22 -9 -53h76v53z" />
    <glyph glyph-name="uniACAC" unicode="&#xacac;" horiz-adv-x="815" 
d="M548 112v191h-122v65q-66 -87 -168 -127.5t-218 -33.5l-20 148q104 -3 189.5 55t74.5 159l-244 1v148h442v-67h66v86h189v-625h-189zM91 173h188v-162h467v-148h-486q-70 0 -120 50t-49 120v140zM548 513l-68 -1q0 -30 -16 -71h84v72z" />
    <glyph glyph-name="uniACB0" unicode="&#xacb0;" horiz-adv-x="815" 
d="M548 293v57h-112v78q-110 -146 -383 -148l-33 141q34 -1 77 7.5t86 25t72 47t29 68.5h-244v149h442v-39h66v58h189v-444h-189zM91 115h457v29h-457v115h646v-249h-463v-28h473v-119h-487q-70 0 -120 50t-49 120v82zM548 541h-67q0 -14 -13 -53h80v53z" />
    <glyph glyph-name="uniACB8" unicode="&#xacb8;" horiz-adv-x="815" 
d="M548 283v58h-122v74q-111 -133 -373 -135l-33 141q34 -1 77 7.5t86 25t72 47t29 68.5h-244v149h442v-48h66v67h189v-454h-189zM91 250h646v-387h-477q-70 0 -120 50t-49 120v217zM548 532h-69q0 -18 -16 -53h85v53zM548 102h-269v-91h269v91z" />
    <glyph glyph-name="uniACB9" unicode="&#xacb9;" horiz-adv-x="815" 
d="M548 293v57h-122v65q-116 -135 -373 -135l-33 141q34 -1 77 7.5t86 25t72 47t29 68.5h-244v149h442v-39h66v58h189v-444h-189zM81 259h188v-47h279v47h188v-396h-486q-70 0 -120 50t-49 120v226zM548 541h-67q0 -14 -13 -53h80v53zM548 64h-279v-53h279v53z" />
    <glyph glyph-name="uniACBC" unicode="&#xacbc;" horiz-adv-x="815" 
d="M554 254v67h-111v72q-64 -84 -162.5 -121t-212.5 -33l-40 141q49 2 92.5 12t83.5 30.5t63.5 58t23.5 87.5h-244v149h442v-57h65v76h189v-482h-189zM727 -156q-84 38 -152 126q-43 -76 -156 -120q-96 40 -156 120q-26 -43 -73 -77.5t-79 -48.5l-91 115q72 33 112.5 106
t40.5 156h179q0 -137 67 -182q67 52 67 182h179q-2 -82 39.5 -153.5t113.5 -108.5zM554 512h-67q0 -13 -11 -53h78v53z" />
    <glyph glyph-name="uniACBD" unicode="&#xacbd;" horiz-adv-x="815" 
d="M70 42q0 73 54 122t133 65.5t159 16t141 -16.5v101h-112l-1 98q-55 -105 -156.5 -151t-228.5 -42l-39 141q263 22 263 192h-244v149h442v-57h76v76h188v-530h-123q123 -62 123 -164q0 -66 -50 -114.5t-125 -70t-162.5 -21.5t-162.5 21.5t-125 70t-50 114.5zM557 521h-80
q0 -12 -14 -52h94v52zM268 42q0 -38 70 -53.5t140 0t70 53.5t-70 53t-140 -0.5t-70 -52.5z" />
    <glyph glyph-name="uniACC1" unicode="&#xacc1;" horiz-adv-x="815" 
d="M548 293v57h-122v65q-116 -135 -373 -135l-33 141q34 -1 77 7.5t86 25t72 47t29 68.5h-244v149h442v-39h66v58h189v-444h-189zM91 259h646v-114h-458v-29h447v-105h-447v-29h467v-119h-486q-70 0 -120 50t-49 120v226zM548 541h-67q0 -14 -13 -53h80v53z" />
    <glyph glyph-name="uniACC4" unicode="&#xacc4;" horiz-adv-x="837" 
d="M588 -137v874h169v-874h-169zM385 -137v354h-52q-16 -115 -82 -178.5t-180 -97.5l-51 147q89 41 115.5 88t26.5 147v247h-122v148h300v-115h45v134h168v-874h-168zM385 455h-45v-91h45v91z" />
    <glyph glyph-name="uniACD7" unicode="&#xacd7;" horiz-adv-x="848" 
d="M620 207v529h147v-529h-147zM437 264v76h-81v44q-49 -84 -133 -131t-182 -47l-21 141q81 13 143.5 80t49.5 141l-172 1v148h360v-48h36v67h147v-472h-147zM724 -157q-174 52 -279 178q-107 -119 -279 -178l-73 139q41 13 82.5 36t81 55t64.5 76t25 91h197q5 -52 31.5 -97
t65 -76t78 -51.5t80.5 -33.5zM437 531h-38q0 -17 -8 -53h46v53z" />
    <glyph glyph-name="uniACE0" unicode="&#xace0;" horiz-adv-x="806" 
d="M40 -118v148h164v344h176v-344h110q4 8 10 24.5t16.5 80t10.5 142.5v293h-446v148h634v-335q-1 -64 0.5 -119.5t-6 -119t-25.5 -114.5h82v-148h-726z" />
    <glyph glyph-name="uniACE1" unicode="&#xace1;" 
d="M40 235v138h173v125h177v-125h129q28 32 28 124v72h-466v148h654v-123q0 -162 -26 -221h77v-138h-746zM547 -137v200h-466v139h654v-339h-188z" />
    <glyph glyph-name="uniACE4" unicode="&#xace4;" 
d="M40 197v138h161v153h178v-153h129q28 26 28 124v110h-466v148h654v-104q-1 -43 0 -91t-5.5 -103t-21.5 -84h69v-138h-726zM80 154h188v-154h478v-137h-497q-70 0 -119.5 49.5t-49.5 119.5v122z" />
    <glyph glyph-name="uniACE7" unicode="&#xace7;" 
d="M40 250v138h161v100h178v-100h131q26 34 26 114v67h-466v148h654v-109q0 -167 -27 -220h69v-138h-726zM80 211h655v-138h-467v-72h478v-138h-497q-70 0 -119.5 49.5t-49.5 119.5v179z" />
    <glyph glyph-name="uniACE8" unicode="&#xace8;" 
d="M40 288v138h161v91h178v-91h128q29 25 29 116v37h-466v138h654v-63q0 -181 -27 -228h69v-138h-726zM80 116h467v29h-467v109h654v-243h-466v-29h478v-119h-497q-70 0 -119.5 49.5t-49.5 119.5v84z" />
    <glyph glyph-name="uniACEA" unicode="&#xacea;" 
d="M40 297v138h161v81h178v-81h129q28 28 28 110v34h-466v138h654v-64q-1 -32 0 -71.5t-6 -83.5t-22 -63h70v-138h-726zM425 -137v401h309v-401h-309zM80 116h132v29h-132v119h309v-253h-132v-29h132v-119h-140q-70 0 -119.5 49.5t-49.5 119.5v84zM597 154h-35v-172h35v172z
" />
    <glyph glyph-name="uniACEC" unicode="&#xacec;" 
d="M40 292v138h161v85h178v-85h128q29 34 29 110v39h-467v138h655v-74q1 -20 0.5 -50t-2 -58.5t-8 -57t-17.5 -47.5h69v-138h-726zM79 115h142v29h-142v115h320v-248h-142v-29h133q64 54 87.5 120t18.5 157h178q-4 -105 25 -174.5t107 -124.5l-99 -107q-80 50 -123 123
q-8 -17 -23.5 -35.5t-32 -34t-31 -27.5t-24.5 -19l-10 -8l-54 58v-47h-160q-70 0 -119.5 49.5t-49.5 119.5z" />
    <glyph glyph-name="uniACEF" unicode="&#xacef;" 
d="M40 301v139h161v75h188v-75h118q29 19 29 118v20h-466v138h654v-67q0 -51 -0.5 -73.5t-7 -67t-20.5 -68.5h70v-139h-726zM585 -166q-53 0 -94.5 27.5t-60.5 68.5t-15 90.5t34 89.5h-34v120h81v47h178v-47h81v-120h-33q30 -40 34 -89.5t-15 -90.5t-60.5 -68.5t-95.5 -27.5
zM80 115h132v29h-132v114h309v-248h-132v-29h142v-119h-150q-70 0 -119.5 50t-49.5 120v83zM585 84q-21 0 -30 -30.5t-0.5 -61t29.5 -30.5q22 0 31 30.5t0 61t-30 30.5z" />
    <glyph glyph-name="uniACF0" unicode="&#xacf0;" 
d="M40 264v138h164v114h187v-114h116q31 38 31 124v43h-466v148h654v-85q0 -56 -0.5 -81t-7 -73.5t-20.5 -75.5h68v-138h-726zM82 230h654v-367h-485q-70 0 -119.5 49.5t-49.5 119.5v198zM549 92h-279v-92h279v92z" />
    <glyph glyph-name="uniACF1" unicode="&#xacf1;" 
d="M40 264v138h164v114h187v-114h118q29 39 29 131v36h-466v148h654v-74q1 -25 0 -58.5t-2.5 -65t-7.5 -63.5t-16 -54h66v-138h-726zM82 230h188v-48h279v48h187v-367h-485q-70 0 -119.5 49.5t-49.5 119.5v198zM549 44h-279v-43h279v43z" />
    <glyph glyph-name="uniACF3" unicode="&#xacf3;" 
d="M40 235v138h162v115h188v-115h118q29 31 29 127v69h-466v148h654v-86q0 -204 -28 -258h70v-138h-727zM707 -157q-80 17 -161 58.5t-140 96.5q-4 4 -8 0q-115 -107 -299 -154l-47 148q41 11 99.5 43t108 79.5t44.5 86.5h197q-2 -33 28 -69t74 -64t84 -48t69 -29z" />
    <glyph glyph-name="uniACF5" unicode="&#xacf5;" 
d="M40 254v138h161v113h188v-113h119q28 23 28 120v57h-466v147h654q0 -184 -3 -220q-3 -47 -13 -76l-10 -28h68v-138h-726zM70 32q-1 63 49 109.5t125 67t163 20.5t163 -21t125 -67t50 -109q-1 -63 -51 -109.5t-125 -67.5t-162 -21t-162 20.5t-125 67t-50 110.5zM268 32
q0 -33 70 -46t139.5 0.5t69.5 45.5q0 31 -69.5 44.5t-139.5 0.5t-70 -45z" />
    <glyph glyph-name="uniACF6" unicode="&#xacf6;" 
d="M40 273v138h163v96h187v-96h120q27 32 27 110v48h-466v148h654q0 -158 -4 -203q-4 -47 -13 -75l-10 -28h68v-138h-726zM707 -156q-80 16 -163.5 59t-141.5 98q-65 -61 -132.5 -96.5t-170.5 -60.5l-48 148q50 13 104 42t87 62v5h-161v138h644v-138h-163l1 -6
q71 -70 194 -104z" />
    <glyph glyph-name="uniACFC" unicode="&#xacfc;" horiz-adv-x="878" 
d="M766 322v-459h-177v122q-19 -13 -31.5 -19t-46 -11.5t-85.5 -5.5h-396v148h92v315h157v-315h46q12 23 19 60.5t8.5 73t2.5 71.5t0 58v209h-304v149h482v-342q0 -191 -28 -275q47 6 84 38v598h177v-268h92v-147h-92z" />
    <glyph glyph-name="uniACFD" unicode="&#xacfd;" horiz-adv-x="868" 
d="M766 436v-219h-177v52q-34 -20 -62 -26.5t-98 -6.5h-399v138h82v134h167v-134h47q12 12 18.5 28.5t8 33t2.5 35.5t0 34v65h-304v148h482v-154q0 -36 0.5 -67.5t-5.5 -65t-20 -57.5q48 -3 81 34v329h177v-153h82v-148h-82zM589 -137v182h-518v147h695v-329h-177z" />
    <glyph glyph-name="uniAD00" unicode="&#xad00;" horiz-adv-x="868" 
d="M766 417v-305h-177v123q-38 -15 -77.5 -22t-61.5 -6t-42 0h-378v138h82v163h167v-163h54q22 21 22 144v81h-304v148h482v-180q1 -24 0.5 -53t-2 -55t-7 -49.5t-14.5 -36.5q48 5 79 29v364h177v-172h82v-148h-82zM91 164h178v-153h509v-148h-518q-70 0 -120 50t-49 120
v131z" />
    <glyph glyph-name="uniAD04" unicode="&#xad04;" horiz-adv-x="868" 
d="M766 455v-176h-177v48q-60 -34 -159 -34h-400v138h82v86h167v-86h47q29 29 29 104v44h-304v139h482v-154q0 -93 -24 -133q57 11 80 34v272h177v-134h83v-148h-83zM91 115h488v30h-488v110h675v-245h-487v-29h498v-118h-517q-70 0 -120 50t-49 120v82z" />
    <glyph glyph-name="uniAD11" unicode="&#xad11;" horiz-adv-x="868" 
d="M766 455v-258h-129q140 -61 140 -166q0 -64 -51 -110.5t-127 -66.5t-165 -19t-165 22.5t-127 67.5t-51 107q0 56 37.5 97t95.5 62t126.5 30t131 6t107.5 -15v76q-64 -34 -159 -34h-400v138h82v115h167v-115h48q28 30 28 104v73h-304v148h482v-172v-24.5t-0.5 -27.5
t-2.5 -28.5t-5 -27.5t-8.5 -25.5t-12.5 -20.5q17 2 44 12.5t41 22.5v310h177v-134h83v-147h-83zM289 32q0 -31 72.5 -44.5t145 -0.5t72.5 46q0 31 -72.5 44t-145 0t-72.5 -45z" />
    <glyph glyph-name="uniAD18" unicode="&#xad18;" horiz-adv-x="866" 
d="M649 -137v459h-35v-459h-138v112q-22 -12 -46.5 -18t-41.5 -7t-50 -1h-308v148h61v315h147v-315h23q12 19 17.5 66.5t5.5 78.5v328h-234v148h391v-477q-1 -92 -17 -142q15 -1 31 5t21 16v617h138v-268h35v268h137v-874h-137z" />
    <glyph glyph-name="uniAD19" unicode="&#xad19;" horiz-adv-x="856" 
 />
    <glyph glyph-name="uniAD1C" unicode="&#xad1c;" horiz-adv-x="856" 
d="M639 112v286h-36v-286h-137v116q-57 -21 -152 -21h-284v138h61v163h147v-163h21q25 44 25 134v91h-234v148h381v-217q0 -111 -22 -156q27 0 57 19v373h137v-191h36v191h137v-625h-137zM91 164h177v-153h518v-148h-525q-70 0 -120 50t-50 120v131z" />
    <glyph glyph-name="uniAD2D" unicode="&#xad2d;" horiz-adv-x="856" 
d="M71 32q0 42 20 75.5t55 54t75 35t88 21t84 9t73 2.5v46q-56 -21 -152 -21h-284v138h61v123h147v-123h20q26 50 26 154v33h-234v138h381v-168q0 -119 -25 -157q39 0 60 19v325h137v-134h36v134h137v-549h-124q124 -58 124 -155q0 -64 -52 -111t-130.5 -67.5t-170 -20
t-170 22t-130.5 68t-52 108.5zM269 32q0 -32 77.5 -45t155 0t77.5 45q0 31 -77.5 44t-155 0.5t-77.5 -44.5zM639 455h-36v-231h-84q66 -9 120 -31v262z" />
    <glyph glyph-name="uniAD34" unicode="&#xad34;" horiz-adv-x="846" 
d="M588 -137v122q-57 -36 -125 -36h-433v148h91v315h158v-315h46q12 35 19.5 75t9 71.5t2 63.5t-0.5 53v209h-305v149h483v-342q0 -72 -8 -156.5t-20 -118.5q48 6 83 38v598h178v-874h-178z" />
    <glyph glyph-name="uniAD38" unicode="&#xad38;" horiz-adv-x="846" 
d="M588 112v123q-21 -14 -55 -20.5t-54 -7t-72 -0.5h-377v138h81v163h168v-163h54q22 22 22 144v81h-305v148h482v-180q0 -136 -23 -194q4 -5 33 4t46 25v364h178v-625h-178zM91 164h178v-153h508v-148h-517q-70 0 -119.5 50t-49.5 120v131z" />
    <glyph glyph-name="uniAD49" unicode="&#xad49;" horiz-adv-x="846" 
d="M81 32q0 69 58 116t141 63t166.5 15.5t141.5 -17.5v79q-47 -34 -159 -34h-399v138h81v115h168v-115h48q14 17 21 49t7 55v73h-305v148h483v-172q0 -110 -29 -154q55 4 84 35v310h178v-539h-139q139 -61 139 -166q0 -64 -50.5 -110.5t-127 -66.5t-165 -19t-165 22.5
t-127 67.5t-50.5 107zM279 32q0 -31 72.5 -44.5t144.5 -0.5t72 46q0 31 -72 44t-144.5 0t-72.5 -45z" />
    <glyph glyph-name="uniAD50" unicode="&#xad50;" 
d="M40 -118v148h71v344h158v-344h45v344h158v-344h28q37 79 37 247v293h-456v148h634v-335q-1 -64 0 -119t-6.5 -118t-24.5 -116h82v-148h-726z" />
    <glyph glyph-name="uniAD6C" unicode="&#xad6c;" 
d="M508 130v-267h-188v267h-280v148h480q27 49 27 170v121h-466v148h654v-209q0 -55 -0.5 -81t-6.5 -70.5t-19 -78.5h77v-148h-278z" />
    <glyph glyph-name="uniAD6D" unicode="&#xad6d;" 
d="M498 269v-67h237v-339h-188v191h-466v148h239v67h-280v138h479q28 31 28 124v38h-466v148h654v-109q0 -146 -27 -201h78v-138h-288z" />
    <glyph glyph-name="uniAD70" unicode="&#xad70;" 
d="M542 235v-124h-178v124h-324v148h468q28 22 28 124v62h-466v148h654v-85q1 -24 0.5 -59.5t-2 -68.5t-8 -66.5t-17.5 -54.5h69v-148h-224zM80 173h188v-163h478v-147h-496q-70 0 -120 49.5t-50 119.5v141z" />
    <glyph glyph-name="uniAD73" unicode="&#xad73;" 
d="M82 225h233v53h-275v147h476q22 35 22 112v32h-466v148h654v-80q0 -144 -22 -212h64v-147h-265v-53h233v-147h-466v-67h477v-148h-496q-70 0 -119.5 49.5t-49.5 119.5v193z" />
    <glyph glyph-name="uniAD74" unicode="&#xad74;" 
d="M81 130h467v38h-467v110h223v48h-264v138h475q22 33 22 93v21h-466v139h654v-71q0 -145 -23 -182h64v-138h-274v-48h243v-259h-466v-37h477v-119h-496q-70 0 -119.5 49.5t-49.5 119.5v98z" />
    <glyph glyph-name="uniAD75" unicode="&#xad75;" 
d="M497 323v-43h-188v43h-269v137h474q11 17 16.5 40.5t6 34.5t1.5 43h-467v139h654v-65.5t-1.5 -63.5t-7 -63.5t-14.5 -64.5h64v-137h-269zM558 -137v243h-132v148h309v-391h-177zM81 111h142v29h-142v114h319v-243h-142v-30h153v-118h-161q-70 0 -119.5 49.5t-49.5 119.5
v79z" />
    <glyph glyph-name="uniAD76" unicode="&#xad76;" 
d="M497 323v-43h-188v43h-269v137h474q27 43 24 118h-467v139h654v-86t-5.5 -84.5t-17.5 -86.5h64v-137h-269zM421 -137v391h314v-391h-314zM81 111h128v29h-128v114h305v-243h-128v-30h128v-118h-136q-70 0 -119.5 49.5t-49.5 119.5v79zM598 116h-41v-115h41v115z" />
    <glyph glyph-name="uniAD7C" unicode="&#xad7c;" 
d="M80 230h233v57h-273v139h473q13 19 18.5 45t5 49t-0.5 49h-466v148h654q0 -53 0.5 -100.5t-5 -100.5t-17.5 -90h64v-139h-265v-57h233v-367h-485q-70 0 -119.5 49.5t-49.5 119.5v198zM547 82h-279v-72h279v72z" />
    <glyph glyph-name="uniAD7D" unicode="&#xad7d;" 
d="M503 287v-61h-188v61h-275v139h475q14 20 19.5 48t4.5 53t-1 52h-466v138h654q3 -64 0 -153t-22 -138h62v-139h-263zM82 230h188v-48h279v48h187v-367h-485q-70 0 -119.5 49.5t-49.5 119.5v198zM549 44h-279v-52h279v52z" />
    <glyph glyph-name="uniAD7F" unicode="&#xad7f;" 
d="M498 279v-53h-188v53h-270v144h474q13 19 18.5 45.5t5 50.5t-0.5 50h-466v148h654q0 -53 0.5 -101t-5 -101t-17.5 -92h63v-144h-268zM707 -157q-179 38 -301 155q-5 5 -8 0q-100 -103 -299 -154l-47 148q34 8 72 23.5t79.5 40.5t70.5 63t34 82h189q1 -51 53 -99t107 -74
t99 -37z" />
    <glyph glyph-name="uniAD81" unicode="&#xad81;" 
d="M498 263v-49q109 -17 176.5 -63.5t67.5 -118.5q0 -63 -50 -109t-125 -67t-163 -21t-163 20.5t-125 67t-50 109.5q0 72 68 118.5t176 63.5v49h-270v148h474q14 20 19.5 49t4.5 55t-1 54h-466v147h654q0 -51 1 -101.5t-4.5 -108.5t-18.5 -95h63v-148h-268zM264 32
q0 -33 70 -46t140 0t70 46q0 32 -70 45t-140 0t-70 -45z" />
    <glyph glyph-name="uniAD82" unicode="&#xad82;" 
d="M498 292v-52h-188v52h-270v138h470q13 15 19.5 44.5t7 44.5t0.5 50h-466v148h654q-1 -40 0.5 -92t-5 -111t-22.5 -84h68v-138h-268zM710 -156q-77 15 -160.5 57t-146.5 96q-1 0 -1 -1h-2q-107 -100 -299 -152l-46 147q127 34 182 96v5h-156v123h654v-123h-169q0 -6 1 -7
q101 -74 191 -94z" />
    <glyph glyph-name="uniAD88" unicode="&#xad88;" horiz-adv-x="856" 
d="M588 -137v153h-122v148h122v60q-68 -17 -166 -17h-42v-344h-177v344h-173v137h289q10 21 16 49t7.5 56t2.5 60t0 61h-295v148h472v-152q0 -159 -27 -222q44 0 93 19v374h188v-874h-188z" />
    <glyph glyph-name="uniAD8C" unicode="&#xad8c;" horiz-adv-x="856" 
d="M578 73v67h-72v100h72v49q-48 -22 -117 -15v-143h-167v143h-264v138h282q11 17 16.5 41.5t6 39.5t0.5 50v36h-285v139h462v-126q0 -138 -20 -180q40 -1 86 14v311h178v-664h-178zM91 164h167v-153h508v-148h-506q-70 0 -120 50t-49 120v131z" />
    <glyph glyph-name="uniAD90" unicode="&#xad90;" horiz-adv-x="856" 
d="M578 254v10h-122v81h122v42q-22 -11 -62.5 -15.5t-79 -4t-76.5 0.5v-104h-168v105h-162v128h280q27 34 25 92h-285v129h462v-109q0 -86 -19 -113q12 -2 39.5 3t45.5 14v224h178v-483h-178zM91 97h477v28h-477v106h665v-229h-476v-29h486v-110h-506q-70 0 -120 50t-49 120
v64z" />
    <glyph glyph-name="uniADA4" unicode="&#xada4;" horiz-adv-x="846" 
d="M624 -137v874h142v-874h-142zM446 -137v191h-91v129h91v70q-7 -2 -19.5 -6t-51 -9t-76.5 -3v-372h-167v373h-102v138h189q9 16 16.5 54t7.5 75v67h-193v148h351v-160v-49.5t-1 -52t-5.5 -47t-11.5 -35.5q31 -2 63 15v348h142v-874h-142z" />
    <glyph glyph-name="uniADC0" unicode="&#xadc0;" horiz-adv-x="836" 
d="M568 -137v323q-52 -17 -146 -17h-42v-306h-177v306h-173v147h269q25 48 25 167v87h-274v148h452v-180q0 -179 -27 -222q52 0 93 19v402h188v-874h-188z" />
    <glyph glyph-name="uniADC4" unicode="&#xadc4;" horiz-adv-x="856" 
d="M578 92v178q-36 -17 -117 -15v-143h-167v143h-264v138h282q21 48 23.5 97t-0.5 89h-285v139h462v-126q0 -143 -20 -199q53 3 86 14v330h178v-645h-178zM81 164h167v-153h518v-148h-516q-70 0 -119.5 50t-49.5 120v131z" />
    <glyph glyph-name="uniADD0" unicode="&#xadd0;" horiz-adv-x="856" 
d="M578 245v106q-62 -20 -218 -20v-76h-178v76h-152v129h283q19 16 22 61t0 68h-285v129h462q3 -45 0 -132t-21 -128q10 -3 38.5 3t48.5 15v261h178v-492h-178zM91 212h665v-349h-496q-70 0 -120 50t-49 120v179zM568 73h-289v-71h289v71z" />
    <glyph glyph-name="uniADD3" unicode="&#xadd3;" horiz-adv-x="856" 
d="M598 168v145q-40 -20 -259 -20v-106h-177v106h-132v138h303q11 9 16 26.5t5.5 26t0.5 31.5v73h-305v129h482v-119q0 -108 -21 -169q10 -2 40.5 3.5t46.5 14.5v289h178v-568h-178zM735 -156q-56 15 -143 57.5t-133 97.5h-5q-114 -109 -277 -155l-73 136q46 16 100.5 47.5
t105 83t55.5 100.5h187q2 -52 48 -102.5t100 -81t107 -47.5z" />
    <glyph glyph-name="uniADDC" unicode="&#xaddc;" 
d="M654 159v-296h-188v296h-106v-296h-188v296h-132v148h480q14 31 21 67.5t6 59.5t0 43v92h-466v148h654v-181q0 -55 -0.5 -81t-6.5 -70.5t-19 -77.5h77v-148h-132z" />
    <glyph glyph-name="uniADE0" unicode="&#xade0;" 
d="M694 235v-124h-168v124h-45v-124h-168v124h-273v148h468q15 13 21.5 52t6.5 72v62h-466v148h654v-85q1 -24 0.5 -59.5t-2 -68.5t-8 -66.5t-17.5 -54.5h69v-148h-72zM80 173h188v-163h478v-147h-497q-70 0 -119.5 49.5t-49.5 119.5v141z" />
    <glyph glyph-name="uniADE4" unicode="&#xade4;" 
d="M81 130h467v38h-467v110h91v48h-132v138h475q22 33 22 113h-205t-28 0.5t-28 0.5h-205v139h654q0 -45 0.5 -85t-4.5 -86t-18 -82h63v-138h-122v-48h91v-258h-466v-38h477v-119h-496q-70 0 -119.5 49.5t-49.5 119.5v98zM456 326h-96v-48h96v48z" />
    <glyph glyph-name="uniADF8" unicode="&#xadf8;" 
d="M40 -118v148h430q37 82 37 247v293h-426v148h614v-335q-1 -64 0 -119t-6.5 -118t-24.5 -116h82v-148h-706z" />
    <glyph glyph-name="uniADF9" unicode="&#xadf9;" 
d="M40 264v138h479q16 18 23 50t5.5 61t-0.5 56h-466v148h654q-1 -46 0.5 -102.5t-5 -120.5t-22.5 -92h78v-138h-746zM547 -137v191h-466v148h654v-339h-188z" />
    <glyph glyph-name="uniADFC" unicode="&#xadfc;" 
d="M40 226v138h468q16 22 23 67t5.5 80.5t-0.5 57.5h-466v148h654q0 -12 1 -103t-5 -153.5t-23 -96.5h69v-138h-726zM80 163h188v-153h478v-147h-497q-70 0 -119.5 49.5t-49.5 119.5v131z" />
    <glyph glyph-name="uniADFF" unicode="&#xadff;" 
d="M40 272v138h470q14 22 20.5 50.5t6 53.5t-0.5 55h-466v148h654q1 -28 0 -73.5t-2 -89.5t-7.5 -84.5t-17.5 -59.5h69v-138h-726zM80 216h654v-138h-466v-77h477v-138h-496q-70 0 -119.5 49.5t-49.5 119.5v184z" />
    <glyph glyph-name="uniAE00" unicode="&#xae00;" 
d="M40 320v138h467q29 35 29 121h-466v138h654q0 -211 -27 -259h69v-138h-726zM80 125h467v39h-467v109h654v-253h-466v-38h478v-119h-497q-70 0 -119.5 49.5t-49.5 119.5v93z" />
    <glyph glyph-name="uniAE01" unicode="&#xae01;" 
d="M40 297v138h467q29 28 29 144h-466v138h654q-1 -34 0 -83.5t-6 -110t-23 -88.5h71v-138h-726zM547 -137v253h-132v138h309v-391h-177zM80 116h142v29h-142v109h309v-243h-143v-29h153v-119h-150q-70 0 -119.5 49.5t-49.5 119.5v84z" />
    <glyph glyph-name="uniAE08" unicode="&#xae08;" 
d="M40 272v139h476q12 8 19.5 29.5t9 44.5t2.5 46.5t0 37.5h-466v148h654q-1 -46 0.5 -99t-5.5 -114t-23 -93h79v-139h-746zM81 221h654v-358h-485q-70 0 -119.5 49.5t-49.5 119.5v189zM547 73h-279v-63h279v63z" />
    <glyph glyph-name="uniAE09" unicode="&#xae09;" 
d="M40 269v138h478q12 9 18.5 31t8 45.5t2.5 47.5t0 38h-466v148h654q-1 -47 0.5 -100.5t-5 -115t-22.5 -94.5h78v-138h-746zM81 221h188v-39h278v39h188v-358h-485q-70 0 -119.5 49.5t-49.5 119.5v189zM547 44h-279v-43h279v43z" />
    <glyph glyph-name="uniAE0B" unicode="&#xae0b;" 
d="M40 244v138h467q17 18 24.5 55t5.5 70t-1 62h-466v148h654q-1 -44 1 -106.5t-5 -133t-24 -95.5h70v-138h-726zM706 -157q-106 18 -196 75t-109 83q-56 -55 -143 -96.5t-160 -60.5l-47 148q32 8 68.5 24t78 41.5t71 63.5t34.5 80h197q1 -37 21.5 -69.5t49 -54.5t67 -41
t64.5 -28t53 -17z" />
    <glyph glyph-name="uniAE0D" unicode="&#xae0d;" 
d="M40 254v147h474q3 5 7.5 15.5t11 53.5t4.5 99h-466v147h654q0 -57 1 -109t-4.5 -109.5t-18.5 -96.5h63v-147h-726zM66 32q0 63 49.5 109.5t124.5 67t162.5 20.5t162.5 -20.5t125.5 -67t51.5 -109.5q0 -63 -49.5 -109.5t-124.5 -67.5t-162.5 -21t-162.5 20.5t-125.5 67
t-51.5 110.5zM264 32q0 -33 70 -46t140 0t70 46q0 32 -70 44.5t-140 -0.5t-70 -44z" />
    <glyph glyph-name="uniAE14" unicode="&#xae14;" horiz-adv-x="846" 
d="M588 -137v122q-56 -36 -163 -36h-395v148h295q16 31 23 113.5t7 149.5v209h-305v149h483v-342q0 -220 -28 -275q48 7 83 38v598h178v-874h-178z" />
    <glyph glyph-name="uniAE30" unicode="&#xae30;" horiz-adv-x="819" 
d="M550 -137v874h189v-874h-189zM62 -61l-42 147q110 34 183 124t73 203v157h-234v148h422v-283q0 -188 -109 -318t-293 -178z" />
    <glyph glyph-name="uniAE34" unicode="&#xae34;" horiz-adv-x="814" 
d="M548 112v625h189v-625h-189zM40 207l-20 148q64 -3 126 19.5t104 73.5t34 119v-1q0 4 -244 4v148h442v-178q0 -84 -40.5 -151.5t-105 -107t-141.5 -59t-155 -15.5zM91 173h188v-162h467v-148h-486q-70 0 -120 50t-49 120v140z" />
    <glyph glyph-name="uniAE37" unicode="&#xae37;" horiz-adv-x="814" 
d="M546 274v463h188v-463h-188zM59 264l-39 141q35 1 77.5 11t87 28.5t72.5 50.5t25 72h-244v151h442v-161q0 -73 -41.5 -132.5t-105.5 -93.5t-135.5 -51.5t-138.5 -15.5zM89 240h645v-148h-467v-81h477v-148h-486q-70 0 -120 50t-49 120v207z" />
    <glyph glyph-name="uniAE38" unicode="&#xae38;" horiz-adv-x="814" 
d="M548 293v444h188v-444h-188zM53 279l-33 142q31 -1 74.5 7.5t88 25.5t74 47t27.5 66h-244v151h442v-159q0 -59 -28.5 -108.5t-74.5 -82t-103 -54.5t-114.5 -30t-108.5 -5zM91 115h457v29h-457v115h645v-249h-457v-28h467v-119h-486q-70 0 -120 50t-49 120v82z" />
    <glyph glyph-name="uniAE40" unicode="&#xae40;" horiz-adv-x="814" 
d="M548 283v454h188v-454h-188zM53 279l-33 142q31 -1 75 7.5t88 25.5t73.5 47t27.5 66h-244v151h442v-159q0 -59 -28.5 -108.5t-74.5 -82t-103 -54.5t-114.5 -30t-108.5 -5zM81 250h655v-387h-486q-70 0 -120 50t-49 120v217zM548 102h-279v-91h279v91z" />
    <glyph glyph-name="uniAE41" unicode="&#xae41;" horiz-adv-x="814" 
d="M548 293v444h188v-444h-188zM53 279l-33 142q31 -1 75 7.5t88 25.5t73.5 47t27.5 66h-244v151h442v-159q0 -59 -28.5 -108.5t-74.5 -82t-103 -54.5t-114.5 -30t-108.5 -5zM81 259h188v-47h279v47h188v-396h-486q-70 0 -120 50t-49 120v226zM548 64h-279v-53h279v53z" />
    <glyph glyph-name="uniAE43" unicode="&#xae43;" horiz-adv-x="814" 
d="M40 216l-20 148q61 -2 122.5 19t105 70t36.5 113q0 3 -244 3v148h442v-178q0 -81 -41.5 -146.5t-107 -104t-142 -57.5t-151.5 -15zM693 -157q-35 11 -81.5 31t-108 60.5t-87.5 82.5h-5q-41 -56 -129.5 -105t-147.5 -69l-72 139q41 13 84 37t83.5 56.5t64.5 76t21 88.5
h197q-5 -57 39.5 -113.5t102.5 -92t113 -52.5zM548 187v549h188v-549h-188z" />
    <glyph glyph-name="uniAE45" unicode="&#xae45;" horiz-adv-x="814" 
d="M59 235l-39 141q263 22 263 192h-244v149h442v-159q0 -64 -25.5 -119t-68 -92.5t-97 -64t-113.5 -38t-118 -9.5zM70 42q0 73 54 122t133 65.5t159 16t141 -16.5v507h188v-530h-123q123 -62 123 -164q0 -66 -50 -114.5t-125 -70t-162.5 -21.5t-162.5 21.5t-125 70
t-50 114.5zM268 42q0 -38 70 -53.5t140 0t70 53.5t-70 53t-140 -0.5t-70 -52.5z" />
    <glyph glyph-name="uniAE4A" unicode="&#xae4a;" horiz-adv-x="814" 
d="M546 283v454h188v-454h-188zM59 272l-39 141q32 1 75 10.5t87 27t73 48.5t27 68h-244v151h442v-161q0 -71 -42 -129t-107.5 -91t-136.5 -50t-135 -15zM79 -137v139h101v100h-91v138h645v-138h-92v-100h102v-139h-665zM465 102h-107v-100h107v100z" />
    <glyph glyph-name="uniAE4C" unicode="&#xae4c;" horiz-adv-x="875" 
d="M764 360v-497h-178v874h178v-229h91v-148h-91zM250 59q60 55 78.5 131.5t18.5 183.5v196h-56v-175q0 -332 -173 -417l-98 120q33 25 54 59.5t30 77.5t12 77.5t3 82.5v175h-81v148h482v-364q0 -326 -174 -414z" />
    <glyph glyph-name="uniAE4D" unicode="&#xae4d;" horiz-adv-x="868" 
d="M756 455v-210h-189v492h189v-134h92v-148h-92zM314 227l-60 128q31 14 50.5 37t27.5 56t10 58t2 64h-56q0 -118 -50 -203t-159 -112l-59 130q31 14 50.5 32t28 44.5t10.5 48.5t2 60h-71v148h482q1 -53 0 -105t-2 -99.5t-13 -91.5t-33 -80.5t-61.5 -66t-98.5 -48.5z
M567 -137v201h-487v148h676v-349h-189z" />
    <glyph glyph-name="uniAE4E" unicode="&#xae4e;" horiz-adv-x="868" 
d="M756 455v-210h-189v492h189v-134h92v-148h-92zM314 227l-60 128q31 14 50.5 37t27.5 56t10 58t2 64h-56q0 -118 -50 -203t-159 -112l-59 130q31 14 50.5 32t28 44.5t10.5 48.5t2 60h-71v148h482v-76.5v-77.5t-3.5 -71t-11 -70t-22.5 -60t-37 -56t-56 -44t-78 -36z
M567 -137v201h-121v148h310v-349h-189zM234 -137v201h-154v148h340v-349h-186z" />
    <glyph glyph-name="uniAE50" unicode="&#xae50;" horiz-adv-x="868" 
d="M756 398v-286h-189v625h189v-191h92v-148h-92zM314 187l-60 128q23 9 40 26t26 38t15 46t7 50l2 50t0 45h-56q0 -66 -8 -117.5t-29.5 -102t-64.5 -85t-107 -50.5l-59 129q18 7 31.5 17t23 22t16.5 26.5t10.5 29.5t6 32t3 33.5t0.5 33v32.5h-71v148h482q0 -27 0.5 -78.5
t0.5 -82.5t-3.5 -78t-10.5 -78t-22 -68.5t-37.5 -62t-56.5 -47.5t-79 -36zM101 173h187v-162h477v-148h-495q-70 0 -119.5 50t-49.5 120v140z" />
    <glyph glyph-name="uniAE54" unicode="&#xae54;" horiz-adv-x="868" 
d="M755 455v-172h-188v454h188v-134h92v-148h-92zM314 265l-60 128q43 12 66.5 68.5t23.5 108.5h-56q2 -92 -58.5 -181t-150.5 -96l-59 129q42 13 66.5 57t24.5 91h-71v148h482q-2 -60 0.5 -115t-7 -107.5t-28.5 -95.5t-62.5 -78.5t-110.5 -56.5zM90 116h477v29h-477v105
h665v-239h-477v-29h487v-119h-506q-70 0 -120 50t-49 120v83z" />
    <glyph glyph-name="uniAE5C" unicode="&#xae5c;" horiz-adv-x="868" 
d="M755 465v-201h-188v473h188v-124h92v-148h-92zM314 255l-60 128q44 13 67 72t23 115h-56q3 -90 -57 -183.5t-152 -103.5l-59 130q44 13 67.5 59.5t23.5 97.5h-71v148h482q-2 -60 0.5 -116.5t-7 -110.5t-28 -98.5t-62.5 -80.5t-111 -57zM90 231h665v-368h-496
q-70 0 -120 50t-49 120v198zM567 83h-289v-72h289v72z" />
    <glyph glyph-name="uniAE5D" unicode="&#xae5d;" horiz-adv-x="868" 
d="M755 465v-191h-188v463h188v-124h92v-148h-92zM314 265l-60 128q43 12 66.5 68.5t23.5 108.5h-56q0 -91 -57 -176.5t-152 -100.5l-59 129q42 13 66.5 57t24.5 91h-71v148h482q-1 -60 1 -114.5t-7 -106t-28 -94.5t-62.5 -79t-111.5 -59zM90 240h188v-48h289v48h188v-377
h-496q-70 0 -120 50t-49 120v207zM567 54h-289v-43h289v43z" />
    <glyph glyph-name="uniAE5F" unicode="&#xae5f;" horiz-adv-x="868" 
d="M756 417v-230h-188v549h188v-172h92v-147h-92zM313 217l-58 129q39 21 64.5 73.5t25.5 98.5v51h-56v-63q0 -89 -60.5 -165.5t-148.5 -95.5l-60 130q92 41 92 142v52h-71v148h482v-207q0 -115 -54.5 -184t-155.5 -109zM724 -157q-64 20 -153 68t-124 106h-5
q-42 -56 -130 -105t-147 -69l-72 139q88 28 166.5 95t85.5 144h198q10 -84 87 -147.5t167 -91.5z" />
    <glyph glyph-name="uniAE60" unicode="&#xae60;" horiz-adv-x="868" 
d="M756 455v-201h-189v482h189v-133h90v-148h-90zM314 236l-60 128q30 13 49 35t27.5 52.5t11 56t2.5 61.5h-56q0 -112 -52 -195.5t-157 -109.5l-59 130q57 25 74 65t17 110h-71v148h482q-2 -63 0.5 -121.5t-7 -114.5t-28 -101.5t-62.5 -83.5t-111 -60zM749 -156
q-108 49 -149 129q-54 -87 -159 -123q-111 44 -154 123q-22 -33 -68.5 -74t-85.5 -55l-91 115q72 33 112.5 106t40.5 156h179q0 -52 15.5 -106.5t48.5 -74.5h5q29 24 47 72.5t19 108.5h178q-2 -82 39.5 -153.5t113.5 -108.5z" />
    <glyph glyph-name="uniAE61" unicode="&#xae61;" horiz-adv-x="868" 
d="M755 455v-249h-166q176 -59 176 -174q0 -62 -49 -108t-123 -66.5t-160 -20.5t-160 20.5t-123 66.5t-49 108q0 53 35 93.5t88.5 61.5t117.5 31t122.5 7.5t102.5 -13.5v524h188v-134h93v-147h-93zM314 236l-60 128q48 16 69.5 77.5t20.5 127.5h-56q0 -65 -20.5 -127.5
t-70 -114t-118.5 -62.5l-59 129q84 28 91 175h-71v148h482q-3 -64 0 -123t-5.5 -115t-27 -101.5t-62.5 -83t-113 -58.5zM299 32q0 -30 67.5 -43.5t134.5 -1t67 44.5q0 33 -67 45.5t-134.5 -1.5t-67.5 -44z" />
    <glyph glyph-name="uniAE65" unicode="&#xae65;" horiz-adv-x="868" 
d="M755 455v-172h-188v454h188v-134h92v-148h-92zM314 265l-60 128q43 12 66.5 68.5t23.5 108.5h-56q0 -90 -59 -177.5t-150 -99.5l-59 129q42 13 66.5 57t24.5 91h-71v148h482q-2 -60 0 -115.5t-7.5 -108t-28.5 -95.5t-62.5 -78.5t-109.5 -55.5zM111 250h644v-105h-456v-29
h446v-105h-446v-29h466v-119h-484q-70 0 -119.5 50t-49.5 120z" />
    <glyph glyph-name="uniAE68" unicode="&#xae68;" horiz-adv-x="865" 
d="M638 -137v516h-36v-516h-147v874h147v-210h36v210h147v-874h-147zM273 -60l-71 119q28 24 44.5 60.5t21 73.5t6 78.5t-0.5 75.5v223h-36v-197q1 -47 0.5 -88.5t-3 -76.5t-11.5 -66.5t-24.5 -59.5t-42 -54.5t-65.5 -51.5l-71 120q28 25 44.5 48.5t22 53t6.5 49t-1 62.5
t-2 67v194h-51v148h381v-386q0 -64 -1.5 -100.5t-9.5 -85.5t-23 -80.5t-43 -65t-70 -60.5z" />
    <glyph glyph-name="uniAE6C" unicode="&#xae6c;" horiz-adv-x="885" 
d="M667 112v305h-35v-305h-148v625h148v-172h35v172h148v-625h-148zM280 197l-75 112q88 47 88 261h-37q0 -123 -32.5 -206.5t-125.5 -139.5l-78 108q39 29 60 74t25 79.5t4 84.5h-61v148h401q0 -17 0.5 -58t0.5 -65.5t-1 -65.5t-6 -69t-12 -64.5t-20 -63t-30.5 -53.5
t-43 -47.5t-57.5 -34.5zM119 164h188v-153h517v-148h-536q-70 0 -120 50t-49 120v131z" />
    <glyph glyph-name="uniAE70" unicode="&#xae70;" horiz-adv-x="885" 
d="M657 283v191h-35v-191h-148v454h148v-115h35v115h147v-454h-147zM280 265l-78 110q82 61 80 195h-35q0 -86 -38.5 -159t-110.5 -120l-78 110q44 42 59 78t19 91h-60v148h401v-163q0 -90 -40.5 -171.5t-118.5 -118.5zM109 116h507v29h-507v105h695v-239h-507v-29h517v-119
h-536q-70 0 -120 50t-49 120v83z" />
    <glyph glyph-name="uniAE7B" unicode="&#xae7b;" horiz-adv-x="885" 
d="M657 187v259h-36v-201h-147v491h147v-142h36v142h147v-549h-147zM280 234l-78 110q80 40 80 225h-35q5 -209 -149 -309l-78 110q80 51 80 199h-62v148h401q-2 -53 0 -106t-5 -109t-21.5 -104.5t-48 -92t-84.5 -71.5zM752 -157q-193 60 -278 174h-5q-27 -33 -62.5 -62
t-61 -45t-64.5 -33t-49 -20.5t-39 -13.5l-73 139q56 18 109.5 49.5t96.5 83t47 106.5h198q8 -79 87 -145.5t166 -93.5z" />
    <glyph glyph-name="uniAE7C" unicode="&#xae7c;" horiz-adv-x="885" 
d="M658 254v192h-36v-192h-147v482h147v-142h36v142h147v-482h-147zM280 234l-78 110q50 38 65.5 95.5t15.5 129.5h-35q3 -211 -149 -309l-79 110q48 45 66 99t14 100h-61v148h401q-2 -53 0 -106t-5.5 -109.5t-21.5 -105t-48 -92t-85 -70.5zM764 -156q-38 17 -84.5 52
t-64.5 77q-23 -45 -68 -78.5t-91 -44.5q-40 15 -86.5 46.5t-67.5 76.5q-27 -49 -71 -82.5t-83 -46.5l-91 115q73 33 113.5 106t39.5 156h179q0 -46 17.5 -106t51.5 -75l10 10q9 10 12.5 14.5t12 20.5t13.5 32t10 43.5t8 60.5h178q-2 -82 39.5 -153.5t113.5 -108.5z" />
    <glyph glyph-name="uniAE7D" unicode="&#xae7d;" horiz-adv-x="885" 
d="M99 42q0 58 40.5 101.5t103 65t121 31t110.5 9.5v487h148v-142h35v142h147v-530h-140q140 -65 140 -165q0 -65 -52 -112.5t-130.5 -69t-170 -21.5t-170 21.5t-130.5 69.5t-52 113zM280 238l-78 110q43 31 64 97.5t16 123.5h-35q2 -96 -35 -176t-114 -129l-78 110
q40 29 62 86t18 109h-62v148h401q-2 -53 0.5 -106t-5 -108.5t-21.5 -103t-48 -90.5t-85 -71zM292 41q0 -30 50 -46.5t110 -16.5t110 17t50 47q0 38 -80 54.5t-160 0.5t-80 -56zM657 446h-35v-201h-110q72 -8 145 -36v237z" />
    <glyph glyph-name="uniAEBC" unicode="&#xaebc;" horiz-adv-x="843" 
d="M585 -137v497h-66q0 -332 -173 -420l-97 119q60 51 79 130.5t19 184.5v196h-56v-175q0 -59 -7 -114.5t-24.5 -116.5t-53.5 -110.5t-88 -75.5l-98 120q33 28 54 62t30 75.5t11.5 74.5t2.5 85v175h-81v148h482v-210h66v229h178v-874h-178z" />
    <glyph glyph-name="uniAEBD" unicode="&#xaebd;" horiz-adv-x="846" 
d="M577 245v210h-62q-17 -92 -65.5 -146t-136.5 -82l-60 128q32 15 51.5 37.5t27.5 55t10 56.5t2 66h-56q0 -120 -50 -204t-159 -111l-59 130q26 12 43 27t26.5 29.5t14 37.5t5.5 41t1 50h-71v148h482v-115h56v134h188v-492h-188zM577 -137v201h-497v148h686v-349h-189z" />
    <glyph glyph-name="uniAEBE" unicode="&#xaebe;" horiz-adv-x="846" 
d="M577 245v210h-62q-17 -92 -65.5 -146t-136.5 -82l-60 128q32 15 51.5 37.5t27.5 55t10 56.5t2 66h-56q0 -120 -50 -204t-159 -111l-59 130q26 12 43 27t26.5 29.5t14 37.5t5.5 41t1 50h-71v148h482v-115h56v134h188v-492h-188zM577 -137v201h-132v148h321v-349h-189z
M233 -137v201h-153v148h340v-349h-187z" />
    <glyph glyph-name="uniAEC0" unicode="&#xaec0;" horiz-adv-x="846" 
d="M578 112v286h-67q-41 -166 -198 -211l-60 128q24 9 41 26t26 38t15 46t7 49.5t2 49.5t0 46h-56q0 -66 -8.5 -117.5t-29.5 -102t-64.5 -85t-106.5 -50.5l-59 129q23 10 40 24.5t26.5 32t15 38.5t6.5 42.5t2 44t0 44.5h-71v148h482v-172h57v191h187v-625h-187zM100 173h188
v-162h487v-148h-506q-70 0 -120 50t-49 120v140z" />
    <glyph glyph-name="uniAEC4" unicode="&#xaec4;" horiz-adv-x="846" 
d="M577 283v172h-70q-24 -75 -71 -121t-123 -69l-60 128q44 14 67.5 69t23.5 108h-56q0 -57 -25.5 -119t-75 -108.5t-108.5 -49.5l-59 130q43 14 65.5 55.5t24.5 91.5h-71v148h482v-115h56v134h188v-454h-188zM90 116h487v29h-487v105h675v-239h-487v-29h497v-119h-516
q-70 0 -120 50t-49 120v83z" />
    <glyph glyph-name="uniAECC" unicode="&#xaecc;" horiz-adv-x="846" 
d="M577 264v201h-64q-41 -160 -200 -210l-60 128q45 14 68 72t23 115h-56q0 -59 -24 -123t-73.5 -112.5t-111.5 -51.5l-59 130q44 15 66 59.5t24 97.5h-71v148h482v-105h56v124h188v-473h-188zM90 226h675v-363h-506q-70 0 -120 50t-49 120v193zM577 83h-299v-77h299v77z
" />
    <glyph glyph-name="uniAECD" unicode="&#xaecd;" horiz-adv-x="846" 
d="M577 274v191h-67q-43 -152 -197 -200l-60 128q44 14 67.5 69t23.5 108h-56q2 -94 -55.5 -176.5t-153.5 -100.5l-59 130q43 14 65.5 55.5t24.5 91.5h-71v148h482v-105h56v124h188v-463h-188zM90 240h188v-48h299v48h188v-377h-506q-70 0 -119.5 50t-49.5 120v207zM577 59
h-299v-53h299v53z" />
    <glyph glyph-name="uniAECF" unicode="&#xaecf;" horiz-adv-x="846" 
d="M580 168v249h-72q-29 -90 -72.5 -130.5t-121.5 -69.5l-59 129q55 32 72.5 88t17.5 135h-55q0 -277 -210 -324l-60 130q23 10 39.5 21.5t26.5 28.5t15.5 28t7.5 36t2.5 36t0.5 44h-71v148h482v-153h57v172h187v-568h-187zM735 -157q-201 63 -280 178
q-54 -65 -133.5 -111.5t-145.5 -66.5l-73 139q56 17 109 49t96 83.5t47 106.5h199q8 -79 86.5 -145.5t166.5 -93.5z" />
    <glyph glyph-name="uniAED0" unicode="&#xaed0;" horiz-adv-x="846" 
d="M579 254v191h-68q-22 -85 -68 -133.5t-129 -75.5l-60 128q57 28 73.5 77t16.5 128h-56q0 -113 -52 -196t-157 -109l-59 130q58 27 74.5 65t16.5 110h-71v148h482v-124h57v143h186v-482h-186zM751 -156q-49 16 -91.5 54t-60.5 72q-29 -45 -71 -77.5t-85 -42.5
q-106 32 -156 120q-26 -47 -73.5 -80.5t-78.5 -45.5l-91 115q72 33 112.5 106t40.5 156h179q0 -136 67 -182q65 50 68 182h178q-2 -82 39.5 -153.5t113.5 -108.5z" />
    <glyph glyph-name="uniAED1" unicode="&#xaed1;" horiz-adv-x="846" 
d="M100 36q0 68 60.5 117t152.5 71l-60 130q26 12 43.5 31t27 37.5t14 46.5t5.5 47.5t1 52.5h-56q0 -119 -50 -203t-159 -112l-59 130q20 10 34 20.5t24 19t16 23.5t9.5 23t5 29t1.5 31v39h-71v148h482v-115h56v134h188v-539h-130q130 -64 130 -161q0 -64 -49.5 -110.5
t-123 -67.5t-160 -21t-160 21t-123 67.5t-49.5 110.5zM577 455h-64q-20 -97 -61.5 -142.5t-132.5 -86.5q68 14 129 13t129 -20v236zM298 36q0 -34 67.5 -48t135 0t67.5 48q0 35 -67.5 49.5t-135 0t-67.5 -49.5z" />
    <glyph glyph-name="uniAED8" unicode="&#xaed8;" horiz-adv-x="865" 
d="M638 -137v874h147v-874h-147zM455 -137v497h-35v-64.5t-1 -60t-4.5 -55.5t-9.5 -52t-17 -49.5t-26.5 -47.5t-37.5 -46t-51 -45l-71 119q28 24 44.5 60.5t21 73.5t6 78.5t-0.5 75.5v223h-36v-197v-103t-5.5 -85t-20 -73t-44 -67.5t-76.5 -68.5l-71 120q28 25 44.5 48.5
t22 53t6.5 49t-1 62.5t-2 67v194h-51v148h381v-210h35v229h147v-874h-147z" />
    <glyph glyph-name="uniAEDC" unicode="&#xaedc;" horiz-adv-x="885" 
d="M667 112v625h148v-625h-148zM484 112v315h-44q-10 -72 -49 -136t-111 -94l-75 112q94 69 87 261h-36q2 -267 -158 -346l-78 108q49 27 71.5 100t17.5 138h-61v148h401v-144h35v163h148v-625h-148zM119 164h188v-153h517v-148h-536q-70 0 -120 50t-49 120v131z" />
    <glyph glyph-name="uniAEF4" unicode="&#xaef4;" horiz-adv-x="843" 
d="M585 -137v363h-73q-20 -211 -166 -286l-97 119q60 51 79 130.5t19 184.5v196h-56v-175q0 -64 -5 -112t-20.5 -109t-53 -111t-94.5 -85l-98 120q33 28 54 62t30 75.5t11.5 74.5t2.5 85v175h-81v148h482v-115h66v134h178v-874h-178zM585 455h-66v-81h66v81z" />
    <glyph glyph-name="uniAF08" unicode="&#xaf08;" horiz-adv-x="846" 
d="M589 254v86h-93v57q-29 -67 -70 -102.5t-112 -58.5l-60 128q57 28 73.5 77t16.5 128h-56q0 -113 -52 -196t-157 -109l-59 130q58 27 74.5 65t16.5 110h-71v148h482v-48h67v67h187v-482h-187zM751 -156q-96 44 -152 126q-24 -39 -66.5 -73t-89.5 -47q-96 40 -156 120
q-21 -40 -58.5 -71.5t-61 -40t-32.5 -14.5l-91 115q72 33 112.5 106t40.5 156h179q0 -137 67 -182q25 19 46 70t22 112h178q-2 -82 39.5 -153.5t113.5 -108.5zM589 531h-67q0 -8 -2 -25.5t-2 -27.5h71v53z" />
    <glyph glyph-name="uniAF0D" unicode="&#xaf0d;" horiz-adv-x="846" 
d="M587 283v58h-81v110q-27 -75 -72.5 -119t-120.5 -67l-60 128q89 54 91 177h-56q0 -94 -58 -179t-151 -98l-59 130q42 14 65 56t25 91h-71v148h482v-48h66v67h188v-454h-188zM110 250h666v-105h-478v-29h467v-105h-467v-29h488v-119h-507q-70 0 -120 50t-49 120v217z
M587 532h-67q0 -26 -7 -53h74v53z" />
    <glyph glyph-name="uniAF2C" unicode="&#xaf2c;" horiz-adv-x="836" 
d="M40 -118v148h98q24 26 24 201v339h-102v148h269v-427q0 -44 1 -86t-4 -91t-16 -84h65v363h157v-363h22q10 10 15.5 38t7 58t2 60t-0.5 45v339h-163v148h330v-427q0 -44 1 -86t-4 -91t-16 -84h70v-148h-756z" />
    <glyph glyph-name="uniAF2D" unicode="&#xaf2d;" 
d="M40 235v138h114q15 20 22 59.5t6 73.5t0 63h-112v148h281q-1 -49 0.5 -109.5t-5 -131t-21.5 -103.5h60v115h158v-115h17q16 20 23 59.5t5.5 73.5t-0.5 63h-161v148h330q-1 -54 0.5 -115.5t-5 -129t-21.5 -99.5h55v-138h-746zM568 -137v181h-487v148h675v-329h-188z" />
    <glyph glyph-name="uniAF30" unicode="&#xaf30;" 
d="M40 216v138h105q28 54 28 215h-113v148h279q4 -64 0.5 -187.5t-25.5 -175.5h62v153h156v-153h32q9 16 14.5 36.5t7.5 47t2.5 44t0 49t-0.5 38.5h-172v148h341q-1 -66 0.5 -128.5t-4.5 -128.5t-22 -106h55v-138h-746zM81 173h187v-173h489v-137h-507q-70 0 -119.5 49.5
t-49.5 119.5v141z" />
    <glyph glyph-name="uniAF34" unicode="&#xaf34;" 
d="M40 283v138h105q13 22 20 53t7.5 49t0.5 56h-113v138h279q-1 -51 0.5 -98t-4.5 -102.5t-21 -95.5h62v96h156v-96h28q17 23 23.5 52t5 53.5t-0.5 52.5h-171v138h340q-1 -45 0.5 -96t-5 -110t-22.5 -90h56v-138h-746zM81 115h477v30h-477v104h664v-239h-477v-29h489v-118
h-507q-70 0 -119.5 49.5t-49.5 119.5v83z" />
    <glyph glyph-name="uniAF3C" unicode="&#xaf3c;" 
d="M40 264v138h105q28 46 28 177h-113v138h279q-1 -53 0.5 -110.5t-4.5 -117.5t-21 -87h62v105h156v-105h28q16 17 23 50.5t5.5 65t-0.5 61.5h-169v138h336q-1 -14 -1 -99.5t-5.5 -140.5t-20.5 -75h58v-138h-746zM91 216h654v-353h-485q-70 0 -119.5 49.5t-49.5 119.5v184z
M558 73h-279v-68h279v68z" />
    <glyph glyph-name="uniAF3D" unicode="&#xaf3d;" 
d="M40 264v138h105q28 38 28 177h-113v138h279q-1 -53 0 -106.5t-5 -112.5t-20 -96h62v105h156v-105h28q16 21 23 54.5t5.5 63t-0.5 59.5h-169v138h336q-1 -47 0.5 -102.5t-5.5 -119t-22 -93.5h58v-138h-746zM91 225h188v-47h279v47h187v-362h-485q-70 0 -119.5 49.5
t-49.5 119.5v193zM558 44h-279v-48h279v48z" />
    <glyph glyph-name="uniAF3F" unicode="&#xaf3f;" 
d="M40 235v138h105q28 46 28 205h-113v139h279q-1 -57 0 -114t-5 -122.5t-20 -107.5h62v115h156v-115h28q25 32 28.5 100.5t-0.5 104.5h-169v139h336q-1 -50 0.5 -112t-5.5 -131.5t-22 -100.5h58v-138h-746zM717 -157q-74 16 -167 61.5t-134 93.5q-3 5 -8 0
q-115 -107 -299 -154l-47 148q42 10 99 39.5t106 77.5t47 92h197q-1 -46 49.5 -94.5t107.5 -77t98 -38.5z" />
    <glyph glyph-name="uniAF41" unicode="&#xaf41;" 
d="M40 254v138h105q28 46 28 186h-113v138h279q-1 -54 0 -107.5t-5 -114.5t-20 -102h62v114h156v-114h28q17 22 24 57.5t5 66.5t-1 62h-169v138h336q-1 -48 0.5 -105t-5.5 -122.5t-22 -96.5h58v-138h-746zM70 31q0 63 51 109t127 66.5t165 20.5t165 -20.5t127 -66.5t51 -109
q0 -62 -51 -108t-127 -66.5t-165 -20t-165 21t-127 66t-51 107.5zM258 31q0 -35 78 -49.5t155.5 0t77.5 49.5q0 36 -77.5 50.5t-155.5 -0.5t-78 -50z" />
    <glyph glyph-name="uniAF42" unicode="&#xaf42;" 
d="M40 273v138h105q16 22 22.5 52.5t5.5 57.5t0 57h-113v139h279q-1 -52 0.5 -101.5t-4.5 -107t-21 -97.5h62v115h156v-115h28q16 21 23 51.5t5.5 58.5t-0.5 57h-169v139h338q-1 -46 0.5 -101.5t-5 -117t-22.5 -87.5h-1h-1h-1v0v0v0v0h1v0h1h1h1h1h1h1h1h1h1h1h1h1h1h1h1h1
h1h1h1h1h1h1h2h1h1h1h1h1h1h2h1h1h1h1h2h1h1h1h1h2h1h1h1h1h10v-138h-746zM717 -156q-80 16 -163.5 59t-141.5 98q-72 -67 -134 -99t-169 -58l-48 148q134 36 191 104v5h-171v138h664v-138h-173q14 -27 86 -63.5t109 -46.5z" />
    <glyph glyph-name="uniAF43" unicode="&#xaf43;" 
d="M40 295v130h105q11 16 17.5 36t8.5 38.5t2.5 39.5t-0.5 39h-113v139h279v-131q0 -94 -25 -161h62v105h156v-105h28q15 20 22 48t6 53t0 52h-169v139h338v-98q0 -142 -27 -194h56v-130h-746zM717 -156q-80 16 -163.5 59t-141.5 98q-65 -59 -133 -96t-170 -61l-48 148
q38 9 109.5 43.5t71.5 56.5h-161v122h238v55h190v-55h236v-122h-162q13 -27 80 -59t104 -42z" />
    <glyph glyph-name="uniAF48" unicode="&#xaf48;" horiz-adv-x="878" 
d="M766 322v-459h-147v114q-50 -28 -173 -28h-416v148h61q26 78 26 391v82h-77v148h214v-216q0 -311 -29 -405h54v315h122v-316q14 2 17 0l2 -1q20 51 23.5 193t-0.5 200v82h-131v148h272v-216q0 -115 -1 -176.5t-8 -128t-20 -99.5q56 1 64 17v622h147v-268h92v-147h-92z
" />
    <glyph glyph-name="uniAF49" unicode="&#xaf49;" horiz-adv-x="888" 
d="M776 455v-219h-147v41q-26 -17 -62.5 -25t-62.5 -7t-48 0h-426v138h44q13 29 19 64.5t7 60t1 70.5h-61v140h209v-135q0 -139 -25 -200h50v125h127v-125h19q15 22 21.5 60t5 71t-0.5 64h-142v140h290v-137q0 -55 -7 -115t-18 -82q39 4 60 23v330h147v-134h92v-148h-92z
M599 -137v201h-538v138h715v-339h-177z" />
    <glyph glyph-name="uniAF5D" unicode="&#xaf5d;" horiz-adv-x="888" 
d="M776 435v-248h-118q130 -60 130 -155q0 -63 -53 -109t-133 -67t-172.5 -21t-172.5 20.5t-133 66.5t-53 109q0 62 43 105t109.5 62.5t143 25.5t146 -2t116.5 -24v91q-35 -35 -164 -35h-435v138h67q22 30 25.5 90.5t-0.5 95.5h-71v139h208v-79q-1 -38 1 -81t-5 -91.5
t-24 -73.5h54v124h137v-124h8q15 7 22 48t5.5 79t-0.5 59h-131v139h268v-73q0 -5 1 -39.5t0.5 -58.5t-3 -57t-10.5 -58t-20 -38q43 2 67 23v320h147v-153h92v-148h-92zM259 31q0 -34 85.5 -48.5t170.5 0t85 49.5t-85 50t-170.5 0t-85.5 -51z" />
    <glyph glyph-name="uniAF64" unicode="&#xaf64;" horiz-adv-x="896" 
d="M700 -137v459h-36v-459h-117v112q-33 -26 -102 -26h-415v138h54q27 56 27 401v91h-61v139h178v-216q-1 -76 0 -150t-6.5 -149.5t-23.5 -115.5h55v325h107v-326h12q13 27 19 119.5t4.5 168.5t-0.5 114v91h-112v139h229v-216q-1 -66 0 -134.5t-5.5 -149t-21.5 -131.5
q33 0 62 25v625h117v-268h36v268h116v-874h-116z" />
    <glyph glyph-name="uniAF65" unicode="&#xaf65;" horiz-adv-x="896" 
d="M700 236v200h-36v-200h-117v35q-42 -24 -102 -26h-415v138h58q23 62 23 150v46h-61v139h178v-104q0 -172 -26 -231h51v133h107v-133h12q23 47 23 150v46h-112v139h229v-90q-1 -38 0.5 -79t-5 -89t-21.5 -76q16 0 34.5 7.5t26.5 16.5v329h117v-153h36v153h116v-501h-116z
M649 -137v191h-548v148h715v-339h-167z" />
    <glyph glyph-name="uniAF79" unicode="&#xaf79;" horiz-adv-x="896" 
d="M101 31q0 52 33 91.5t84 60t112.5 33.5t117.5 12t99 -4v46q-16 -17 -55.5 -22.5t-46.5 -3.5q-79 -1 -226 0t-189 1v128h57q22 43 25 102.5t-1 103.5h-61v138h178q3 -44 -1 -175.5t-27 -168.5h53v142h107v-142h11q13 22 19 62.5t5 76t0 67.5h-112v138h229
q-1 -53 0.5 -114.5t-5 -130t-22.5 -98.5q35 -4 62 23v339h117v-153h36v153h116v-558h-110q111 -58 111 -146q0 -63 -53 -109t-132.5 -67t-172.5 -21t-172.5 20.5t-132.5 66.5t-53 109zM289 31q0 -34 85.5 -48.5t170.5 0t85 49.5t-85 50t-170.5 0t-85.5 -51zM700 435h-36
v-214h-104q73 -9 140 -40v254z" />
    <glyph glyph-name="uniAF80" unicode="&#xaf80;" horiz-adv-x="846" 
d="M619 -137v114q-53 -28 -173 -28h-416v148h60q10 23 16.5 77t8 111.5t2 115t-0.5 87.5v82h-76v148h213v-216v-87t-1 -93t-3.5 -89.5t-8.5 -78t-15 -57.5h54v315h122v-316h16q15 22 21.5 108.5t5 163t-0.5 120.5v82h-132v148h272v-216q0 -366 -28 -404q40 -2 64 17v622h147
v-874h-147z" />
    <glyph glyph-name="uniAF9C" unicode="&#xaf9c;" 
d="M40 -118v148h84q12 13 18 56t5 81.5t0 63.5v339h-87v148h225v-427q0 -44 0.5 -86t-4.5 -91t-16 -84h49v363h117v-363h29v363h117v-363h14q27 39 27 201v339h-182v148h320v-427q0 -44 0.5 -86t-4.5 -91t-16 -84h60v-148h-756z" />
    <glyph glyph-name="uniAFB8" unicode="&#xafb8;" 
d="M508 149v-286h-188v286h-280v148h135q27 49 27 157v115h-142v148h321v-273q0 -83 -26 -147h200q24 39 24 157v115h-143v148h320v-156q0 -52 0.5 -91t-6 -83.5t-20.5 -89.5h57v-148h-279z" />
    <glyph glyph-name="uniAFB9" unicode="&#xafb9;" 
d="M512 254v-57h243v-334h-187v186h-488v148h244v57h-284v139h135q28 31 28 109v67h-123v148h300v-144q0 -124 -26 -180h196q28 33 28 109v67h-142v148h319v-196q-2 -69 -25 -128h76v-139h-294z" />
    <glyph glyph-name="uniAFBC" unicode="&#xafbc;" 
d="M563 226v-115h-188v115h-335v138h125q27 56 27 157v58h-111v138h289v-154q0 -135 -26 -199h190q25 42 25 157v58h-145v138h321v-146v-54.5t-2 -51.5t-7.5 -50t-15.5 -51h76v-138h-223zM91 182h188v-172h488v-147h-507q-70 0 -119.5 49.5t-49.5 119.5v150z" />
    <glyph glyph-name="uniAFC0" unicode="&#xafc0;" 
d="M81 115h477v30h-477v104h239v48h-280v138h126q10 13 16 32t7.5 37t2.5 38.5t0 36.5h-111v138h290q0 -139 -1 -162q-2 -85 -23 -120h183q9 12 15 26t8.5 28t3.5 30t1 30.5v29.5h-141v138h318v-107q0 -125 -26 -175h77v-138h-278v-48h237v-239h-477v-29h489v-118h-507
q-70 0 -119.5 49.5t-49.5 119.5v83z" />
    <glyph glyph-name="uniAFC7" unicode="&#xafc7;" 
d="M507 324v-42h-188v42h-279v129h126q12 19 18 41.5t7 38t1 45.5h-111v138h290v-113q0 -78 -24 -150h183q13 17 19.5 40.5t7.5 39.5t1 45h-141v138h318v-98q0 -116 -26 -165h77v-129h-279zM596 -166q-51 0 -92 26t-60.5 65t-18.5 87t27 89h-26v124h81v43h178v-43h81v-124
h-27q27 -40 28.5 -88t-18.5 -87t-61 -65.5t-92 -26.5zM81 115h142v29h-142v105h319v-239h-142v-30h152v-118h-160q-70 0 -119.5 50t-49.5 120v83zM596 84q-21 0 -30 -30.5t-0.5 -61t29.5 -30.5q22 0 31 30.5t0 61t-30 30.5z" />
    <glyph glyph-name="uniAFC8" unicode="&#xafc8;" 
d="M81 225h243v47h-284v139h126q26 40 26 158h-111v148h290v-136q0 -103 -25 -170h184q11 15 17.5 35.5t8.5 40.5t2.5 42t-0.5 40h-144v148h321v-112q0 -131 -25 -194h76v-139h-274v-47h244v-362h-506q-70 0 -119.5 49.5t-49.5 119.5v193zM568 82h-300v-77h300v77z" />
    <glyph glyph-name="uniAFC9" unicode="&#xafc9;" 
d="M512 272v-46h-188v46h-284v139h126q10 19 16 41.5t7.5 41.5t2.5 39.5t0 35.5h-111v148h290v-136q0 -103 -25 -170h184q11 15 17.5 35.5t8.5 40.5t2.5 42t-0.5 40h-144v148h321v-112q0 -131 -25 -194h76v-139h-274zM81 230h188v-52h299v52h188v-367h-506
q-70 0 -119.5 49.5t-49.5 119.5v198zM568 44h-299v-57h299v57z" />
    <glyph glyph-name="uniAFCB" unicode="&#xafcb;" 
d="M508 277v-52h-190v52h-278v138h126q10 16 16 36t7.5 39t2.5 39.5t0 39.5h-111v148h290v-123q0 -113 -25 -179h184q28 53 28 154h-144v148h321v-99q1 -25 0.5 -52t-2.5 -51t-7.5 -50.5t-15.5 -49.5h76v-138h-278zM717 -157q-79 17 -160.5 58.5t-140.5 96.5q-4 4 -8 0
q-115 -107 -299 -154l-47 148q32 8 69.5 24.5t79.5 42t71.5 63.5t33.5 79h193q1 -39 30 -76t72.5 -63t82 -43.5t72.5 -27.5z" />
    <glyph glyph-name="uniAFCD" unicode="&#xafcd;" 
d="M508 273v-52q107 -17 177.5 -66.5t70.5 -122.5q0 -62 -51 -108t-127 -67t-165 -21t-165 20.5t-127 66t-51 108.5q0 73 70.5 122.5t176.5 67.5l1 52h-278v138h135q15 16 22 49.5t6 63t0 54.5h-143v138h320v-145q0 -116 -26 -160h196q17 12 24 49t5 68t-1 50h-151v138h330
v-112q0 -150 -29 -193h58v-138h-278zM258 32q0 -32 78 -44.5t155.5 0.5t77.5 44t-77.5 43.5t-155.5 0t-78 -43.5z" />
    <glyph glyph-name="uniAFCE" unicode="&#xafce;" 
d="M508 303v-48h-190v48h-278v135h136q9 12 14.5 26t8 27.5t3.5 28.5t1 29v29h-143v139h320q0 -50 1 -94t-5 -94.5t-21 -90.5h195q9 11 15 25t8.5 28t3.5 29t1 29v29h-151v139h330q-1 -43 0.5 -91t-5.5 -103t-22 -85h56v-135h-278zM717 -156q-82 16 -166 58.5t-139 98.5
q-125 -123 -303 -157l-48 148q41 11 100 41t91 63v5h-161v127h644v-127h-163q0 -5 1 -6q76 -72 194 -104z" />
    <glyph glyph-name="uniAFD4" unicode="&#xafd4;" horiz-adv-x="866" 
d="M619 -137v172h-173v129h173v77q-35 -19 -77 -27t-82 -7.5t-90 0.5v-344h-178v344h-162v148h85q14 20 20.5 90.5t6.5 124.5h-92v148h249q1 -24 0 -75l-2 -102t-7.5 -104t-17.5 -82h117q27 61 27 215h-82v148h239q-1 -55 0.5 -116t-4.5 -133t-20 -113q39 0 70 22v359h167
v-874h-167z" />
    <glyph glyph-name="uniAFE8" unicode="&#xafe8;" horiz-adv-x="856" 
d="M629 197v19h-163v81h163v39q-67 -24 -169 -24h-90v-105h-157v105h-183v119h89q23 41 23 167h-91v119h238q0 -236 -26 -286h159q15 15 21 48t4.5 63.5t-0.5 55.5h-112v119h259v-69v-38t-0.5 -39.5t-2 -39t-4 -37t-7 -34.5t-11.5 -30q51 7 60 22v284h147v-539h-147z
M768 -156q-31 12 -87 55.5t-64 73.5q-53 -92 -163 -124q-34 11 -80.5 44.5t-71.5 78.5q-20 -43 -56.5 -71t-95.5 -58l-90 116q55 26 95.5 87.5t54.5 126.5h177q2 -36 20 -75.5t45 -58.5q1 -1 4 0q55 35 66 134h177q8 -63 52 -123t102 -91z" />
    <glyph glyph-name="uniAFE9" unicode="&#xafe9;" horiz-adv-x="856" 
d="M111 20q0 63 61 108.5t168 68.5h-148v138h-162v110h85q12 23 18 54.5t6.5 50t0.5 57.5h-90v110h239v-59t-1.5 -80.5t-8 -71.5t-19.5 -61h160q9 11 14.5 26t7.5 35t2.5 33t0 37.5t-0.5 30.5h-110v110h259q1 -26 0 -66t-2.5 -78t-7.5 -74t-16 -55q51 5 62 22v270h147v-568
h-129q130 -58 130 -148q0 -59 -49.5 -102t-123.5 -62.5t-160 -19.5t-160 19.5t-123.5 62.5t-49.5 102zM629 225h-164v86h164v49q-57 -25 -169 -25h-110v-137q157 20 279 -24v51zM305 21q0 -35 69.5 -49t138.5 0t69 49q0 33 -69 46t-138.5 0t-69.5 -46z" />
    <glyph glyph-name="uniAFF0" unicode="&#xaff0;" horiz-adv-x="886" 
d="M679 -137v874h127v-874h-127zM517 -137v153h-132v129h132v77q-29 -16 -55 -20q-34 -5 -143 -5v-334h-147v334h-142v129h66q25 46 25 178v85h-71v129h208v-239q0 -100 -24 -153h86q24 45 24 168v95h-61v129h198v-145q0 -184 -25 -245q36 -2 61 22v387h127v-874h-127z" />
    <glyph glyph-name="uniB00C" unicode="&#xb00c;" horiz-adv-x="866" 
d="M619 -137v339q-32 -14 -63.5 -21.5t-59.5 -9.5t-60 -3t-66 0v-305h-178v305h-162v148h85q15 20 22 74t5.5 101t-0.5 79h-92v148h249q4 -47 0 -193t-27 -209h110.5t8.5 2q25 34 25 252h-82v148h239q-1 -24 0.5 -125.5t-3.5 -164.5t-21 -111q16 0 38.5 6t31.5 16v398h167
v-874h-167z" />
    <glyph glyph-name="uniB010" unicode="&#xb010;" horiz-adv-x="856" 
d="M619 92v178q-21 -12 -53.5 -18t-52.5 -6.5t-62 -0.5v-133h-157v133h-264v129h88q13 25 19.5 91.5t4.5 132.5h-92v120h239v-78q0 -223 -27 -266h141q23 52 23 224h-102v120h249q-1 -52 0.5 -114t-5 -131t-20.5 -99q55 0 71 21v342h157v-645h-157zM81 183h167v-172h538
v-148h-536q-70 0 -119.5 50t-49.5 120v150z" />
    <glyph glyph-name="uniB014" unicode="&#xb014;" horiz-adv-x="856" 
d="M629 254v104q-26 -16 -62 -22.5t-82.5 -6t-114.5 0.5v-66h-157v66h-183v110h86q12 18 17.5 47t5.5 58v63h-89v110h239q0 -232 -27 -278h147q22 32 25.5 91.5t-0.5 76.5h-110v110h259q1 -34 0 -75t-2 -77.5t-6.5 -70t-15.5 -52.5q47 2 70 22v272h147v-483h-147zM111 97
h477v28h-477v106h665v-229h-476v-29h486v-110h-506q-70 0 -120 50t-49 120v64z" />
    <glyph glyph-name="uniB01C" unicode="&#xb01c;" horiz-adv-x="856" 
d="M619 245v96q-17 -7 -34.5 -11.5t-36 -7t-38.5 -4t-41.5 -2t-46.5 -0.5h-52v-61h-157v61h-183v119h88q24 37 24 163h-92v120h239q-1 -37 0.5 -84.5t-5.5 -106.5t-22 -92h139q15 22 21 54.5t4.5 58.5t-0.5 50h-102v120h249q-1 -52 0 -102.5t-4.5 -102.5t-19.5 -79
q54 5 70 22v281h157v-492h-157zM111 207h665v-344h-496q-70 0 -120 50t-49 120v174zM598 73h-309v-76h309v76z" />
    <glyph glyph-name="uniB044" unicode="&#xb044;" 
d="M40 -118v148h139q12 13 18 56t5 81.5t0 63.5v339h-142v148h320v-427q0 -44 1 -86t-4 -91t-16 -84h183q10 10 15.5 38t7 58t2 60t-0.5 45v339h-142v148h319v-427q0 -44 1 -86t-4 -91t-16 -84h60v-148h-746z" />
    <glyph glyph-name="uniB045" unicode="&#xb045;" 
d="M40 259v138h135q16 19 23 52.5t5.5 62.5t-0.5 57h-143v148h320q-1 -47 0.5 -102.5t-5 -120t-21.5 -97.5h196q15 19 22 52.5t6 63t0 56.5h-152v148h330q3 -68 1 -164t-26 -156h75v-138h-766zM568 -137v196h-488v147h675v-343h-187z" />
    <glyph glyph-name="uniB048" unicode="&#xb048;" 
d="M40 216v138h145q11 21 17.5 48t8.5 54t2.5 57t-0.5 56h-153v148h331q-1 -56 0 -121.5t-5 -137.5t-20 -104h187q15 25 21 66.5t4.5 78t-0.5 70.5h-142v148h321q0 -66 1 -123.5t-5.5 -123t-21.5 -116.5h55v-138h-746zM81 173h187v-163h489v-147h-507q-70 0 -119.5 49.5
t-49.5 119.5v141z" />
    <glyph glyph-name="uniB04A" unicode="&#xb04a;" 
d="M40 292v138h136q15 15 21.5 43.5t5.5 54.5t0 50h-143v138h310q-1 -44 0 -93.5t-5 -106t-21 -86.5h216q11 15 17.5 35t8.5 38.5t2.5 38.5t-0.5 36h-171v138h340q1 -28 0.5 -69t-2 -80t-8 -77t-17.5 -60h56v-138h-746zM596 -166q-51 0 -92 26t-60.5 65t-18.5 87t27 89h-26
v119h81v48h178v-48h81v-119h-27q27 -40 28.5 -88t-18.5 -87t-61 -65.5t-92 -26.5zM91 239h178v-229h131v-148h-140q-70 0 -119.5 50t-49.5 120v207zM596 84q-21 0 -30 -30.5t-0.5 -61t29.5 -30.5q22 0 31 30.5t0 61t-30 30.5z" />
    <glyph glyph-name="uniB04C" unicode="&#xb04c;" 
d="M40 283v138h126q10 15 16 35t7.5 40t2.5 42t0 41h-111v138h290q0 -15 0.5 -57.5t0 -64t-2.5 -56t-7.5 -63t-14.5 -55.5h183q15 20 22 49t6 55t0 54h-141v138h318q-1 -45 0 -98.5t-5 -112.5t-21 -85h77v-138h-746zM81 115h477v30h-477v104h664v-239h-477v-29h489v-118
h-507q-70 0 -119.5 49.5t-49.5 119.5v83z" />
    <glyph glyph-name="uniB053" unicode="&#xb053;" 
d="M40 292v138h126q26 47 26 148h-111v138h290q4 -61 1 -145.5t-25 -140.5h183q11 15 17.5 34t8.5 37.5t2.5 38.5t-0.5 38h-141v138h318q-1 -44 0.5 -94.5t-5 -107.5t-21.5 -84h77v-138h-746zM596 -166q-51 0 -92 26t-60.5 65t-18.5 87t27 89h-26v119h81v48h178v-48h81v-119
h-27q27 -40 28.5 -88t-18.5 -87t-61 -65.5t-92 -26.5zM81 115h142v29h-142v105h309v-239h-132v-30h142v-118h-150q-70 0 -119.5 50t-49.5 120v83zM596 84q-21 0 -30 -30.5t-0.5 -61t29.5 -30.5q22 0 31 30.5t0 61t-30 30.5z" />
    <glyph glyph-name="uniB054" unicode="&#xb054;" 
d="M40 272v139h126q10 20 16 43t7.5 42.5t2.5 39.5t0 33h-111v148h290q4 -66 1 -154.5t-26 -151.5h184q11 15 17.5 35.5t8.5 40.5t2.5 42t-0.5 40h-144v148h321q-1 -53 0.5 -105t-4.5 -108.5t-21 -92.5h76v-139h-746zM81 225h664v-362h-495q-70 0 -119.5 49.5t-49.5 119.5
v193zM558 82h-290v-77h290v77z" />
    <glyph glyph-name="uniB057" unicode="&#xb057;" 
d="M40 235v138h136q16 25 22 61.5t4.5 68.5t-0.5 66h-132v148h311q4 -74 0.5 -179.5t-24.5 -164.5h173q16 21 23 59t5.5 71.5t-0.5 65.5h-131v148h308q3 -73 0 -185.5t-25 -158.5h76v-138h-746zM717 -157q-81 17 -164.5 59.5t-136.5 95.5q-4 4 -8 0q-115 -107 -299 -154
l-47 148q46 10 98 36t99.5 73t54.5 100h197q7 -51 56 -98.5t102 -74t97 -37.5z" />
    <glyph glyph-name="uniB059" unicode="&#xb059;" 
d="M40 254v138h136q9 13 14.5 31.5t8 37.5t3.5 40.5t1 40v36.5h-143v138h320q-1 -53 0.5 -108t-4.5 -117.5t-21 -98.5h195q17 22 24 57.5t5 66.5t-1 62h-151v138h330q-1 -48 0.5 -105t-5.5 -122t-22 -97h56v-138h-746zM70 31q0 63 51 109t127.5 66.5t165.5 20.5t165 -21
t126.5 -66.5t50.5 -107.5q-1 -63 -52 -108.5t-127 -66.5t-165 -21t-165 20.5t-126.5 66.5t-50.5 108zM258 32q0 -27 48.5 -41.5t107 -14.5t107 15t48.5 41q0 34 -77.5 47.5t-155.5 -0.5t-78 -47z" />
    <glyph glyph-name="uniB05D" unicode="&#xb05d;" 
d="M40 288v138h124q11 16 17.5 36t8.5 39t2.5 40t-0.5 38h-132v138h311q-1 -41 0.5 -93t-5 -111.5t-21.5 -86.5h205q9 13 15 28t8.5 29.5t3.5 31t1 32v32.5h-161v138h340q-1 -42 0.5 -93.5t-5.5 -110.5t-23 -87h57v-138h-746zM91 249h644v-109h-467v-29h458v-105h-458v-29
h477v-114h-485q-70 0 -119.5 49t-49.5 119v218z" />
    <glyph glyph-name="uniB07C" unicode="&#xb07c;" horiz-adv-x="843" 
d="M585 -137v874h178v-874h-178zM249 59q61 55 79.5 131.5t18.5 183.5v196h-56v-175q0 -60 -7 -116t-24 -118.5t-53.5 -111t-88.5 -71.5l-98 120q32 25 53 59.5t30 77.5t12 78t3 82v175h-81v148h482v-364q0 -326 -173 -414z" />
    <glyph glyph-name="uniB07D" unicode="&#xb07d;" horiz-adv-x="856" 
d="M587 245v492h189v-492h-189zM313 227l-60 128q31 14 50.5 37t27.5 55.5t10.5 58t2.5 64.5h-56q0 -120 -50 -204t-159 -111l-59 130q31 13 50 31.5t27 44.5t10.5 48.5t2.5 60.5h-71v148h482q0 -25 0.5 -68.5t0.5 -69t-2 -64t-7 -63.5t-14 -57t-25 -54t-37.5 -45t-53 -40
t-70.5 -30zM587 -137v201h-507v148h696v-349h-189z" />
    <glyph glyph-name="uniB080" unicode="&#xb080;" horiz-adv-x="856" 
d="M587 112v625h189v-625h-189zM313 187l-60 128q20 7 35.5 21t25 31t16 37.5t9 41.5t4.5 43.5t1 42.5t0 38h-56q0 -51 -5 -94t-19 -86.5t-37 -76.5t-60.5 -59t-87.5 -39l-59 129q20 8 35 20t24.5 26.5t16 31.5t9 35t4.5 37.5t1.5 38t-0.5 37.5h-71v148h482q-2 -63 1 -127
t-6.5 -129t-27.5 -118.5t-62.5 -95.5t-112.5 -61zM100 173h188v-162h497v-148h-516q-70 0 -120 50t-49 120v140z" />
    <glyph glyph-name="uniB084" unicode="&#xb084;" horiz-adv-x="856" 
d="M587 283v454h188v-454h-188zM313 265l-60 128q49 23 69.5 73t21.5 104h-56q0 -90 -58 -175.5t-151 -101.5l-59 129q42 13 66 57t24 91h-71v148h482q2 -48 0.5 -96.5t-4.5 -92.5t-16 -84.5t-34 -74t-60 -61t-94 -44.5zM90 116h497v29h-497v105h685v-239h-497v-29h507v-119
h-526q-70 0 -120 50t-49 120v83z" />
    <glyph glyph-name="uniB08C" unicode="&#xb08c;" horiz-adv-x="856" 
d="M567 274v463h188v-463h-188zM313 265l-59 128q46 25 68 76t22 101h-56q0 -58 -23.5 -117t-73 -105.5t-112.5 -54.5l-59 129q42 13 66 57t24 91h-71v148h483q-2 -60 0 -115.5t-7.5 -108t-28.5 -95.5t-63 -78.5t-110 -55.5zM90 233h665v-370h-496q-70 0 -120 50t-49 120
v200zM567 92h-289v-89h289v89z" />
    <glyph glyph-name="uniB08D" unicode="&#xb08d;" horiz-adv-x="856" 
d="M567 274v463h188v-463h-188zM313 265l-59 128q90 57 90 177h-56q0 -91 -57 -175.5t-152 -101.5l-59 129q42 13 66 57t24 91h-71v148h483q2 -48 0.5 -96t-4.5 -91t-16 -83.5t-34.5 -74t-60.5 -61.5t-94 -47zM90 235h188v-47h289v47h188v-372h-496q-70 0 -120 50t-49 120
v202zM567 58h-289v-52h289v52z" />
    <glyph glyph-name="uniB08F" unicode="&#xb08f;" horiz-adv-x="856" 
d="M589 168v568h189v-568h-189zM314 217l-59 129q90 48 90 223h-55q0 -126 -47 -209t-163 -115l-60 130q33 15 52.5 34t27.5 47.5t10 50t2 62.5h-71v148h482q4 -80 1 -156.5t-15.5 -139.5t-60.5 -116.5t-134 -87.5zM735 -157q-56 18 -147 68t-131 106h-5q-35 -40 -75.5 -72
t-85.5 -53.5t-63.5 -29t-51.5 -19.5l-73 139q56 17 109 49t96 83.5t47 106.5h199q7 -73 87.5 -143t165.5 -96z" />
    <glyph glyph-name="uniB091" unicode="&#xb091;" horiz-adv-x="856" 
d="M100 36q0 70 60.5 118t153.5 70q144 31 273 -6v518h188v-539h-131q131 -63 131 -161q0 -64 -50 -110.5t-125 -67.5t-162.5 -21t-162.5 21t-125 67.5t-50 110.5zM521 717q4 -88 2 -163t-14 -133.5t-59.5 -108t-135.5 -88.5l-61 130q31 15 51 38t28 54.5t10 56.5t2 66h-56
q0 -119 -50 -203t-159 -112l-59 130q20 10 34 20.5t24 19t16 23.5t9.5 23t5 29t1.5 31v39h-71v148h482zM298 36q0 -34 70 -48t140 0t70 48q0 35 -70 49.5t-140 0t-70 -49.5zM314 224h-1h1z" />
    <glyph glyph-name="uniB098" unicode="&#xb098;" horiz-adv-x="866" 
d="M60 718h187v-611q197 0 233 4q31 4 59 15l28 10v601h188v-229h91v-148h-91v-497h-188v122q-42 -17 -81 -21q-32 -4 -144 -4l-113 -1q-69 -1 -119 49t-50 120v590z" />
    <glyph glyph-name="uniB099" unicode="&#xb099;" horiz-adv-x="878" 
d="M62 717h187v-296q46 -4 168 -0.5t161 23.5v293h189v-134h91v-148h-91v-200h-189v39q-40 -13 -127 -17.5t-154 -2.5l-67 1q-69 -4 -119.5 47t-49.5 121zM578 -137v201h-477v148h666v-349h-189z" />
    <glyph glyph-name="uniB09A" unicode="&#xb09a;" horiz-adv-x="878" 
d="M61 717h187v-287q63 -2 187 1.5t142 21.5v284h189v-134h91v-148h-91v-191h-189v39q-35 -10 -122 -15t-157 -5h-69q-70 0 -119.5 50t-49.5 120zM577 -137v210h-132v148h321v-358h-189zM222 -137v210h-121v148h310v-358h-189z" />
    <glyph glyph-name="uniB09C" unicode="&#xb09c;" horiz-adv-x="878" 
d="M61 717h187v-325q50 1 113.5 -0.5t129 4t86.5 19.5v322h189v-134h91v-148h-91v-324h-189v134q-35 -13 -65.5 -16.5t-96.5 -4t-186 0.5q-70 0 -119.5 50t-49.5 120zM120 183h188v-172h467v-148h-486q-70 0 -120 50t-49 120v150z" />
    <glyph glyph-name="uniB09F" unicode="&#xb09f;" horiz-adv-x="878" 
d="M60 717h187v-277q56 -4 173 -0.5t156 23.5v274h189v-134h91v-148h-91v-181h-189v39q-23 -9 -49 -13t-64.5 -5.5t-94.5 -1.5h-139q-70 0 -119.5 49.5t-49.5 119.5v255zM120 231h644v-148h-456v-72h466v-148h-484q-70 0 -119.5 50t-49.5 120z" />
    <glyph glyph-name="uniB0A0" unicode="&#xb0a0;" horiz-adv-x="878" 
d="M60 717h188v-258q51 1 114.5 -0.5t131.5 4t93 19.5v255h189v-115h92v-148h-92v-176h-189v36q-43 -19 -130.5 -22.5t-227.5 0.5q-70 0 -119.5 49t-49.5 119v237zM120 121h467v29h-467v109h656v-248h-468v-29h478v-119h-497q-70 0 -120 50t-49 120v88z" />
    <glyph glyph-name="uniB0A1" unicode="&#xb0a1;" horiz-adv-x="878" 
d="M61 717h187v-258q51 1 116.5 -0.5t131.5 4t81 19.5v255h189v-115h91v-148h-91v-176h-189v34q-42 -17 -120.5 -20t-227.5 0q-70 0 -119.5 49t-49.5 119zM577 -137v249h-122v147h310v-396h-188zM120 121h122v29h-122v109h301v-248h-123v-29h133v-119h-142q-70 0 -120 50
t-49 120v88z" />
    <glyph glyph-name="uniB0A8" unicode="&#xb0a8;" horiz-adv-x="878" 
d="M61 717h187v-277q51 -4 169 -0.5t160 23.5v274h189v-124h91v-148h-91v-191h-189v39q-35 -17 -73 -23t-102.5 -6.5t-172.5 0.5q-70 0 -119.5 49.5t-49.5 119.5zM111 235h655v-372h-486q-70 0 -120 50t-49 120v202zM578 95h-280v-89h280v89z" />
    <glyph glyph-name="uniB0A9" unicode="&#xb0a9;" horiz-adv-x="878" 
d="M61 717h187v-272q48 1 108 -0.5t127 4t94 18.5v270h189v-124h91v-148h-91v-186h-189v39q-40 -13 -63.5 -16t-90.5 -4.5t-194 0.5q-70 0 -119.5 49.5t-49.5 119.5zM111 240h187v-48h279v48h189v-377h-486q-70 0 -120 50t-49 120v207zM578 50h-280v-44h280v44z" />
    <glyph glyph-name="uniB0AB" unicode="&#xb0ab;" horiz-adv-x="878" 
d="M60 717h187v-291q56 -4 173 -1t157 25v286h188v-124h91v-148h-91v-277h-188v113q-32 -14 -57.5 -18t-93.5 -5t-197 1q-70 0 -119.5 50t-49.5 120v269zM716 -157q-77 22 -155 70.5t-128 107.5q-88 -101 -283 -178l-69 132q40 15 84 41.5t85 61t66 78t23 84.5h187
q1 -48 27 -93t67 -78t82 -56t82 -38z" />
    <glyph glyph-name="uniB0AC" unicode="&#xb0ac;" horiz-adv-x="878" 
d="M81 716h188v-305q54 -4 170 -1.5t158 24.5v302h189v-124h92v-148h-92v-210h-189v30q-51 -16 -95 -18.5t-251 -1.5q-70 0 -119.5 49.5t-49.5 119.5zM767 -156q-30 9 -81.5 50t-67.5 79q-64 -89 -159 -123q-22 9 -49.5 23.5t-61 43t-43.5 56.5q-19 -38 -68.5 -76.5
t-85.5 -52.5l-91 115q72 33 112.5 106t40.5 156h178q2 -132 62 -178q6 -6 6 -1q32 1 49.5 60t17.5 119h179q-2 -82 39 -153.5t114 -108.5z" />
    <glyph glyph-name="uniB0AD" unicode="&#xb0ad;" horiz-adv-x="878" 
d="M61 716h187v-295q60 -3 178.5 0t150.5 22v293h189v-124h91v-148h-91v-248h-145q154 -64 154 -174q0 -66 -50 -114t-125 -69.5t-162.5 -21.5t-162.5 22t-125 70t-50 113q0 57 35 99.5t90 64.5t120 32t125.5 7t106.5 -15v63q-55 -13 -78 -16.5t-87 -4.5t-183 1
q-70 0 -119.5 50t-49.5 120zM298 42q0 -38 70 -53t140 0.5t70 52.5t-70 52.5t-140 0t-70 -52.5z" />
    <glyph glyph-name="uniB0AE" unicode="&#xb0ae;" horiz-adv-x="878" 
d="M60 716h187v-270q46 1 106.5 -0.5t128 5.5t94.5 24v261h189v-124h91v-148h-91v-181h-189v40q-25 -14 -54.5 -19t-98.5 -5.5t-194 0.5q-70 0 -119.5 49.5t-49.5 119.5v248zM722 -156q-75 14 -158.5 63t-122.5 102q-87 -109 -279 -165l-71 135q51 17 119 53.5t77 69.5h-168
v147h645v-147h-169q17 -31 88 -71.5t109 -52.5z" />
    <glyph glyph-name="uniB0AF" unicode="&#xb0af;" horiz-adv-x="878" 
d="M60 717h187v-248l71 -1q70 -1 103 0t83 8.5t73 21.5v238h188v-124h91v-148h-91v-157h-188v38q-30 -14 -61.5 -19t-98.5 -5.5t-188 0.5q-70 0 -119.5 49.5t-49.5 119.5v227zM723 -156q-168 33 -281 165q-93 -111 -279 -165l-71 135q48 16 116 53t80 70h-168v133h230v57
h188v-57h227v-133h-169q15 -28 88 -70t109 -54z" />
    <glyph glyph-name="uniB0B1" unicode="&#xb0b1;" horiz-adv-x="878" 
d="M60 717h188v-268q60 -4 184 -0.5t155 23.5v265h189v-110h92v-148h-92v-186h-189v29q-37 -13 -63 -16.5t-94.5 -4t-199.5 0.5q-70 0 -119.5 50t-49.5 120zM110 255h666v-110h-478v-29h467v-105h-467v-29h488v-119h-507q-70 0 -120 50t-49 120v222z" />
    <glyph glyph-name="uniB0B3" unicode="&#xb0b3;" horiz-adv-x="878" 
d="M60 716h188v-262q52 1 122 -0.5t138 4t79 19.5v259h189v-115h92v-147h-92v-191h-189v44q-32 -13 -57.5 -17t-95.5 -4.5t-205 0.5q-70 0 -119.5 50t-49.5 120v240zM110 13q0 47 56 88h-56v129h239v48h188v-48h238v-129h-56q56 -40 56 -88q0 -56 -49.5 -97.5t-123 -60
t-160 -18.5t-160 18.5t-123 60t-49.5 97.5zM307 13q0 -32 67.5 -45t135 0t67.5 45t-67.5 45t-135 0t-67.5 -45z" />
    <glyph glyph-name="uniB0B4" unicode="&#xb0b4;" horiz-adv-x="876" 
d="M60 718h178v-611q22 -1 49.5 -0.5t52.5 2t50.5 9t44.5 19.5v600h162v-229h36v229h163v-874h-163v497h-36v-497h-162v118q-54 -18 -75 -20.5t-131 -1.5q-70 0 -119.5 49.5t-49.5 119.5v590z" />
    <glyph glyph-name="uniB0B5" unicode="&#xb0b5;" horiz-adv-x="885" 
d="M60 718h178v-316q36 0 72.5 -1t77.5 4.5t67 18.5v313h157v-134h36v134h157v-492h-157v210h-36v-210h-157v29q-9 -3 -16 -6t-13.5 -4.5t-8.5 -3.5t-11.5 -3t-10 -2t-17.5 -1t-21 -0.5t-32.5 -0.5t-40 0.5t-55.5 0.5q-70 0 -119.5 49.5t-49.5 119.5v295zM617 -137v201h-517
v148h705v-349h-188z" />
    <glyph glyph-name="uniB0B8" unicode="&#xb0b8;" horiz-adv-x="885" 
d="M60 727h178v-364q51 -3 125 0t92 21v353h157v-173h36v173h158v-625h-158v304h-36v-304h-157v125q-29 -15 -33.5 -16.5t-52 -4.5t-140.5 0q-70 0 -119.5 49.5t-49.5 119.5v342zM120 164h188v-153h507v-148h-526q-70 0 -119.5 50t-49.5 120v131z" />
    <glyph glyph-name="uniB0BC" unicode="&#xb0bc;" horiz-adv-x="885" 
d="M61 718h178v-277q44 -4 119 -1t99 23v274h157v-134h36v134h157v-454h-157v172h-36v-172h-157v29q-21 -16 -47.5 -18t-180.5 -1q-70 0 -119.5 49.5t-49.5 119.5zM132 116h487v29h-487v105h675v-239h-487v-29h497v-119h-516q-70 0 -120 50t-49 120v83z" />
    <glyph glyph-name="uniB0C4" unicode="&#xb0c4;" horiz-adv-x="885" 
d="M61 718h178v-297q36 0 71.5 -1t76.5 4.5t70 18.5v294h157v-134h37v134h156v-473h-156v191h-37v-191h-157v29q-37 -17 -51 -18t-177 -1q-70 0 -119.5 49.5t-49.5 119.5zM112 226h695v-363h-526q-70 0 -119.5 50t-49.5 120v193zM619 86h-319v-80h319v80z" />
    <glyph glyph-name="uniB0C5" unicode="&#xb0c5;" horiz-adv-x="885" 
d="M61 718h178v-297q36 1 74 -0.5t79.5 4t64.5 18.5v294h157v-134h36v134h157v-473h-157v191h-36v-191h-157v29q-31 -15 -61 -17.5t-167 -1.5q-70 0 -119.5 49.5t-49.5 119.5zM112 226h188v-48h319v48h188v-363h-526q-70 0 -119.5 50t-49.5 120v193zM619 45h-319v-48h319v48
z" />
    <glyph glyph-name="uniB0C7" unicode="&#xb0c7;" horiz-adv-x="885" 
d="M61 717h178v-297q42 -4 111 -1t107 23v294h157v-124h36v124h157v-529h-157v257h-36v-200h-157v28q-34 -16 -58 -18t-170 -1q-70 0 -119.5 50t-49.5 120zM737 -157q-35 10 -75 26.5t-102 57t-103 90.5h-5q-27 -34 -61 -62.5t-65 -45.5t-62.5 -32t-53.5 -21t-39 -13
l-68 132q42 16 84 40.5t84 58t67 77.5t23 89h187q-1 -44 24.5 -88.5t67 -78t84 -58.5t82.5 -40z" />
    <glyph glyph-name="uniB0C8" unicode="&#xb0c8;" horiz-adv-x="885" 
d="M66 717h177v-316q37 1 76 -0.5t80.5 4t62.5 18.5v313h157v-153h35v153h158v-491h-158v191h-35v-191h-157v28q-47 -16 -71 -18t-157 -1q-70 0 -119.5 49.5t-49.5 119.5zM767 -156q-35 16 -84 53.5t-65 75.5q-71 -103 -155 -123q-119 47 -158 123q-25 -46 -69 -79.5
t-85 -49.5l-91 115q71 50 112 117.5t41 144.5h179q0 -50 19.5 -101t51.5 -78q23 10 43 69.5t20 109.5h179q-2 -82 39.5 -153.5t113.5 -108.5z" />
    <glyph glyph-name="uniB0C9" unicode="&#xb0c9;" horiz-adv-x="885" 
d="M62 717h178v-306q8 0 40 -0.5t49 0t44 2.5t48 7.5t37 14.5v301h157v-134h36v134h157v-530h-129q129 -63 129 -164q0 -66 -51.5 -114.5t-128.5 -70t-167.5 -21.5t-167.5 22t-128.5 70t-51.5 114q0 70 57.5 119t132.5 68.5t154 19.5l1 39q-52 -18 -140 -22l-88 -3
q-70 0 -120 50t-49 120zM651 455h-36v-210h-81v-1q50 -5 117 -27v238zM311 42q0 -38 75 -53t150 0.5t75 52.5t-75 52.5t-150 0t-75 -52.5z" />
    <glyph glyph-name="uniB0D0" unicode="&#xb0d0;" horiz-adv-x="878" 
d="M61 718h187v-611q63 0 113 -1t104.5 5.5t101.5 23.5v602h188v-153h91v-148h-91v-129h91v-148h-91v-296h-188v118q-31 -16 -77 -19t-261 -3q-70 0 -119.5 49.5t-49.5 119.5z" />
    <glyph glyph-name="uniB0D1" unicode="&#xb0d1;" horiz-adv-x="878" 
d="M60 717h187v-295q85 -4 192 0t138 23v292h188v-58h91v-138h-91v-53h91v-138h-91v-97h-188v42q-64 -17 -103.5 -19t-244.5 -1q-70 0 -119.5 50t-49.5 120v272zM577 -137v201h-477v148h665v-349h-188z" />
    <glyph glyph-name="uniB0D4" unicode="&#xb0d4;" horiz-adv-x="878" 
d="M61 717h187v-325q60 -4 180 -0.5t149 23.5v322h189v-86h91v-138h-91v-72h91v-138h-91v-172h-189v134q-31 -12 -58 -16t-95 -4.5t-195 0.5q-70 0 -119.5 50t-49.5 120zM120 183h188v-172h467v-148h-486q-70 0 -120 50t-49 120v150z" />
    <glyph glyph-name="uniB0D8" unicode="&#xb0d8;" horiz-adv-x="878" 
d="M60 717h188v-268q64 -3 187.5 0t151.5 23v265h189v-58h92v-133h-92v-53h92v-133h-92v-67h-189v29q-42 -13 -71 -16.5t-95.5 -4t-190.5 0.5q-70 0 -119.5 50t-49.5 120zM120 121h467v29h-467v109h656v-248h-468v-29h478v-119h-496q-70 0 -119.5 50t-49.5 120z" />
    <glyph glyph-name="uniB0E5" unicode="&#xb0e5;" horiz-adv-x="878" 
d="M61 716h187v-295q52 3 111.5 0.5t125 2.5t92.5 20v292h189v-67h91v-138h-91v-53h91v-138h-91v-124h-137q146 -62 146 -174q0 -66 -50 -114.5t-125 -70.5t-162.5 -22t-162.5 22t-125 70.5t-50 114.5q0 58 35 101t89.5 65t119.5 31.5t125.5 7t107.5 -14.5v62
q-52 -18 -84.5 -20t-263.5 -1q-70 0 -119.5 50t-49.5 120zM298 42q0 -37 70 -52.5t140 0t70 52.5t-70 52t-140 0t-70 -52z" />
    <glyph glyph-name="uniB108" unicode="&#xb108;" horiz-adv-x="856" 
d="M60 718h188v-611q65 0 119.5 -1t114 6t105.5 24v214h-213v148h213v239h189v-874h-189v119q-31 -13 -65 -18t-103 -5.5t-190 0.5q-70 0 -119.5 49.5t-49.5 119.5v590z" />
    <glyph glyph-name="uniB109" unicode="&#xb109;" horiz-adv-x="846" 
d="M60 717h188v-315q49 1 111 -0.5t128.5 4t89.5 19.5v68h-182v148h182v96h189v-492h-189v30q-70 -17 -105.5 -19t-242.5 -1q-70 0 -119.5 49t-49.5 119v294zM577 -137v201h-477v148h666v-349h-189z" />
    <glyph glyph-name="uniB10B" unicode="&#xb10b;" horiz-adv-x="846" 
d="M60 716h187v-305q56 -4 174 -0.5t155 23.5v69h-181v138h181v95h189v-482h-189v30q-58 -17 -99.5 -19t-247.5 -1q-70 0 -119.5 49.5t-49.5 119.5v283zM758 -157q-83 54 -123 137q-12 -29 -40.5 -61t-47.5 -48.5t-34 -26.5l-83 87v-68h-179v210h-162v148h341v-257
q57 46 91.5 121.5t24.5 144.5h178q-2 -175 131 -279z" />
    <glyph glyph-name="uniB10C" unicode="&#xb10c;" horiz-adv-x="846" 
d="M60 717h188v-325q56 -4 170 -0.5t159 23.5v78h-182v148h182v96h189v-625h-189v153q-55 -17 -90.5 -19t-257.5 -1q-70 0 -119.5 49.5t-49.5 119.5v303zM120 183h188v-172h467v-148h-486q-70 0 -120 50t-49 120v150z" />
    <glyph glyph-name="uniB110" unicode="&#xb110;" horiz-adv-x="846" 
d="M60 717h188v-268q60 -4 183.5 -0.5t155.5 23.5v50h-194v138h194v77h189v-444h-189v29q-42 -13 -71 -16.5t-95.5 -4t-191.5 0.5q-70 0 -119.5 50t-49.5 120v245zM120 121h467v29h-467v109h656v-248h-468v-29h478v-119h-497q-70 0 -120 50t-49 120v88z" />
    <glyph glyph-name="uniB113" unicode="&#xb113;" horiz-adv-x="846" 
d="M60 718h188v-268q52 1 118.5 -0.5t134.5 4t87 18.5v50h-194v138h194v77h188v-444h-188v29q-56 -18 -103 -20t-255 0q-70 0 -119.5 50t-49.5 120zM456 -137v396h137v-57h46v57h137v-396h-320zM111 121h132v29h-132v109h310v-248h-132v-29h132v-119h-141q-70 0 -120 50
t-49 120v88zM639 73h-46v-81h46v81z" />
    <glyph glyph-name="uniB118" unicode="&#xb118;" horiz-adv-x="846" 
d="M60 718h188v-287q52 1 118 -0.5t134.5 4t87.5 18.5v50h-194v148h194v86h188v-463h-188v29q-32 -9 -49.5 -12.5t-54.5 -6t-92 -1.5t-162 0q-70 0 -119.5 50t-49.5 120zM121 235h655v-372h-486q-70 0 -120 50t-49 120v202zM588 95h-279v-89h279v89z" />
    <glyph glyph-name="uniB119" unicode="&#xb119;" horiz-adv-x="846" 
d="M60 718h188v-287q52 1 117.5 -0.5t133.5 4t89 18.5v50h-194v148h194v86h188v-463h-188v29q-51 -16 -97.5 -18.5t-260.5 -1.5q-70 0 -119.5 50t-49.5 120zM121 235h188v-47h279v47h188v-372h-486q-70 0 -120 50t-49 120v202zM588 57h-279v-60h279v60z" />
    <glyph glyph-name="uniB11B" unicode="&#xb11b;" horiz-adv-x="846" 
d="M60 717h188v-296q116 -2 203 0.5t127 21.5v60h-194v147h194v86h188v-549h-188v106q-42 -18 -96 -20.5t-252 0.5q-70 0 -119.5 49.5t-49.5 119.5zM716 -157q-81 23 -162 72t-121 106q-61 -66 -127 -106t-156 -72l-69 132q42 16 85 40.5t85.5 58t67.5 77.5t21 89h187
q-1 -45 24.5 -89.5t66.5 -78t83.5 -58t83.5 -39.5z" />
    <glyph glyph-name="uniB11C" unicode="&#xb11c;" horiz-adv-x="846" 
d="M81 716h188v-305q56 -4 175.5 -1t153.5 24v69h-194v147h194v86h188v-482h-188v30q-35 -13 -62.5 -16.5t-94 -4t-191.5 0.5q-70 0 -119.5 49.5t-49.5 119.5v283zM767 -156q-99 45 -152 126q-45 -77 -156 -120q-96 40 -156 120q-26 -44 -72.5 -81t-79.5 -45l-91 115
q153 95 153 262h179q0 -137 67 -182q28 22 47.5 75t19.5 107h179q-2 -82 39.5 -153.5t113.5 -108.5z" />
    <glyph glyph-name="uniB11D" unicode="&#xb11d;" horiz-adv-x="846" 
d="M60 716h188v-296q77 -4 187.5 -0.5t151.5 23.5v59h-194v148h194v86h189v-520h-150q149 -62 149 -174q0 -66 -50 -114.5t-125 -70t-162.5 -21.5t-162.5 21.5t-125 70t-50 114.5q0 59 36 102t92 65t122 31.5t128 5.5t109 -18v65q-54 -13 -80 -16.5t-91 -4.5t-187 1
q-70 0 -119.5 50t-49.5 120v273zM298 42q0 -38 70 -53t140 0.5t70 52.5t-70 52t-140 0t-70 -52z" />
    <glyph glyph-name="uniB123" unicode="&#xb123;" horiz-adv-x="846" 
d="M60 717h188v-263q51 1 119.5 -0.5t137 4t83.5 19.5v49h-194v134h194v76h189v-448h-189v44q-24 -9 -43.5 -13t-56.5 -6.5t-95.5 -2t-162.5 0.5q-70 0 -119.5 50t-49.5 120zM111 13q0 47 56 88h-56v129h238v52h188v-52h239v-129h-56q56 -40 56 -88q0 -56 -49.5 -97.5
t-123 -60t-160 -18.5t-160 18.5t-123 60t-49.5 97.5zM308 13q0 -32 67.5 -45t135 0t67.5 45t-67.5 45t-135 0t-67.5 -45z" />
    <glyph glyph-name="uniB124" unicode="&#xb124;" horiz-adv-x="876" 
d="M633 -137v874h163v-874h-163zM60 718h178v-611q51 0 73.5 0.5t63.5 7.5t60 22v223h-122v148h122v229h162v-874h-162v118q-32 -15 -76 -19t-130 -4q-70 0 -119.5 50t-49.5 120v590z" />
    <glyph glyph-name="uniB125" unicode="&#xb125;" horiz-adv-x="885" 
d="M649 245v492h156v-492h-156zM60 718h178v-316q38 0 74.5 -1t77.5 4.5t66 18.5v69h-123v148h123v96h157v-492h-157v29q-36 -15 -80 -18t-147 -2q-70 0 -119.5 49.5t-49.5 119.5v295zM618 -137v201h-518v148h705v-349h-187z" />
    <glyph glyph-name="uniB128" unicode="&#xb128;" horiz-adv-x="885" 
d="M648 112v625h158v-625h-158zM60 727h178v-373q56 -3 117 -0.5t100 21.5v118h-122v148h122v96h157v-626l-157 1v115q-46 -17 -69 -19t-157 -1q-70 0 -119.5 50t-49.5 120v350zM120 164h188v-153h507v-148h-526q-70 0 -119.5 50t-49.5 120v131z" />
    <glyph glyph-name="uniB12C" unicode="&#xb12c;" horiz-adv-x="885" 
d="M650 288v449h157v-449h-157zM61 718h178v-273q36 0 70.5 -1t75.5 4.5t72 18.5v50h-122v143h122v77h157v-449h-157v29q-31 -10 -62.5 -14.5t-70 -5t-95.5 0.5q-70 0 -119.5 49.5t-49.5 119.5zM142 116h477v29h-477v110h665v-244h-477v-29h487v-119h-506q-70 0 -120 50
t-49 120v83z" />
    <glyph glyph-name="uniB137" unicode="&#xb137;" horiz-adv-x="885" 
d="M649 207v529h156v-529h-156zM60 717h178v-287q44 -4 111 -1t107 23v60h-123v148h123v76h157v-463h-157v29q-51 -14 -99 -16t-128 0q-71 0 -120 48t-49 118v265zM735 -157q-79 23 -158.5 71.5t-124.5 106.5q-116 -125 -283 -178l-68 132q54 21 113.5 61.5t104.5 97.5
t40 106h187q3 -43 22 -81.5t45 -66t61.5 -51.5t66 -39t63.5 -27z" />
    <glyph glyph-name="uniB138" unicode="&#xb138;" horiz-adv-x="885" 
d="M660 254v482h158v-482h-158zM73 717h177v-306q44 -4 116.5 -1t101.5 23v79h-122v148h122v76h157v-482h-157v29q-32 -10 -62 -13.5t-68 -3.5t-96 1q-71 0 -120 48t-49 118v284zM767 -156q-49 22 -91.5 55.5t-60.5 70.5q-53 -88 -156 -120q-96 40 -156 120q-16 -37 -73 -80
t-79 -46l-91 115q153 99 153 262h179q0 -137 67 -182q26 19 46 66.5t21 115.5h179q-2 -82 39.5 -153.5t113.5 -108.5z" />
    <glyph glyph-name="uniB140" unicode="&#xb140;" horiz-adv-x="856" 
d="M60 718h188v-611q65 1 121.5 -0.5t116 5t101.5 23.5v110h-213v148h213v91h-213v148h213v105h189v-874h-189v119q-40 -14 -73.5 -18.5t-100 -5t-184.5 0.5q-70 0 -119.5 49.5t-49.5 119.5v590z" />
    <glyph glyph-name="uniB141" unicode="&#xb141;" horiz-adv-x="846" 
d="M60 718h188v-325q103 -2 205.5 0t124.5 22v21h-183v114h183v34h-183v114h183v39h189v-501h-189v29q-33 -13 -60.5 -16.5t-94.5 -4t-193 0.5q-70 0 -119.5 49.5t-49.5 119.5zM578 -137v191h-477v148h666v-339h-189z" />
    <glyph glyph-name="uniB144" unicode="&#xb144;" horiz-adv-x="846" 
d="M60 718h187v-325q121 -3 215.5 0t114.5 22v12h-183v119h183v33h-183v119h183v39h189v-606h-189v134q-67 -18 -89 -19.5t-259 -0.5q-70 0 -119.5 50t-49.5 120v303zM120 183h188v-172h467v-148h-486q-70 0 -119.5 50t-49.5 120v150z" />
    <glyph glyph-name="uniB150" unicode="&#xb150;" horiz-adv-x="846" 
d="M60 718h188v-296q65 -3 182.5 -0.5t157.5 20.5v13h-193v110h193v33h-193v110h193v29h188v-463h-188v29q-34 -12 -60.5 -15.5t-96 -4.5t-201.5 0q-70 0 -119.5 50t-49.5 120zM121 235h655v-372h-486q-70 0 -120 50t-49 120v202zM588 95h-279v-89h279v89z" />
    <glyph glyph-name="uniB154" unicode="&#xb154;" horiz-adv-x="846" 
d="M85 717h188v-305q56 -4 174.5 -0.5t155.5 23.5v14h-193v110h193v33h-193v110h193v34h187v-482h-188v30q-32 -16 -80 -18.5t-268 -1.5q-70 0 -119.5 49.5t-49.5 119.5v284zM767 -156q-96 44 -152 126q-26 -42 -68 -74t-88 -46q-51 21 -88.5 47.5t-67.5 72.5
q-43 -74 -152 -126l-91 115q75 45 114 113t39 149h179q0 -137 67 -182q27 20 48 69.5t19 112.5h179q-2 -87 37 -155t116 -107z" />
    <glyph glyph-name="uniB155" unicode="&#xb155;" horiz-adv-x="846" 
d="M60 716h188v-306q61 0 118 -1t119 4.5t102 19.5v17h-193v109h193v34h-193v110h193v33h188v-520h-146q146 -61 146 -174q0 -66 -50 -114.5t-125 -70t-162.5 -21.5t-162.5 21.5t-125 70t-50 114.5q0 73 54 122t133 65.5t159 16t141 -16.5v64q-27 -13 -55.5 -16.5t-99.5 -4
t-203 0.5q-70 0 -119.5 50t-49.5 120v273zM298 42q0 -37 70 -52.5t140 0t70 52.5t-70 52t-140 0t-70 -52z" />
    <glyph glyph-name="uniB158" unicode="&#xb158;" horiz-adv-x="846" 
d="M60 718h188v-306q60 -4 184.5 -0.5t155.5 23.5v20h-193v110h193v33h-193v110h193v29h188v-473h-188v31q-25 -13 -51 -17t-97.5 -4.5t-209.5 0.5q-70 0 -119.5 49.5t-49.5 119.5zM588 -137v61h-447v135h447v33h-478v139h666v-368h-188z" />
    <glyph glyph-name="uniB15C" unicode="&#xb15c;" horiz-adv-x="876" 
d="M633 -137v874h163v-874h-163zM60 718h178v-611q23 -1 52.5 -0.5t56.5 2t51.5 9t36.5 19.5v108h-122v148h122v81h-122v148h122v115h162v-874h-162v118q-28 -16 -71.5 -20t-134.5 -3q-70 0 -119.5 50t-49.5 120v590z" />
    <glyph glyph-name="uniB178" unicode="&#xb178;" 
d="M81 737h187v-324h477v-148h-495q-70 0 -119.5 49t-49.5 119v304zM40 -117v148h279v152h188v-152h279v-148h-746z" />
    <glyph glyph-name="uniB179" unicode="&#xb179;" 
d="M81 737h187v-163h477v-147h-236v-48h277v-148h-746v148h280v48h-70q-70 0 -119.5 49.5t-49.5 119.5v141zM558 -137v177h-477v148h664v-325h-187z" />
    <glyph glyph-name="uniB17C" unicode="&#xb17c;" 
d="M81 727h187v-186h477v-148h-236v-63h277v-148h-746v148h280v63h-70q-70 0 -119.5 50t-49.5 120v164zM91 139h188v-139h478v-137h-497q-70 0 -119.5 50t-49.5 120v106z" />
    <glyph glyph-name="uniB180" unicode="&#xb180;" 
d="M81 737h187v-134h477v-138h-236v-43h277v-139h-746v139h280v43h-70q-70 0 -119.5 49.5t-49.5 119.5v103zM81 116h466v29h-466v105h654v-239h-467v-29h477v-119h-495q-70 0 -119.5 50t-49.5 120v83z" />
    <glyph glyph-name="uniB188" unicode="&#xb188;" 
d="M81 737h187v-153h477v-148h-236v-43h277v-138h-746v138h280v43h-70q-70 0 -119.5 50t-49.5 120v131zM81 216h664v-353h-495q-70 0 -119.5 50t-49.5 120v183zM558 76h-290v-70h290v70z" />
    <glyph glyph-name="uniB189" unicode="&#xb189;" 
d="M81 737h187v-153h477v-138h-236v-43h277v-139h-746v139h280v43h-70q-70 0 -119.5 49t-49.5 119v123zM81 231h187v-48h290v48h187v-368h-495q-70 0 -119.5 50t-49.5 120v198zM558 50h-290v-48h290v48z" />
    <glyph glyph-name="uniB18B" unicode="&#xb18b;" 
d="M71 736h177v-172h477v-138h-228v-43h269v-148h-726v148h269v43h-69q-70 0 -119.5 50t-49.5 120v140zM695 -156q-70 15 -150.5 57t-130.5 91l-3 3q-7 9 -12 3q-53 -51 -134.5 -94.5t-153.5 -59.5l-60 142q40 11 81 29.5t81 45t67.5 63.5t32.5 78h180q11 -77 91 -134
t171 -82z" />
    <glyph glyph-name="uniB18D" unicode="&#xb18d;" 
d="M81 736h187v-181h477v-139h-236v-43h277v-138h-746v138h280v43h-70q-70 0 -119.5 49.5t-49.5 119.5v151zM70 22q0 60 50.5 104t127 64t165 20t165 -19.5t127 -64t50.5 -104.5t-50.5 -104t-127 -64t-165 -20t-165 20t-127 64t-50.5 104zM268 22q0 -29 72 -41t144.5 0
t72.5 41q0 30 -72.5 41.5t-144.5 -1t-72 -40.5z" />
    <glyph glyph-name="uniB192" unicode="&#xb192;" 
d="M81 737h187v-153h477v-138h-236v-43h277v-139h-746v139h280v43h-70q-70 0 -119.5 49t-49.5 119v123zM82 -137v139h101v86h-91v138h643v-138h-90v-86h100v-139h-663zM466 88h-105v-86h105v86z" />
    <glyph glyph-name="uniB193" unicode="&#xb193;" 
d="M81 736h187v-134h477v-128h-236v-44h277v-128h-746v128h280v44h-70q-70 0 -119.5 49.5t-49.5 119.5v93zM81 13q0 50 60 88h-60v124h238v53h188v-53h238v-124h-59q59 -38 59 -88q0 -56 -49 -97.5t-123 -60t-160 -18.5t-160 18.5t-123 60t-49 97.5zM278 13q0 -32 67 -45
t134.5 0t67.5 45t-67.5 45t-134.5 0t-67 -45z" />
    <glyph glyph-name="uniB194" unicode="&#xb194;" horiz-adv-x="888" 
d="M62 727h187v-305h294v-148h-313q-70 0 -120 49.5t-49 119.5zM776 322v-459h-187v122q-25 -20 -83.5 -27.5t-173 -8t-302.5 -0.5v147h174v125h178v-125q38 1 76.5 0t76.5 9t54 33v599h187v-268h92v-147h-92z" />
    <glyph glyph-name="uniB1A8" unicode="&#xb1a8;" horiz-adv-x="858" 
d="M61 727h178v-134h265v-138h-123v-62q136 -4 167 26v317h188v-153h81v-147h-81v-191h-188v38q-51 -25 -173.5 -28t-344.5 -1v139h172v62h-39q-42 0 -71.5 29.5t-30.5 72.5v170zM741 -156q-35 16 -84 53.5t-65 75.5q-24 -41 -67 -74t-92 -49q-116 46 -154 123
q-16 -36 -70 -80t-84 -49l-91 115q72 33 112.5 106t40.5 156h179q-1 -54 14 -106t47 -72l6 -1q23 5 47 54.5t21 124.5h178q-2 -82 39.5 -153.5t113.5 -108.5z" />
    <glyph glyph-name="uniB1CC" unicode="&#xb1cc;" horiz-adv-x="856" 
d="M61 727h187v-305h295v-148h-313q-70 0 -120 49.5t-49 119.5v284zM588 -137v122q-29 -20 -83.5 -27.5t-168 -8t-306.5 -0.5v147h174v125h177v-125q62 1 100 1.5t62 9t45 31.5v599h188v-874h-188z" />
    <glyph glyph-name="uniB1E8" unicode="&#xb1e8;" 
d="M82 737h187v-324h477v-148h-495q-70 0 -119.5 49t-49.5 119v304zM40 -117v148h133v152h188v-152h106v152h188v-152h131v-148h-746z" />
    <glyph glyph-name="uniB1FD" unicode="&#xb1fd;" 
d="M81 736h187v-172h477v-138h-91v-43h132v-138h-746v138h132v43q-39 0 -65 27t-26 66v217zM70 28q0 61 50.5 106t127 65t165 20t165 -20t127 -65t50.5 -107t-50.5 -107t-127 -65t-165 -20t-165 20.5t-127 66t-50.5 106.5zM268 28q0 -30 72 -42t144.5 0.5t72.5 40.5
q0 29 -72.5 40.5t-144.5 -0.5t-72 -39zM466 426h-106v-43h106v43z" />
    <glyph glyph-name="uniB204" unicode="&#xb204;" 
d="M81 737h177v-234h487v-148h-495q-70 0 -119.5 50t-49.5 120v212zM508 140v-277h-188v277h-280v148h746v-148h-278z" />
    <glyph glyph-name="uniB205" unicode="&#xb205;" 
d="M81 737h187v-163h477v-147h-529q-56 0 -95.5 39.5t-39.5 95.5v175zM507 236v-48h238v-325h-187v177h-477v148h238v48h-279v147h746v-147h-279z" />
    <glyph glyph-name="uniB208" unicode="&#xb208;" 
d="M81 727h187v-182h477v-147h-529q-56 0 -95.5 39.5t-39.5 95.5v194zM563 197v-95h-188v95h-335v148h746v-148h-223zM91 154h188v-143h477v-148h-495q-70 0 -119.5 49.5t-49.5 119.5z" />
    <glyph glyph-name="uniB20C" unicode="&#xb20c;" 
d="M81 736h187v-130h477v-138h-529q-56 0 -95.5 39t-39.5 95v134zM81 116h466v29h-466v110h3h4h4h3h4h3h4h3h4h3h4h3h4h3h4h3h4h4h3h4h3h4h3h4h4h3h4h3h4h4h3h4h4h3h4h4h3h4h4h3h4h4h4h4h3h4h4h4h4h4h3h4h4h4h4h5h4h4h4h5h4h5h6v41h-279v134h746v-134h-278v-41h227v-244
h-467v-30h477v-118h-495q-70 0 -119.5 49.5t-49.5 119.5v84z" />
    <glyph glyph-name="uniB214" unicode="&#xb214;" 
d="M81 737h187v-153h477v-143h-529q-56 0 -95.5 39t-39.5 95v162zM81 209h238v51h-279v138h746v-138h-279v-51h238v-346h-495q-70 0 -119.5 49.5t-49.5 119.5v177zM558 73h-290v-67h290v67z" />
    <glyph glyph-name="uniB215" unicode="&#xb215;" 
d="M81 737h187v-149h477v-138h-529q-56 0 -95.5 39t-39.5 95v153zM507 271v-48h-188v48h-279v138h746v-138h-279zM81 230h187v-47h290v47h187v-367h-495q-70 0 -119.5 49.5t-49.5 119.5v198zM558 50h-290v-48h290v48z" />
    <glyph glyph-name="uniB217" unicode="&#xb217;" 
d="M71 736h177v-153h477v-138h-519q-56 0 -95.5 39.5t-39.5 95.5v156zM497 272v-47h-188v47h-269v140h726v-140h-269zM695 -156q-73 16 -160 61.5t-132 97.5q-97 -99 -292 -159l-60 142q56 15 109 41t99 73t54 102h180q6 -42 33.5 -79.5t67.5 -63.5t80 -44t81 -29z" />
    <glyph glyph-name="uniB219" unicode="&#xb219;" 
d="M83 736h186v-178h481v-138h-532q-56 0 -95.5 39.5t-39.5 95.5v181zM509 248v-48q101 -12 174.5 -60.5t73.5 -112.5q0 -62 -50.5 -107t-127 -65t-165 -20t-165 20.5t-127 66t-50.5 106.5q0 66 72 110t177 60v50h-281v139h747v-139h-278zM272 28q0 -30 72 -42t144.5 0.5
t72.5 40.5q0 29 -72.5 40.5t-144.5 -0.5t-72 -39z" />
    <glyph glyph-name="uniB220" unicode="&#xb220;" horiz-adv-x="856" 
d="M71 726h177v-199h295v-139h-337q-56 0 -95.5 39.5t-39.5 95.5v203zM588 -137v163h-142v128h142v65q-50 -23 -228 -22v-334h-178v334h-152v138q188 -2 330 -0.5t228 18.5v384h188v-874h-188z" />
    <glyph glyph-name="uniB230" unicode="&#xb230;" horiz-adv-x="856" 
 />
    <glyph glyph-name="uniB234" unicode="&#xb234;" horiz-adv-x="856" 
d="M70 727h178v-115h274v-129h-343q-45 0 -76.5 32t-31.5 76zM567 197v19h-131v81h131v45q-29 -12 -75.5 -17.5t-81 -4t-61.5 0.5v-114h-167v114h-152v119q12 0 97 -0.5t136 0t124 1.5t118.5 4.5t61.5 9.5v281h188v-539h-188zM747 -156q-31 12 -84.5 53t-66.5 76
q-34 -49 -70.5 -77.5t-92.5 -46.5q-31 10 -83 48.5t-69 74.5q-48 -79 -152 -129l-90 116q127 72 153 214h174q2 -36 20 -75.5t45 -58.5q10 -7 25 14.5t28 56t17 63.5h174q29 -145 157 -214z" />
    <glyph glyph-name="uniB23C" unicode="&#xb23c;" horiz-adv-x="876" 
d="M649 -137v874h147v-874h-147zM70 727h178v-181h173v-138h-215q-56 0 -95.5 39.5t-39.5 95.5zM467 -137v172h-112v129h112v71q-21 -10 -68 -15t-90 -3v-354h-157v354h-122v138q19 -3 221.5 -0.5t215.5 18.5v364h146v-874h-146z" />
    <glyph glyph-name="uniB258" unicode="&#xb258;" horiz-adv-x="856" 
d="M71 726h187v-228h285v-138h-337q-56 0 -95.5 39t-39.5 95v232zM588 -137v314q-56 -19 -119 -22t-89 0v-292h-177v292h-173v138h159.5t264.5 3.5t134 14.5v426h188v-874h-188z" />
    <glyph glyph-name="uniB25C" unicode="&#xb25c;" horiz-adv-x="856" 
d="M71 727h177v-162h274v-138h-343q-45 0 -76.5 32t-31.5 76v192zM568 54v211q-45 -19 -107 -21v-162h-167v163h-264v148q78 0 185 -0.5t217 3.5t136 13v328h188v-683h-188zM71 192h177v-181h518v-148h-525q-70 0 -119.5 49.5t-49.5 119.5z" />
    <glyph glyph-name="uniB268" unicode="&#xb268;" horiz-adv-x="856" 
d="M71 727h166v-124h306v-129h-337q-56 0 -95.5 39.5t-39.5 95.5v118zM588 235v88q-42 -17 -120.5 -20.5t-90.5 0.5v-58h-167v58h-180v128q78 1 189.5 -0.5t226.5 4t142 19.5v283h188v-502h-188zM111 207h665v-344h-495q-70 0 -119.5 49.5t-49.5 119.5zM588 76h-289v-79h289
v79z" />
    <glyph glyph-name="uniB274" unicode="&#xb274;" 
d="M81 737h177v-229h487v-148h-498q-70 0 -118 49t-48 119v209zM664 150v-287h-188v287h-126v-287h-188v287h-122v147h746v-147h-122z" />
    <glyph glyph-name="uniB284" unicode="&#xb284;" 
d="M81 737h187v-153h477v-143h-529q-56 0 -95.5 39t-39.5 95v162zM81 214h91v48h-132v139h746v-139h-132v-48h91v-351h-495q-70 0 -119.5 49.5t-49.5 119.5v182zM466 262h-106v-48h106v48zM558 76h-290v-70h290v70z" />
    <glyph glyph-name="uniB289" unicode="&#xb289;" 
d="M81 736h187v-178h477v-138h-529q-56 0 -95.5 39.5t-39.5 95.5v181zM663 244v-53h-77l-2 -4q78 -20 124.5 -65.5t46.5 -94.5q0 -62 -50.5 -107t-127 -65t-165 -20t-165 20.5t-127 66t-50.5 106.5q0 42 47.5 92t144.5 71h-102v53h-120v138h746v-138h-123zM475 244h-127v-38
q62 10 127 0v38zM269 21q0 -30 72.5 -41.5t145 2t72.5 42.5q0 30 -72.5 41t-145 -2t-72.5 -42z" />
    <glyph glyph-name="uniB290" unicode="&#xb290;" 
d="M81 737h187v-324h477v-148h-497q-70 0 -118.5 49t-48.5 119v304zM40 -117v148h746v-148h-746z" />
    <glyph glyph-name="uniB291" unicode="&#xb291;" 
d="M81 737h187v-163h477v-147h-529q-56 0 -95.5 39.5t-39.5 95.5v175zM40 236v147h746v-147h-746zM558 -137v182h-477v147h664v-329h-187z" />
    <glyph glyph-name="uniB294" unicode="&#xb294;" 
d="M81 727h187v-182h477v-147h-529q-56 0 -95.5 39.5t-39.5 95.5v194zM40 188v147h746v-147h-746zM91 145h188v-134h477v-148h-495q-70 0 -119.5 49.5t-49.5 119.5z" />
    <glyph glyph-name="uniB298" unicode="&#xb298;" 
d="M81 736h187v-129h477v-138h-529q-56 0 -95.5 39.5t-39.5 95.5v132zM40 297v132h746v-132h-746zM81 116h466v30h-466v109h654v-243h-467v-30h477v-119h-495q-70 0 -119.5 49.5t-49.5 119.5v84z" />
    <glyph glyph-name="uniB299" unicode="&#xb299;" 
d="M81 737h187v-144h477v-138h-529q-56 0 -95.5 40t-39.5 96v146zM40 288v134h746v-134h-746zM569 -137v253h-133v139h309v-392h-176zM81 116h142v29h-142v110h319v-244h-142v-29h152v-119h-160q-70 0 -119.5 49.5t-49.5 119.5v84z" />
    <glyph glyph-name="uniB2A0" unicode="&#xb2a0;" 
d="M81 737h187v-153h477v-143h-529q-56 0 -95.5 39t-39.5 95v162zM40 255v138h746v-138h-746zM81 207h664v-344h-495q-70 0 -119.5 49.5t-49.5 119.5v175zM558 71h-290v-65h290v65z" />
    <glyph glyph-name="uniB2A5" unicode="&#xb2a5;" 
d="M40 245v139h746v-139h-746zM70 29q0 61 50.5 106t127 65t165 20t165 -20t127 -65t50.5 -107q0 -61 -50.5 -106.5t-127 -65.5t-165 -20t-165 20.5t-127 65.5t-50.5 107zM268 29q0 -30 72 -42t144.5 0t72.5 41t-72.5 40.5t-144.5 0t-72 -39.5zM91 736h187v-172h467v-138
h-519q-56 0 -95.5 40t-39.5 96v174z" />
    <glyph glyph-name="uniB2A6" unicode="&#xb2a6;" 
d="M71 736h177v-143h487v-138h-529q-56 0 -95.5 39t-39.5 95v147zM40 283v138h726v-138h-726zM707 -156q-85 17 -169 60t-136 99q-67 -60 -124.5 -92t-178.5 -67l-47 148q46 12 125.5 55.5t82.5 73.5h-189v128h664v-128h-192q3 -30 85 -74t128 -57z" />
    <glyph glyph-name="uniB2AA" unicode="&#xb2aa;" 
d="M81 737h187v-163h477v-138h-529q-56 0 -95.5 39t-39.5 95v167zM40 264v139h746v-139h-746zM82 -137v139h101v90h-91v139h643v-139h-90v-90h100v-139h-663zM466 92h-105v-90h105v90z" />
    <glyph glyph-name="uniB2AC" unicode="&#xb2ac;" horiz-adv-x="856" 
d="M60 727h188v-305h274v-148h-292q-70 0 -119.5 49.5t-49.5 119.5zM588 -137v122q-53 -36 -194 -36h-364v147h419q48 0 81 8t58 35v598h188v-874h-188z" />
    <glyph glyph-name="uniB2C8" unicode="&#xb2c8;" horiz-adv-x="856" 
d="M60 718h188v-611h101h64t56 2t55.5 8t63.5 18v602h188v-874h-188v119q-19 -9 -48 -14.5t-63 -7t-57.5 -2t-55 0t-32.5 0.5h-102q-70 0 -119.5 49.5t-49.5 119.5z" />
    <glyph glyph-name="uniB2C9" unicode="&#xb2c9;" horiz-adv-x="846" 
d="M60 717h188v-296h110q37 1 76 -0.5t81 4t63 19.5v293h188v-482h-188v39q-49 -20 -241 -20h-107q-70 0 -119.5 49.5t-49.5 119.5zM578 -137v201h-477v148h665v-349h-188z" />
    <glyph glyph-name="uniB2CC" unicode="&#xb2cc;" horiz-adv-x="846" 
d="M60 717h188v-312h130q34 0 64 -0.5t67 5t69 18.5v309h188v-625h-188v166q-26 -11 -75 -16t-85.5 -3.5t-60.5 0.5h-127q-70 0 -119.5 49.5t-49.5 119.5zM121 183h188v-172h467v-148h-485q-70 0 -119.5 49.5t-49.5 119.5z" />
    <glyph glyph-name="uniB2D0" unicode="&#xb2d0;" horiz-adv-x="846" 
d="M60 717h188v-258h130q42 -4 107 -0.5t103 23.5v255h188v-439h-188v34q-44 -20 -231 -20h-127q-70 0 -119.5 49.5t-49.5 119.5zM121 121h467v29h-467v109h655v-248h-467v-29h477v-119h-496q-70 0 -120 49.5t-49 119.5v89z" />
    <glyph glyph-name="uniB2D2" unicode="&#xb2d2;" horiz-adv-x="846" 
d="M60 718h188v-258h129q36 1 73 0t76.5 4.5t61.5 18.5v254h188v-439h-188v35q-30 -12 -81.5 -17.5t-88.5 -4t-62 0.5h-126q-70 0 -119.5 49.5t-49.5 119.5zM456 -137v396h320v-396h-320zM111 121h132v29h-132v109h310v-248h-132v-29h132v-119h-141q-70 0 -120 49.5
t-49 119.5v89zM639 131h-46v-139h46v139z" />
    <glyph glyph-name="uniB2D8" unicode="&#xb2d8;" horiz-adv-x="846" 
d="M60 718h188v-282h129q9 0 39 -0.5t46 0t41 2.5t46 7.5t39 14.5v277h188v-463h-188v36q-19 -9 -45.5 -14.5t-55.5 -7t-50.5 -1.5t-48.5 0.5t-32 0.5h-126q-70 0 -119.5 49.5t-49.5 119.5zM121 235h655v-372h-485q-70 0 -119.5 49.5t-49.5 119.5zM588 92h-279v-81h279v81z
" />
    <glyph glyph-name="uniB2D9" unicode="&#xb2d9;" horiz-adv-x="846" 
d="M60 718h188v-282h129q44 -3 110.5 0t100.5 22v279h188v-463h-188v34q-32 -12 -81.5 -17t-85.5 -3.5t-65 0.5h-126q-70 0 -119.5 49.5t-49.5 119.5zM121 240h188v-48h279v48h188v-377h-485q-70 0 -119.5 49.5t-49.5 119.5zM588 59h-279v-57h279v57z" />
    <glyph glyph-name="uniB2DB" unicode="&#xb2db;" horiz-adv-x="846" 
d="M60 717h188v-296h110q38 0 76 -1t79 4.5t65 18.5v293h188v-549h-188v106q-27 -11 -80.5 -16t-93.5 -4t-67 0h-107q-70 0 -119.5 49.5t-49.5 119.5zM716 -157q-60 17 -147 64t-133 110h-5q-93 -111 -281 -174l-69 132q41 15 83 40t82 58.5t66 77.5t28 89h187
q4 -47 23.5 -87t44.5 -66.5t61.5 -50t64.5 -36t64 -25.5z" />
    <glyph glyph-name="uniB2DD" unicode="&#xb2dd;" horiz-adv-x="846" 
d="M60 716h188v-291h110q44 0 75 -0.5t70 4.5t85 18v289h188v-520h-149q149 -62 149 -174q0 -66 -50 -114.5t-125 -70t-162.5 -21.5t-162.5 21.5t-125 70t-50 114.5q0 59 36 102t92 65t122 31.5t128 5.5t109 -18v70q-59 -18 -148 -20.5t-103 0.5h-107q-70 0 -119.5 49.5
t-49.5 119.5zM299 42q0 -38 70 -53t140 0.5t70 52.5t-70 52t-140 0t-70 -52z" />
    <glyph glyph-name="uniB2E2" unicode="&#xb2e2;" horiz-adv-x="846" 
d="M60 717h188v-276h165h59.5t57 5t58.5 17v274h188v-458h-188v36q-40 -13 -84.5 -18.5t-72 -4t-53.5 0.5h-148q-70 0 -119.5 49.5t-49.5 119.5zM121 -137v148h102v81h-92v148h645v-148h-92v-81h102v-148h-665zM507 92h-107v-81h107v81z" />
    <glyph glyph-name="uniB2E4" unicode="&#xb2e4;" horiz-adv-x="867" 
d="M61 718h451v-148h-264v-463h87q30 -1 61 -0.5t58 2.5t57 10t57 22v596h188v-229h91v-148h-91v-497h-188v123q-64 -27 -194 -27h-145q-70 0 -119.5 49.5t-49.5 119.5z" />
    <glyph glyph-name="uniB2E5" unicode="&#xb2e5;" horiz-adv-x="868" 
d="M62 718h472v-148h-285v-167h164q117 0 166 27v307h188v-153h81v-148h-81v-191h-188v36q-30 -14 -66.5 -20.5t-61 -5.5t-45.5 0h-176q-71 0 -120.5 49t-48.5 119zM579 -137v201h-477v148h665v-349h-188z" />
    <glyph glyph-name="uniB2E6" unicode="&#xb2e6;" horiz-adv-x="868" 
d="M62 718h472v-148h-285v-139h179q24 1 44 0t49 6t58 23v277h188v-134h91v-148h-91v-181h-188v36q-33 -13 -70.5 -19.5t-62 -7t-83.5 -0.5h-133q-70 0 -120 49.5t-49 119.5zM588 -137v229h-131v148h310v-377h-179zM254 -137v229h-152v148h330v-377h-178z" />
    <glyph glyph-name="uniB2E8" unicode="&#xb2e8;" horiz-adv-x="868" 
d="M61 718h472v-148h-285v-177l199 -1q74 0 131 28v317h188v-182h91v-147h-91v-296h-188v157q-60 -25 -105 -25q-57 0 -122 0.5t-122 0.5q-70 0 -119.5 49.5t-49.5 119.5zM121 192h188v-181h467v-148h-485q-70 0 -119.5 49.5t-49.5 119.5z" />
    <glyph glyph-name="uniB2EB" unicode="&#xb2eb;" horiz-adv-x="868" 
d="M62 718h472v-148h-285v-139h172q23 1 47.5 0t55.5 6t55 23v277h188v-124h91v-148h-91v-191h-188v34q-21 -14 -60 -20.5t-68.5 -5t-50.5 0.5h-170q-70 0 -120 49.5t-49 119.5zM102 240h665v-148h-487v-81h497v-148h-506q-71 0 -120.5 49.5t-48.5 119.5v208z" />
    <glyph glyph-name="uniB2EC" unicode="&#xb2ec;" horiz-adv-x="868" 
d="M62 718h472v-148h-285v-120h137h36t39 1.5t40.5 4.5t40 10.5t37.5 18.5v252h188v-125h91v-148h-91v-172h-188v37q-40 -26 -167 -26h-182q-70 0 -120 49.5t-49 119.5zM102 116h477v29h-477v114h665v-248h-477v-29h487v-119h-506q-71 0 -120.5 49.5t-48.5 119.5v84z" />
    <glyph glyph-name="uniB2ED" unicode="&#xb2ed;" horiz-adv-x="868" 
d="M62 718h472v-148h-285v-120h136q43 0 66.5 1t63.5 9t64 25v252h188v-125h90v-148h-90v-171h-188v36q-48 -26 -168 -26h-181q-70 0 -120 49.5t-49 119.5zM589 -137v249h-132v147h310v-396h-178zM102 116h140v29h-140v114h320v-248h-152v-29h162v-119h-161
q-71 0 -120.5 49.5t-48.5 119.5v84z" />
    <glyph glyph-name="uniB2EE" unicode="&#xb2ee;" horiz-adv-x="868" 
d="M62 718h472v-148h-285v-120h137q138 0 193 35v252h188v-125h91v-148h-91v-172h-188v37q-49 -26 -167 -26h-182q-70 0 -120 49.5t-49 119.5zM447 -137v396h320v-396h-320zM92 116h142v29h-142v114h320v-248h-142v-29h142v-119h-151q-71 0 -120.5 49.5t-48.5 119.5v84z
M627 131h-38v-139h38v139z" />
    <glyph glyph-name="uniB2EF" unicode="&#xb2ef;" horiz-adv-x="868" 
d="M62 718h472v-148h-285v-120h137q138 0 193 35v252h188v-125h91v-148h-91v-172h-188v37q-48 -26 -167 -26h-182q-70 0 -120 49.5t-49 119.5zM447 -137v396h137v-57h44v57h139v-396h-320zM92 116h142v29h-142v114h320v-248h-142v-29h142v-119h-151q-71 0 -120.5 49.5
t-48.5 119.5v84zM630 73h-46v-81h46v81z" />
    <glyph glyph-name="uniB2F3" unicode="&#xb2f3;" horiz-adv-x="868" 
d="M62 717h472v-148h-285v-114h137q35 0 65 -0.5t64.5 6t63.5 21.5v254h188v-125h91v-148h-91v-166h-188v36q-25 -14 -59 -20t-59.5 -5t-48.5 0h-182q-70 0 -120 49.5t-49 119.5zM607 -166q-53 0 -94.5 28t-60.5 69t-15 90.5t34 89.5h-34v119h81v44h178v-44h81v-119h-33
q31 -41 34.5 -90.5t-15.5 -90.5t-60.5 -68.5t-95.5 -27.5zM92 115h142v29h-142v115h315v-248h-137v-29h147v-119h-156q-71 0 -120.5 49.5t-48.5 119.5v83zM607 84q-20 0 -29 -30t-1 -60.5t29 -30.5q23 0 32 30.5t0 60.5t-31 30z" />
    <glyph glyph-name="uniB2F4" unicode="&#xb2f4;" horiz-adv-x="868" 
d="M62 718h472v-148h-285v-120h137q138 0 193 35v252h188v-124h91v-148h-91v-172h-188v36q-36 -26 -167 -26h-182q-70 0 -120 49.5t-49 119.5zM102 255h665v-392h-496q-71 0 -120.5 49.5t-48.5 119.5v223zM579 112h-289v-104h289v104z" />
    <glyph glyph-name="uniB2F5" unicode="&#xb2f5;" horiz-adv-x="868" 
d="M62 718h472v-148h-285v-120h137q138 0 193 35v252h188v-124h91v-148h-91v-172h-188v36q-45 -26 -167 -26h-182q-70 0 -120 49.5t-49 119.5zM102 258l188 1v-47h289v47l188 -1v-395h-496q-71 0 -120.5 49.5t-48.5 119.5v226zM580 72h-290v-61h290v61z" />
    <glyph glyph-name="uniB2F7" unicode="&#xb2f7;" horiz-adv-x="868" 
d="M62 717h472v-148h-285v-148h137q138 0 193 35v280h188v-125h91v-148h-91v-276h-188v113q-41 -27 -167 -27h-182q-70 0 -120 49.5t-49 119.5zM719 -157q-60 17 -148 64t-134 110h-5q-38 -46 -101 -86.5t-103 -58t-76 -29.5l-69 135q41 15 84 40t83.5 59t65 77t20.5 86h197
q-2 -46 23 -90.5t66 -77.5t83 -56.5t83 -37.5z" />
    <glyph glyph-name="uniB2F9" unicode="&#xb2f9;" horiz-adv-x="868" 
d="M62 727h472v-148h-285v-163h137q138 0 193 35v295h188v-125h91v-148h-91v-267h-128q138 -62 138 -169q0 -65 -50 -112.5t-125 -68.5t-162.5 -21t-162.5 21.5t-125 68.5t-50 112q0 58 35.5 100.5t89.5 63.5t119.5 30t125.5 6.5t107 -13.5v71q-47 -26 -167 -26h-182
q-70 0 -120 49.5t-49 119.5zM300 37q0 -35 70 -49.5t140 0t70 49.5t-70 49.5t-140 0t-70 -49.5z" />
    <glyph glyph-name="uniB2FB" unicode="&#xb2fb;" horiz-adv-x="868" 
d="M62 717h472v-148h-285v-119h137q139 0 193 34v252h188v-115h91v-148h-91v-181h-188v37q-30 -15 -69.5 -22t-62 -5.5t-35.5 0.5h-182q-71 0 -120.5 49t-48.5 119zM714 -156q-76 15 -158.5 61.5t-121.5 103.5q-48 -59 -128 -101.5t-151 -63.5l-71 135q161 54 178 103h-160
v139h240v57h188v-57h237v-139h-161q11 -22 52 -46.5t72.5 -37.5t54.5 -20z" />
    <glyph glyph-name="uniB2FF" unicode="&#xb2ff;" horiz-adv-x="868" 
d="M62 717h472v-148h-285v-119h137q139 0 193 34v252h188v-116h91v-147h-91v-186h-188v46q-49 -26 -167 -26h-182q-71 0 -120.5 49t-48.5 119zM102 13q0 46 66 88h-66v124h239v57h188v-57h238v-124h-66q66 -41 66 -88q0 -56 -49.5 -98t-123 -60.5t-160 -18.5t-160 18.5
t-123 60t-49.5 98.5zM299 13q0 -32 67.5 -45t135 0t67.5 45t-67.5 45t-135 0t-67.5 -45z" />
    <glyph glyph-name="uniB300" unicode="&#xb300;" horiz-adv-x="866" 
d="M60 718h320v-148h-142v-463h58q76 0 130 27v603h162v-268h35v268h163v-874h-163v459h-35v-459h-162v115q-28 -11 -63 -15.5t-56 -3.5t-37 0h-40q-70 0 -119.5 49.5t-49.5 119.5z" />
    <glyph glyph-name="uniB301" unicode="&#xb301;" horiz-adv-x="867" 
d="M60 718h350v-140h-172v-175h75q86 0 143 21v313h147v-134h36v134h148v-482h-148v200h-36v-200h-147v29q-27 -11 -59.5 -16t-53.5 -4t-37 0h-76q-70 0 -119.5 49.5t-49.5 119.5zM598 -137v210h-496v148h685v-358h-189z" />
    <glyph glyph-name="uniB304" unicode="&#xb304;" horiz-adv-x="867" 
d="M60 718h350v-139h-172v-196h75q20 1 46 0t55.5 5t41.5 18v331h147v-154h36v154h148v-625h-148v323h-36v-323h-147v153q-39 -18 -87.5 -20.5t-62.5 0.5h-110q-56 0 -95.5 39.5t-39.5 95.5zM121 192h188v-181h488v-148h-508q-70 0 -118.5 49.5t-48.5 119.5z" />
    <glyph glyph-name="uniB308" unicode="&#xb308;" horiz-adv-x="867" 
d="M60 718h350v-139h-172v-143h95q88 0 123 22v279h147v-115h36v115h148v-449h-148v186h-36v-186h-147v32q-27 -12 -59 -17.5t-52.5 -4.5t-38.5 0h-83q-67 0 -114.5 47.5t-48.5 115.5v257zM121 116h477v29h-477v110h666v-244h-483v-29h493v-119h-508q-70 0 -118.5 49.5
t-48.5 119.5z" />
    <glyph glyph-name="uniB310" unicode="&#xb310;" horiz-adv-x="867" 
d="M60 718h351v-148h-173v-148h114q83 4 104 21v294h147v-135h36v135h148v-463h-148v180h-36v-180h-147v27q-33 -18 -139 -18h-88q-70 0 -119.5 49.5t-49.5 119.5v266zM111 235h676v-372h-506q-70 0 -119.5 49.5t-49.5 119.5zM598 92h-299v-86h299v86z" />
    <glyph glyph-name="uniB311" unicode="&#xb311;" horiz-adv-x="867" 
d="M60 718h350v-148h-172v-148h66q128 -1 152 21v294h147v-134h36v134h147v-463h-147v181h-36v-181h-147v27q-21 -10 -51 -14.5t-51 -3.5t-37 0h-87q-70 0 -119.5 49.5t-49.5 119.5zM121 240h168v-48h329v48h168v-377h-495q-70 0 -119.5 49.5t-49.5 119.5zM618 54h-329v-52
h329v52z" />
    <glyph glyph-name="uniB313" unicode="&#xb313;" horiz-adv-x="867" 
d="M60 717h350v-148h-172v-157h66q17 1 44 0t61 4t47 17v303h147v-133h36v133h147v-529h-147v248h-36v-191h-147v27q-14 -6 -30 -10t-29.5 -5.5t-28 -2.5t-23.5 -1t-18 0.5t-10 0.5h-87q-70 0 -119.5 49.5t-49.5 119.5zM733 -157q-188 59 -277 174h-5q-35 -44 -79 -78.5
t-79.5 -50t-69.5 -29t-49 -16.5l-72 135q33 12 64 27.5t66 40t61 52t43.5 65t18.5 77.5h197q-2 -46 23 -90.5t66.5 -77.5t83 -56.5t82.5 -37.5z" />
    <glyph glyph-name="uniB314" unicode="&#xb314;" horiz-adv-x="867" 
d="M74 717h350v-148h-173v-167h67q16 1 38.5 0t56.5 4t57 17v313h147v-133h35v133h148v-482h-148v201h-35v-201h-147v27q-32 -17 -139 -17h-87q-70 0 -119.5 49.5t-49.5 119.5zM767 -156q-106 48 -149 129q-63 -86 -159 -123q-98 39 -154 123q-26 -37 -65 -69.5t-59.5 -44
t-29.5 -15.5l-91 115q153 97 153 262h179q0 -131 61 -178l6 -5l1 2q27 11 46.5 66.5t19.5 114.5h179q-2 -82 39.5 -153.5t113.5 -108.5z" />
    <glyph glyph-name="uniB315" unicode="&#xb315;" horiz-adv-x="867" 
d="M60 717h350v-148h-172v-162h66q123 0 152 18v311h147v-134h36v134h147v-520h-146q146 -61 146 -174q0 -66 -50 -114.5t-125 -70t-162.5 -21.5t-162.5 21.5t-125 70t-50 114.5q0 58 35.5 101t92 64.5t111 31.5t106.5 10v37q-53 -18 -139 -18h-87q-70 0 -119.5 49.5
t-49.5 119.5zM639 455h-36v-209h-4h-3h-4h-3h-4h-3h-4h-3h-4h-4h-3h-4h-3h-4h-4h-3h-4h-4h-4h-4h-3h-4h-4h-4h-9q73 -7 133 -30v239zM309 42q0 -38 70 -53.5t140 0t70 53.5t-70 53t-140 -0.5t-70 -52.5z" />
    <glyph glyph-name="uniB31C" unicode="&#xb31c;" horiz-adv-x="868" 
d="M61 718h451v-148h-264v-463h179q78 3 141 34v596h188v-153h91v-148h-91v-119h91v-148h-91v-306h-188v123q-78 -27 -194 -27h-145q-70 0 -119.5 49.5t-49.5 119.5z" />
    <glyph glyph-name="uniB354" unicode="&#xb354;" horiz-adv-x="836" 
d="M60 718h452v-148h-264v-463h179q76 3 141 34v181h-163v147l163 -1v269h188v-874h-188v123q-58 -27 -195 -27h-143q-70 0 -119.5 49.5t-49.5 119.5z" />
    <glyph glyph-name="uniB355" unicode="&#xb355;" horiz-adv-x="847" 
d="M61 718h401v-148h-213v-167h164h29.5t32 1t33.5 3.5t35 8t36 14.5v54h-81v148h81v105h188v-492h-188v36q-58 -26 -173 -26h-176q-71 0 -120.5 49t-48.5 119v295zM579 -137v201h-477v148h665v-349h-188z" />
    <glyph glyph-name="uniB358" unicode="&#xb358;" horiz-adv-x="847" 
d="M61 718h400v-148h-212v-177h218q57 0 111 27v64h-81v148h81v105h189v-625h-189v159q-45 -26 -132 -26h-216q-70 0 -120 49.5t-49 119.5v304zM101 202h188v-191h488v-148h-506q-70 0 -119.5 49.5t-49.5 119.5z" />
    <glyph glyph-name="uniB35C" unicode="&#xb35c;" horiz-adv-x="847" 
d="M61 718h400v-148h-212v-120h135h37t40.5 1.5t41.5 4.5t40 10.5t35 18.5v28h-81v147h81v77h189v-445h-189v37q-22 -11 -46.5 -17t-45 -7.5t-41 -2t-34.5 0.5h-181q-70 0 -120 49.5t-49 119.5v246zM101 116h477v29h-477v114h666v-248h-478v-29h488v-119h-506
q-70 0 -119 49.5t-50 119.5z" />
    <glyph glyph-name="uniB35F" unicode="&#xb35f;" horiz-adv-x="847" 
d="M60 718h400v-148h-212v-120h136q139 0 193 35v28h-81v147h81v77h188v-445h-188v36q-65 -25 -167 -25h-180q-70 0 -119.5 49.5t-49.5 119.5zM445 -137v396h137v-57h44v57h139v-396h-320zM90 116h142v29h-142v114h319v-248h-142v-29h142v-119h-148q-70 0 -119.5 49.5
t-50.5 119.5zM628 73h-46v-81h46v81z" />
    <glyph glyph-name="uniB364" unicode="&#xb364;" horiz-adv-x="847" 
d="M60 718h400v-148h-212v-120h136q140 0 193 35v28h-81v147h81v77h189v-445h-189v37q-50 -26 -167 -26h-180q-70 0 -119.5 49.5t-49.5 119.5zM101 259h664v-396h-495q-70 0 -119.5 49.5t-49.5 119.5v227zM577 112h-289v-101h289v101z" />
    <glyph glyph-name="uniB365" unicode="&#xb365;" horiz-adv-x="847" 
d="M60 718h400v-148h-212v-120h136q137 0 193 35v28h-81v147h81v77h189v-445h-189v37q-42 -26 -167 -26h-180q-70 0 -119.5 49.5t-49.5 119.5zM101 258l187 1v-54h289v54l189 -1v-395h-496q-70 0 -119.5 49.5t-49.5 119.5v226zM578 66h-290v-55h290v55z" />
    <glyph glyph-name="uniB367" unicode="&#xb367;" horiz-adv-x="847" 
d="M60 717h400v-148h-212v-148h135q138 0 194 35v56h-81v148h81v76h189v-549h-189v113q-54 -27 -167 -27h-181q-70 0 -119.5 49.5t-49.5 119.5v275zM712 -157q-164 49 -280 178q-54 -61 -116 -99t-163 -79l-75 135q38 17 75.5 39t84 57t73.5 78.5t22 87.5h198
q-6 -53 39 -110.5t104 -95.5t112 -56z" />
    <glyph glyph-name="uniB369" unicode="&#xb369;" horiz-adv-x="847" 
d="M60 717h401v-155h-213v-148h137q137 0 193 35v50h-81v147h81v90h188v-530h-144q144 -58 144 -169q0 -65 -50 -112.5t-125 -68.5t-162.5 -21t-162.5 21.5t-125 69t-50 111.5q0 59 36 101.5t91.5 63.5t122.5 29.5t128 5t109 -15.5v72q-57 -26 -167 -26h-181
q-70 0 -119.5 49t-49.5 119zM289 37q0 -35 70 -49t140 0t70 49q0 34 -70 48.5t-140 0t-70 -48.5z" />
    <glyph glyph-name="uniB36B" unicode="&#xb36b;" horiz-adv-x="847" 
d="M61 717h400v-148h-212v-119h135q139 0 194 34v28h-81v148h81v76h189v-444h-189v36q-51 -26 -167 -26h-181q-70 0 -120 49.5t-49 119.5v246zM713 -156q-65 15 -149 63t-131 101q-65 -66 -120 -97t-160 -67l-71 135q49 17 75 27.5t58 30.5t54 45h-168v139h239v57h188v-57
h238v-139h-168q54 -60 186 -104z" />
    <glyph glyph-name="uniB36E" unicode="&#xb36e;" horiz-adv-x="847" 
d="M60 718h401v-148h-213v-139h137q137 0 193 35v37h-81v148h81v86h188v-464h-188v37q-49 -27 -167 -27h-181q-70 0 -119.5 49.5t-49.5 119.5zM111 -137v139h101v100h-91v138h645v-138h-92v-101h102v-138h-665zM497 102h-107v-100h107v100z" />
    <glyph glyph-name="uniB370" unicode="&#xb370;" horiz-adv-x="866" 
d="M623 -137v874h163v-874h-163zM60 718h320v-148h-142v-463h58q79 0 130 27v188h-102v147h102v268h162v-874h-162v121q-43 -25 -156 -25h-41q-70 0 -119.5 49.5t-49.5 119.5v590z" />
    <glyph glyph-name="uniB371" unicode="&#xb371;" horiz-adv-x="867" 
d="M639 255v482h148v-482h-148zM60 718h300v-140h-122v-175h75q89 0 143 21v50h-71v148h71v115h147v-482h-147v28q-54 -19 -150 -19h-76q-70 0 -119.5 50t-49.5 120zM598 -137v210h-496v148h685v-358h-189z" />
    <glyph glyph-name="uniB374" unicode="&#xb374;" horiz-adv-x="867" 
d="M639 112v625h148v-625h-148zM60 718h300v-138h-122v-189h77q101 0 141 20v63h-71v148h71v115h147v-625h-147v162q-56 -19 -150 -19h-110q-56 0 -95.5 39t-39.5 95zM122 214h186v-210h487v-139h-504q-70 0 -119.5 50t-49.5 120v179z" />
    <glyph glyph-name="uniB378" unicode="&#xb378;" horiz-adv-x="867" 
d="M640 283v454h148v-454h-148zM61 718h300v-139h-122v-148h95q21 0 41 -1t43 4.5t39 18.5v40h-71v148h71v96h147v-454h-147v31q-44 -21 -150 -21h-111q-56 0 -96 39.5t-39 95.5v290zM122 116h477v29h-477v105h666v-239h-483v-29h493v-119h-506q-70 0 -119.5 49.5
t-49.5 119.5z" />
    <glyph glyph-name="uniB380" unicode="&#xb380;" horiz-adv-x="867" 
d="M640 272v465h148v-465h-148zM61 718h302v-144h-124v-154h95q32 0 63 5t43.5 9t16.5 6v53h-71v148h71v96h147v-465h-147v30q-36 -20 -150 -20h-111q-56 0 -96 40t-39 95v301zM112 240h677v-377h-507q-70 0 -119.5 49.5t-49.5 119.5zM599 94h-299v-92h299v92z" />
    <glyph glyph-name="uniB381" unicode="&#xb381;" horiz-adv-x="867" 
d="M640 274v463h147v-463h-147zM61 718h300v-148h-122v-148h66q118 0 152 21v50h-71v148h71v96h147v-463h-147v28q-56 -19 -139 -19h-122q-56 0 -96 39.5t-39 95.5v300zM122 240h168v-48h329v48h168v-377h-496q-70 0 -119 49.5t-49 119.5zM619 54h-329v-52h329v52z" />
    <glyph glyph-name="uniB383" unicode="&#xb383;" horiz-adv-x="867" 
d="M639 207v529h147v-529h-147zM60 717h299v-148h-121v-148h66q112 0 152 21v51h-71v148h71v95h147v-463h-147v28q-36 -18 -139 -18h-88q-70 0 -119.5 49.5t-49.5 119.5v265zM723 -157q-79 24 -156 71.5t-124 106.5q-109 -108 -279 -178l-72 133q41 16 83 40.5t82 58.5
t65 77.5t23 87.5h197q-6 -40 19 -83t66 -77.5t86 -61t84 -40.5z" />
    <glyph glyph-name="uniB385" unicode="&#xb385;" horiz-adv-x="867" 
d="M60 717h300v-148h-122v-161h114q81 0 104 21v54h-71v148h71v105h147v-490q-93 0 -93 -1h1q64 -6 128 -30v521h147v-530h-127q127 -63 127 -164q0 -66 -50 -114.5t-125 -70t-162.5 -21.5t-162.5 21.5t-125 70t-50 114.5q0 46 24.5 83t62 59.5t85 37.5t90.5 21t83 6v39
q-38 -16 -88 -19t-51 0h-87q-70 0 -119.5 50t-49.5 120zM309 42q0 -37 70 -52.5t140 -0.5t70 53q0 37 -70 52.5t-140 0t-70 -52.5z" />
    <glyph glyph-name="uniB38C" unicode="&#xb38c;" horiz-adv-x="836" 
d="M60 718h452v-148h-264v-463h179q83 3 141 34v56h-163v129h163v67h-163v129h163v215h188v-874h-188v123q-83 -27 -195 -27h-143q-70 0 -119.5 49.5t-49.5 119.5z" />
    <glyph glyph-name="uniB3A0" unicode="&#xb3a0;" horiz-adv-x="847" 
d="M78 717h390v-148h-202v-167h135q138 0 193 35v13h-91v110h91v33h-91v110h91v33h189v-483h-189v37q-56 -26 -166 -26h-181q-70 0 -119.5 50t-49.5 120v283zM767 -156q-101 46 -152 126q1 0 -7.5 -12t-24 -29.5t-49 -39.5t-75.5 -39q-96 40 -156 120q-69 -90 -152 -126
l-91 115q68 41 110.5 112.5t42.5 149.5h179q0 -137 67 -182q24 15 44.5 64.5t22.5 117.5h179q-2 -82 39.5 -153.5t113.5 -108.5z" />
    <glyph glyph-name="uniB3C4" unicode="&#xb3c4;" 
d="M81 718h664v-148h-476v-197h476v-147h-494q-70 0 -119.5 49.5t-49.5 119.5zM40 -118v148h279v134h189v-134h278v-148h-746z" />
    <glyph glyph-name="uniB3C5" unicode="&#xb3c5;" 
d="M81 717h664v-129h-476v-67h476v-129h-237v-42h278v-139h-746v139h281v42h-104q-56 0 -95.5 39.5t-39.5 95.5zM558 -137v162h-477v143h664v-305h-187z" />
    <glyph glyph-name="uniB3C8" unicode="&#xb3c8;" 
d="M81 717h664v-129h-476v-68h476v-132h-237v-63h278v-138h-746v138h279v63h-102q-56 0 -95.5 39.5t-39.5 95.5zM81 139h187v-128h488v-148h-505q-70 0 -119 49.5t-50 119.5z" />
    <glyph glyph-name="uniB3CB" unicode="&#xb3cb;" 
d="M81 717h664v-138h-476v-43h476v-130h-237v-42h278v-138h-746v138h281v42h-104q-56 0 -95.5 39t-39.5 95zM81 192h664v-138h-477v-53h488v-138h-505q-70 0 -119.5 49.5t-49.5 119.5z" />
    <glyph glyph-name="uniB3CC" unicode="&#xb3cc;" 
d="M81 717h664v-129h-476v-43h476v-119h-237v-43h278v-119h-746v119h281v43h-104q-56 0 -95.5 39.5t-39.5 95.5zM81 97h477v28h-477v100h664v-224h-476v-29h487v-109h-505q-70 0 -119 49.5t-50 119.5z" />
    <glyph glyph-name="uniB3D0" unicode="&#xb3d0;" 
d="M80 717h665v-129h-477v-43h477v-119h-237v-44h278v-119h-746v119h281v44h-104q-56 0 -95.5 39.5t-39.5 95.5zM80 96h132v29h-132v100h320v-224h-131v-29h133q115 99 105 258h178q-1 -102 28.5 -162t103.5 -117l-99 -108q-80 50 -122 123q-38 -68 -122 -124l-74 81v-61
h-146q-70 0 -120 50t-52 120z" />
    <glyph glyph-name="uniB3D4" unicode="&#xb3d4;" 
d="M81 717h664v-129h-477v-43h477v-128h-237v-44h278v-138h-746v138h281v44h-104q-56 0 -95.5 39.5t-39.5 95.5zM81 197h664v-334h-494q-70 0 -119.5 49.5t-49.5 119.5zM558 63h-290v-67h290v67z" />
    <glyph glyph-name="uniB3D5" unicode="&#xb3d5;" 
d="M81 717h664v-129h-477v-43h477v-128h-237v-44h278v-133h-746v133h281v44h-104q-56 0 -95.5 39.5t-39.5 95.5zM81 202h187v-48h290v48h187v-339h-494q-70 0 -119.5 49.5t-49.5 119.5zM558 35h-290v-43h290v43z" />
    <glyph glyph-name="uniB3D7" unicode="&#xb3d7;" 
d="M81 717h664v-129h-477v-43h477v-129h-237v-43h278v-138h-746v138h281v43h-104q-56 0 -95.5 39.5t-39.5 95.5zM705 -156q-69 14 -149.5 56.5t-131.5 91.5l-3 3q-7 8 -12 3q-53 -52 -134.5 -95.5t-153.5 -58.5l-60 141q56 15 109.5 42t99.5 74t53 100h180q6 -42 33.5 -79
t67 -63t80 -44t81.5 -30z" />
    <glyph glyph-name="uniB3D9" unicode="&#xb3d9;" 
d="M81 716h664v-128h-477v-53h477v-119h-237v-43h278v-138h-746v138h281v43h-104q-56 0 -95.5 39.5t-39.5 95.5zM413 -166q-83 0 -150 16t-108 42t-63 59t-22 67.5t22.5 67.5t63.5 58.5t107.5 41t148.5 15.5q84 0 151.5 -16t108.5 -42t63 -59t21 -67.5t-23.5 -67
t-63.5 -58.5t-107.5 -41.5t-148.5 -15.5zM268 16q0 -28 72.5 -39.5t145 0t72.5 40.5q0 28 -72.5 40t-145 0t-72.5 -41z" />
    <glyph glyph-name="uniB3DB" unicode="&#xb3db;" 
d="M81 717h664v-129h-477v-43h477v-119h-237v-43h278v-120h-746v120h281v43h-104q-56 0 -95.5 39.5t-39.5 95.5zM717 -155q-186 42 -304 158q-15 -14 -42 -35t-56.5 -40.5t-83 -42t-121.5 -41.5l-48 144q26 4 93.5 33.5t70.5 46.5h-145v119h238v51h189v-51h237v-119h-142
q13 -18 57.5 -41t106.5 -40z" />
    <glyph glyph-name="uniB3F4" unicode="&#xb3f4;" horiz-adv-x="868" 
 />
    <glyph glyph-name="uniB3FC" unicode="&#xb3fc;" horiz-adv-x="876" 
d="M141 244v-147h-111v-148h293q91 0 134 26v-112h151v459h36v-459h152v874h-152v-269h-36v269h-151v-616q-21 -13 -48 -19t-50.5 -5.5t-49.5 0.5v148h103v148h-194v177h192v148h-360v-358q0 -42 26 -74t65 -42z" />
    <glyph glyph-name="uniB410" unicode="&#xb410;" horiz-adv-x="876" 
d="M51 717h350v-129h-183v-43h183v-119h-81v-43q29 -3 66 0t61 22v331h158v-153h34v153h158v-491h-158v191h-34v-191h-158v37q-23 -15 -54 -22t-54 -6t-43 0h-266v129h132v43q-45 0 -77.5 32t-32.5 77zM762 -156q-106 48 -149 129q-39 -80 -159 -123q-121 48 -154 123
q-17 -24 -39.5 -46t-41.5 -36.5t-36.5 -25.5t-26.5 -16l-10 -5l-91 115q72 35 114.5 108t38.5 154h179q0 -130 61 -178q3 -2 5 -2t3 -1q31 31 46.5 69.5t19.5 111.5h178q-2 -82 39.5 -153.5t113.5 -108.5z" />
    <glyph glyph-name="uniB418" unicode="&#xb418;" horiz-adv-x="857" 
d="M60 718h493v-148h-314v-187h314v-147h-162v-140h77q74 0 130 37v604h179v-874h-179v117q-30 -17 -80.5 -25t-84.5 -6.5t-53 0.5h-350v147h183v140q-62 0 -107.5 44t-45.5 105v333z" />
    <glyph glyph-name="uniB41C" unicode="&#xb41c;" horiz-adv-x="847" 
d="M60 718h483v-139h-295v-62h295v-129h-173v-62h81q93 0 137 22v389h179v-625h-179v95q-55 -19 -229 -19h-329v138h162v62q-54 0 -92.5 38.5t-38.5 92.5zM91 145h167v-134h519v-148h-517q-70 0 -119.5 49.5t-49.5 119.5v113z" />
    <glyph glyph-name="uniB420" unicode="&#xb420;" horiz-adv-x="847" 
d="M60 718h483v-120h-294v-48h294v-119h-153v-44h61q93 0 138 22v328h178v-478h-178v29q-29 -11 -67.5 -15.5t-77 -4t-85.5 0.5h-329v118h183v44q-63 0 -108 43.5t-45 105.5v138zM91 97h488v29h-488v105h676v-229h-493v-29h503v-110h-521q-70 0 -118 49.5t-47 119.5v65z" />
    <glyph glyph-name="uniB428" unicode="&#xb428;" horiz-adv-x="847" 
d="M60 718h483v-120h-294v-53h294v-118h-153v-45h61h46.5t44.5 5t47 17v333h178v-493h-178v30q-36 -12 -74 -16t-73 -3.5t-83 0.5h-329v127h183v45q-63 0 -108 44.5t-45 107.5v139zM81 206h686v-343h-517q-70 0 -119.5 49.5t-49.5 119.5v174zM579 72h-310v-75h310v75z" />
    <glyph glyph-name="uniB429" unicode="&#xb429;" horiz-adv-x="847" 
d="M60 718h483v-120h-295v-43h295v-119h-153v-43h61q26 0 47 -0.5t45 4.5t45 17v323h178v-482h-178v29q-66 -20 -229 -20h-329v129h183v43q-63 0 -108 44.5t-45 108.5v129zM81 221h188v-48h309v48h188v-358h-516q-70 0 -119.5 49.5t-49.5 119.5v189zM578 45h-309v-48h309v48
z" />
    <glyph glyph-name="uniB42B" unicode="&#xb42b;" horiz-adv-x="847" 
d="M60 717h483v-129h-295v-43h295v-119h-153v-43h61q26 0 47.5 -0.5t45 4.5t44.5 17v332h178v-577h-178v105q-64 -19 -229 -19h-329v138h183v43q-64 0 -108.5 44.5t-44.5 108.5v138zM704 -156q-186 53 -278 159q-5 0 -11 -3q-55 -61 -134 -101t-136 -55l-70 131
q36 12 78.5 34.5t86 53.5t71 70.5t23.5 77.5h179q1 -75 86 -142t174 -95z" />
    <glyph glyph-name="uniB450" unicode="&#xb450;" 
d="M81 717h664v-148h-476v-119h476v-148h-494q-70 0 -119.5 49.5t-49.5 119.5zM508 101v-238h-188v238h-280v147h746v-147h-278z" />
    <glyph glyph-name="uniB451" unicode="&#xb451;" 
d="M81 717h664v-129h-476v-57h476v-130h-511q-63 0 -107.5 45t-44.5 108zM507 226v-44h238v-319h-187v172h-477v147h237v44h-278v138h746v-138h-279z" />
    <glyph glyph-name="uniB454" unicode="&#xb454;" 
d="M81 717h664v-129h-477v-74h477v-126h-528q-56 0 -95.5 39.5t-39.5 95.5zM560 196v-104h-186v104h-334v138h746v-138h-226zM81 143h188v-132h487v-148h-505q-70 0 -119 49.5t-50 119.5z" />
    <glyph glyph-name="uniB458" unicode="&#xb458;" 
d="M745 421v124h-476v43h476v129h-664l1 -161q0 -56 39 -95.5t95 -39.5h529zM81 97h477v28h-477v96h239v43h-280v119h746v-119h-277v-43h236v-220h-476v-30h487v-108h-505q-70 0 -119 49.5t-50 119.5z" />
    <glyph glyph-name="uniB460" unicode="&#xb460;" 
d="M81 717h664v-129h-477v-43h477v-128h-528q-56 0 -95.5 39.5t-39.5 95.5zM81 197h238v43h-279v138h746v-138h-278v-43h237v-334h-494q-70 0 -119.5 49.5t-49.5 119.5zM558 63h-290v-67h290v67z" />
    <glyph glyph-name="uniB461" unicode="&#xb461;" 
d="M81 717h664v-129h-477v-43h477v-128h-528q-56 0 -95.5 39.5t-39.5 95.5zM508 245v-48h-189v48h-279v138h746v-138h-278zM81 202h187v-48h290v48h187v-339h-494q-70 0 -119.5 49.5t-49.5 119.5zM558 35h-290v-43h290v43z" />
    <glyph glyph-name="uniB463" unicode="&#xb463;" 
d="M81 717h664v-129h-477v-34h477v-119h-528q-56 0 -95.5 40t-39.5 96zM502 263v-38h-178v38h-284v139h746v-139h-284zM705 -156q-206 43 -292 158q-35 -37 -73.5 -65t-83 -46.5t-68 -26.5t-67.5 -20l-60 141q56 15 109.5 42t99.5 74t53 100h180q7 -53 53 -99.5t99.5 -73.5
t109.5 -43z" />
    <glyph glyph-name="uniB465" unicode="&#xb465;" 
d="M81 716h664v-128h-477v-53h477v-119h-528q-56 0 -95.5 39.5t-39.5 95.5zM508 239v-44q112 -16 180 -63t68 -115q0 -59 -51 -101.5t-127 -62t-165 -19.5t-165 19.5t-127 62t-51 100.5q0 69 69 116.5t180 62.5v44h-279v134h746v-134h-278zM268 16q0 -28 72.5 -39.5t145 0
t72.5 40.5q0 28 -72.5 39.5t-145 0t-72.5 -40.5z" />
    <glyph glyph-name="uniB46C" unicode="&#xb46c;" horiz-adv-x="856" 
d="M50 718h503v-148h-315v-72h315v-138h-333q-70 0 -119.5 49.5t-49.5 119.5zM598 -137v144h-152v128h152v65q-42 -22 -166 -22h-62v-315h-178v315h-162v139h448q88 0 120 19v401h178v-874h-178z" />
    <glyph glyph-name="uniB480" unicode="&#xb480;" horiz-adv-x="836" 
d="M50 717h482v-100h-293v-44h293v-99h-381q-42 0 -72 29.5t-30 71.5zM578 197v19h-142v81h142v42q-31 -18 -122 -18h-107v-114h-167v114h-152v119h388q27 0 52.5 -0.5t55.5 4t52 14.5v278h177v-539h-177zM747 -156q-31 12 -80 50t-71 79q-46 -83 -163 -124q-31 10 -79 46
t-73 77q-48 -64 -152 -129l-90 116q61 30 103 88t53 126h171q3 -39 20 -82.5t45 -57.5h3q29 16 46 57.5t21 82.5h170q20 -140 161 -214z" />
    <glyph glyph-name="uniB488" unicode="&#xb488;" horiz-adv-x="866" 
d="M634 -137v874h152v-874h-152zM50 718h361v-148h-203v-91h203v-138h-225q-56 0 -95.5 39.5t-39.5 95.5zM446 -137v124h-101v129h101v62q-23 -11 -49 -16t-48.5 -4t-49.5 1v-296h-168v296h-101v148h282q98 0 134 20v410h152v-874h-152z" />
    <glyph glyph-name="uniB49D" unicode="&#xb49d;" horiz-adv-x="876" 
d="M111 11q0 45 31.5 81t83 57t110.5 32t120 11v22h-103v66h103v45q-41 -18 -111 -18h-40v-120h-164v120h-111v109h301q100 0 125 23v297h153v-545q-106 0 -106 -1h1q77 -7 141 -27v573h151v-577h-137q137 -55 137 -147q0 -57 -50.5 -98.5t-127 -60t-165 -18.5t-165 18.5
t-127 60t-50.5 97.5zM50 717h371v-110h-203v-46h203v-109h-269q-42 0 -72 29.5t-30 71.5v164zM308 12q0 -26 73 -36.5t145.5 0t72.5 36.5t-72.5 37t-145.5 0t-73 -37z" />
    <glyph glyph-name="uniB4A4" unicode="&#xb4a4;" horiz-adv-x="856" 
d="M50 718h503v-148h-315v-91h315v-138h-333q-70 0 -119.5 49.5t-49.5 119.5zM598 -137v305q-19 -14 -49 -20.5t-44.5 -7t-49.5 -0.5h-85v-277h-178v277h-162v138h448q90 0 120 23v436h178v-874h-178z" />
    <glyph glyph-name="uniB4B7" unicode="&#xb4b7;" horiz-adv-x="836" 
d="M50 717h482v-129h-293v-43h294v-119h-346q-56 0 -95.5 39.5t-39.5 95.5zM457 393q41 0 81 9l40 9v325h178v-615h-178v151q-41 -10 -108.5 -14.5t-113.5 -3.5h-47v-96h-167v96h-112v139h427zM709 -156q-37 10 -77 25.5t-101.5 52.5t-99.5 81h-5q-108 -114 -276 -159
l-70 131q50 18 104.5 49.5t103 83.5t48.5 103h185q4 -46 30.5 -86.5t68.5 -69.5t79.5 -48t78.5 -33z" />
    <glyph glyph-name="uniB4B9" unicode="&#xb4b9;" horiz-adv-x="836" 
d="M61 717h472v-129h-284v-47h285v-119h-337q-56 0 -95.5 39.5t-39.5 95.5zM91 23q0 96 135 155h-94v66h-102v139h427q41 0 81 9l40 10v334h178v-577h-94q94 -56 94 -135q0 -61 -49.5 -106t-123 -64.5t-160 -19.5t-160 20t-123 64.5t-49.5 104.5zM578 262q-42 -17 -99 -17
h-160v-43q130 22 259 -11v71zM288 22q0 -32 68 -45t135.5 0t67.5 45t-67.5 45t-135.5 -0.5t-68 -44.5z" />
    <glyph glyph-name="uniB4C0" unicode="&#xb4c0;" 
d="M81 717h664v-148h-477v-119h477v-148h-494q-70 0 -119.5 49.5t-49.5 119.5zM664 102v-239h-188v239h-126v-239h-188v239h-122v147h746v-147h-122z" />
    <glyph glyph-name="uniB4C8" unicode="&#xb4c8;" 
d="M81 717h664v-129h-476v-43h476v-128h-528q-56 0 -95.5 39.5t-39.5 95.5zM81 96h477v25h-477v100h91v43h-132v119h746v-119h-131v-43h90v-224h-476v-26h487v-108h-505q-70 0 -119 49.5t-50 119.5zM466 264h-105v-43h105v43z" />
    <glyph glyph-name="uniB4D0" unicode="&#xb4d0;" 
d="M81 717h664v-129h-477v-43h477v-128h-528q-56 0 -95.5 39.5t-39.5 95.5zM81 202h92v43h-133v138h746v-138h-132v-43h91v-339h-494q-70 0 -119.5 49.5t-49.5 119.5zM467 245h-107v-43h107v43zM558 68h-290v-72h290v72z" />
    <glyph glyph-name="uniB4DC" unicode="&#xb4dc;" 
d="M81 718h664v-148h-476v-197h476v-147h-494q-70 0 -119.5 49.5t-49.5 119.5zM40 -118v148h746v-148h-746z" />
    <glyph glyph-name="uniB4DD" unicode="&#xb4dd;" 
d="M81 717h664v-138h-476v-62h476v-130h-528q-56 0 -95.5 39.5t-39.5 95.5zM40 211v139h746v-139h-746zM558 -137v167h-477v143h664v-310h-187z" />
    <glyph glyph-name="uniB4E0" unicode="&#xb4e0;" 
d="M81 717h664v-129h-476v-77h476v-128h-528q-56 0 -95.5 39.5t-39.5 95.5zM40 183v138h746v-138h-746zM81 140h187v-129h488v-148h-505q-70 0 -119 49.5t-50 119.5z" />
    <glyph glyph-name="uniB4E3" unicode="&#xb4e3;" 
d="M81 717h664v-138h-476v-53h476v-129h-528q-56 0 -95.5 39.5t-39.5 95.5zM40 226v138h746v-138h-746zM81 192h664v-138h-477v-53h488v-138h-505q-70 0 -119.5 49.5t-49.5 119.5z" />
    <glyph glyph-name="uniB4E4" unicode="&#xb4e4;" 
d="M81 717h664v-129h-476v-43h476v-129h-530q-56 0 -94.5 39.5t-38.5 95.5zM40 254v129h746v-129h-746zM81 96h477v29h-477v95h664v-219h-476v-30h487v-108h-505q-70 0 -119 49.5t-50 119.5z" />
    <glyph glyph-name="uniB4E6" unicode="&#xb4e6;" 
d="M81 717h664v-129h-477v-43h477v-128h-528q-56 0 -95.5 39.5t-39.5 95.5zM40 254v129h746v-129h-746zM436 -137v358h309v-358h-309zM81 97h132v28h-132v96h319v-220h-131v-29h131v-109h-149q-70 0 -119 49.5t-50 119.5zM608 102h-35v-120h35v120z" />
    <glyph glyph-name="uniB4EC" unicode="&#xb4ec;" 
d="M81 717h664v-129h-477v-43h477v-128h-528q-56 0 -95.5 39.5t-39.5 95.5zM40 245v138h746v-138h-746zM81 211h664v-348h-494q-70 0 -119.5 49.5t-49.5 119.5zM558 78h-290v-82h290v82z" />
    <glyph glyph-name="uniB4ED" unicode="&#xb4ed;" 
d="M81 717h664v-129h-477v-43h477v-128h-528q-56 0 -95.5 39.5t-39.5 95.5zM40 245v138h746v-138h-746zM81 211h187v-48h290v48h187v-348h-494q-70 0 -119.5 49.5t-49.5 119.5zM558 35h-290v-39h290v39z" />
    <glyph glyph-name="uniB4EF" unicode="&#xb4ef;" 
d="M81 717h664v-139h-477v-43h477v-128h-528q-56 0 -95.5 39.5t-39.5 95.5zM40 235v138h746v-138h-746zM705 -156q-69 14 -149.5 56.5t-131.5 91.5l-3 3q-7 8 -12 3q-53 -52 -134.5 -95.5t-153.5 -58.5l-60 141q56 15 109.5 42t99.5 74t53 100h180q7 -53 53 -99.5
t99.5 -73.5t109.5 -43z" />
    <glyph glyph-name="uniB4F1" unicode="&#xb4f1;" 
d="M81 716h664v-128h-477v-53h477v-119h-528q-56 0 -95.5 39.5t-39.5 95.5zM40 235v138h746v-138h-746zM70 16q0 59 51 102.5t127 63t165 19t165 -20t127 -62.5t51 -101q0 -59 -51 -101.5t-127 -62t-165 -19.5t-165 19.5t-127 62t-51 100.5zM268 16q0 -28 72.5 -39.5t145 0
t72.5 40.5q0 28 -72.5 40t-145 0t-72.5 -41z" />
    <glyph glyph-name="uniB4F8" unicode="&#xb4f8;" horiz-adv-x="857" 
d="M61 718h473v-148h-295v-187h295v-147h-303q-70 0 -119.5 49.5t-49.5 119.5zM598 -137v117q-22 -14 -65 -22.5t-78 -8.5h-425v147h438q74 0 130 37v604h179v-874h-179z" />
    <glyph glyph-name="uniB514" unicode="&#xb514;" horiz-adv-x="836" 
d="M60 718h452v-148h-264v-463h179q81 3 141 34v596h188v-874h-188v123q-58 -27 -112 -27h-226q-70 0 -119.5 49.5t-49.5 119.5z" />
    <glyph glyph-name="uniB515" unicode="&#xb515;" horiz-adv-x="847" 
d="M60 718h472v-148h-284v-167q25 0 102.5 -1t119.5 0q24 0 58.5 8t49.5 20v307h189v-492h-189v36q-36 -27 -110 -27q-103 1 -237 1q-70 0 -119.5 49t-49.5 119zM578 -137v201h-477v148h666v-349h-189z" />
    <glyph glyph-name="uniB518" unicode="&#xb518;" horiz-adv-x="847" 
d="M60 718h472v-148h-284v-177l195 -1q5 0 22.5 0.5t36.5 1t40.5 7.5t35.5 19v317h189v-625h-189v157q-39 -24 -132 -24h-215q-70 0 -119.5 50t-49.5 120zM121 192h188v-181h468v-148h-485q-70 0 -119 49.5t-50 119.5z" />
    <glyph glyph-name="uniB51B" unicode="&#xb51b;" horiz-adv-x="847" 
d="M60 718h471v-148h-283v-139h171q109 0 158 29v277h189v-463h-189v34q-58 -25 -179 -25h-168q-70 0 -119.5 49.5t-49.5 119.5zM101 240h665v-148h-488v-81h498v-148h-506q-70 0 -119.5 49.5t-49.5 119.5v208z" />
    <glyph glyph-name="uniB51C" unicode="&#xb51c;" horiz-adv-x="847" 
d="M60 718h472v-148h-284v-120h137q134 0 193 35v252h188v-445h-188v37q-48 -26 -167 -26h-181q-70 0 -119.5 49t-49.5 119zM101 116h477v29h-477v114h665v-248h-477v-29h487v-119h-505q-70 0 -119 49.5t-50 119.5z" />
    <glyph glyph-name="uniB524" unicode="&#xb524;" horiz-adv-x="847" 
d="M60 718h472v-148h-284v-120h137q137 0 193 35v252h188v-444h-188v36q-57 -26 -167 -26h-181q-70 0 -119.5 49t-49.5 119zM102 259h664v-396h-495q-70 0 -119.5 49.5t-49.5 119.5v227zM578 112h-289v-101h289v101z" />
    <glyph glyph-name="uniB525" unicode="&#xb525;" horiz-adv-x="847" 
d="M60 718h472v-148h-284v-120h137q137 0 193 35v252h188v-444h-188v36q-40 -26 -167 -26h-181q-70 0 -119.5 49t-49.5 119zM102 258h187v-46h289v46h189v-395h-496q-70 0 -119.5 49.5t-49.5 119.5v226zM579 72h-290v-61h290v61z" />
    <glyph glyph-name="uniB527" unicode="&#xb527;" horiz-adv-x="847" 
d="M60 717h471v-148h-283v-148h135q138 0 194 35v280h189v-549h-189v113q-59 -27 -167 -27h-180q-70 0 -119.5 49.5t-49.5 119.5zM716 -157q-59 17 -146.5 64t-134.5 110h-5q-37 -54 -128.5 -104t-152.5 -70l-69 135q240 89 253 262h198q3 -53 28.5 -98.5t66.5 -77t79 -51.5
t81 -35z" />
    <glyph glyph-name="uniB528" unicode="&#xb528;" horiz-adv-x="847" 
d="M78 717h471v-148h-283v-157h135q139 0 193 34v290h189v-483h-189v37q-58 -26 -166 -26h-180q-70 0 -119.5 50t-49.5 120zM767 -156q-112 51 -149 129q-28 -40 -72 -75.5t-87 -47.5q-33 13 -79.5 47t-74.5 76q-42 -73 -154 -129l-91 115q153 91 153 262h179
q2 -65 24.5 -120.5t41.5 -60.5q7 -2 21.5 18.5t29.5 65.5t17 97h179q-2 -82 39.5 -153.5t113.5 -108.5z" />
    <glyph glyph-name="uniB529" unicode="&#xb529;" horiz-adv-x="847" 
d="M60 727h471v-148h-283v-153h136q136 0 193 34v286h189v-530h-147q146 -61 146 -174q0 -66 -50 -114.5t-125 -70t-162.5 -21.5t-162.5 21.5t-125 70t-50 114.5q0 73 54 122t132.5 66t159 16.5t141.5 -17.5v76q-66 -27 -167 -27h-182q-70 0 -118.5 49.5t-48.5 119.5z
M288 42q0 -38 70 -53.5t140 0t70 53.5t-70 53.5t-140 -0.5t-70 -53z" />
    <glyph glyph-name="uniB52A" unicode="&#xb52a;" horiz-adv-x="847" 
d="M60 717h471v-148h-283v-129h135q138 0 194 35v261h189v-454h-189v37q-24 -15 -65 -21.5t-66 -5t-36 0.5h-180q-70 0 -119.5 49t-49.5 119zM712 -156q-72 14 -162 67.5t-118 97.5q-43 -59 -124 -101t-156 -64l-71 135q50 17 115 52t81 71h-177v147h665v-147h-180
q32 -42 94.5 -77t103.5 -47z" />
    <glyph glyph-name="uniB530" unicode="&#xb530;" horiz-adv-x="876" 
d="M60 718h482v-148h-81v-463q97 0 126 24v606h178v-229h91v-148h-91v-497h-178v123q-38 -27 -129 -27h-229q-70 0 -119.5 49.5t-49.5 119.5v590zM293 570h-56v-463h56v463z" />
    <glyph glyph-name="uniB531" unicode="&#xb531;" horiz-adv-x="886" 
d="M60 718h492v-149h-81v-176q23 -3 64 1.5t62 20.5v322h178v-153h91v-148h-91v-200h-178v31q-28 -22 -109 -22h-258q-70 0 -119.5 50t-49.5 120zM587 -137v191h-487v148h675v-339h-188zM303 569h-65v-176h65v176z" />
    <glyph glyph-name="uniB534" unicode="&#xb534;" horiz-adv-x="886" 
d="M60 718h492v-149h-81v-176q22 0 42 -0.5t43.5 5t40.5 17.5v322h179v-172h92v-148h-92v-305h-179v155q-26 -13 -61.5 -18.5t-63 -4t-53.5 0.5h-188q-70 0 -119.5 50t-49.5 120zM110 202h188v-191h488v-148h-506q-70 0 -119.5 49.5t-49.5 119.5zM303 569h-65v-176h65v176z
" />
    <glyph glyph-name="uniB538" unicode="&#xb538;" horiz-adv-x="886" 
d="M60 718h492v-140h-81v-156q14 -1 31.5 -0.5t34 2t33 6.5t27.5 14v293h178v-144h91v-147h-91v-172h-178v31q-23 -13 -59.5 -18.5t-65 -4t-53.5 0.5h-189q-70 0 -119.5 49.5t-49.5 119.5zM100 116h486v29h-486v105h675v-239h-487v-29h497v-119h-516q-71 0 -120.5 49.5
t-48.5 119.5v84zM303 578h-65v-156h65v156z" />
    <glyph glyph-name="uniB540" unicode="&#xb540;" horiz-adv-x="886" 
d="M60 718h482v-139h-81v-167q35 0 48 0.5t33 5.5t45 17v302h178v-144h91v-147h-91v-182h-178v37q-38 -27 -147 -27h-210q-70 0 -119.5 49.5t-49.5 119.5zM100 231h665v-368h-496q-70 0 -120 50t-49 120v198zM303 579h-66v-167h66v167zM577 83h-289v-81h289v81z" />
    <glyph glyph-name="uniB543" unicode="&#xb543;" horiz-adv-x="886" 
d="M60 717h482v-138h-71v-158q16 1 34 0t41.5 5t40.5 18v292h178v-162h91v-148h-91v-239h-178v116q-37 -30 -152 -30h-205q-70 0 -119.5 50t-49.5 120zM713 -157q-36 11 -78.5 29t-104 58.5t-95.5 86.5h-5q-34 -44 -96 -84.5t-103 -58.5t-77 -31l-73 132q43 17 81.5 38.5
t78.5 53.5t66 77t31 96h189q4 -43 23.5 -81.5t45.5 -65.5t60.5 -51.5t65 -39t63.5 -27.5zM303 579h-66v-158h66v158z" />
    <glyph glyph-name="uniB544" unicode="&#xb544;" horiz-adv-x="886" 
d="M78 717h481v-139h-81v-177q16 1 36.5 -0.5t47.5 4.5t43 20v311h178v-143h91v-148h-91v-191h-178v35q-24 -14 -58.5 -20t-58 -5t-40.5 0h-201q-70 0 -119.5 49.5t-49.5 119.5v284zM767 -156q-31 14 -79.5 53t-69.5 76q-61 -81 -159 -123q-23 9 -48 22.5t-58 41.5t-48 59
q-59 -87 -154 -129l-91 115q67 39 110 111t43 151h178q1 -53 16.5 -107t48.5 -74l3 -1q3 -1 1 1q25 19 45.5 71t20.5 110h179q-2 -82 38 -151.5t115 -110.5zM320 578h-65v-177h65v177z" />
    <glyph glyph-name="uniB545" unicode="&#xb545;" horiz-adv-x="886" 
d="M60 717h481v-138h-81v-159q22 1 43.5 0t44.5 5t38 20v291h179v-153h90v-147h-90v-220h-113q122 -63 122 -165q0 -66 -50 -114t-125 -70t-162.5 -22t-162.5 21.5t-125 70t-50 114.5q0 73 54 122t133 66t159 16.5t141 -16.5v67q-37 -23 -156 -23h-201q-70 0 -119.5 49.5
t-49.5 119.5v265zM302 579h-65v-159h65v159zM297 51q0 -37 70 -52.5t140 0t70 52.5q0 38 -70 53.5t-140 0t-70 -53.5z" />
    <glyph glyph-name="uniB54B" unicode="&#xb54b;" horiz-adv-x="886" 
d="M62 717h481v-139h-81v-138q20 1 41 0t45.5 4.5t39.5 17.5v274h179v-133h90v-148h-90v-166h-179v39q-16 -8 -37 -13t-45 -6.5t-40 -2t-41 0t-29 0.5h-166q-70 0 -120 49.5t-49 119.5zM101 23q0 47 56 88h-56v119h239v54h188v-54h238v-119h-56q56 -40 56 -88
q0 -56 -49.5 -97.5t-123 -60t-160 -18.5t-160 18.5t-123 60t-49.5 97.5zM304 578h-65v-138h65v138zM298 23q0 -32 67.5 -45t135 0t67.5 45t-67.5 44.5t-135 -0.5t-67.5 -44z" />
    <glyph glyph-name="uniB54C" unicode="&#xb54c;" horiz-adv-x="876" 
d="M60 718h361v-148h-41v-463q5 -4 35 2.5t41 16.5v611h152v-229h36v229h152v-874h-152v497h-36v-497h-152v116q-49 -20 -131 -20h-129q-56 0 -95.5 39.5t-39.5 95.5zM244 570h-37v-463h37v463z" />
    <glyph glyph-name="uniB550" unicode="&#xb550;" horiz-adv-x="876" 
d="M62 718h360v-140h-40v-223q48 0 76 16v366h152v-134h36v134h152v-625h-152v343h-36v-343h-152v124q-21 -11 -57.5 -16t-62 -3.5t-40.5 0.5h-102q-56 0 -96 39.5t-39 94.5zM123 173h188v-162h497v-148h-516q-70 0 -119.5 50t-49.5 120v140zM246 578h-37v-223h37v223z" />
    <glyph glyph-name="uniB554" unicode="&#xb554;" horiz-adv-x="876" 
d="M62 718h360v-140h-40v-147q48 0 76 17v289h152v-134h36v134h152v-454h-152v172h-36v-172h-152v29q-35 -19 -160 -19h-102q-56 0 -96 39.5t-39 95.5zM113 116h497v29h-497v105h685v-239h-497v-29h507v-119h-526q-70 0 -119.5 50t-49.5 120v83zM246 578h-37v-147h37v147z
" />
    <glyph glyph-name="uniB55C" unicode="&#xb55c;" horiz-adv-x="876" 
d="M60 718h360v-140h-40v-156q48 0 76 16v299h152v-134h36v134h152v-463h-152v181h-36v-181h-152v29q-22 -12 -57 -17t-60 -3.5t-43 0.5h-100q-56 0 -95.5 40t-39.5 96zM111 240h685v-377h-516q-70 0 -119.5 50t-49.5 120v207zM244 578h-37v-156h37v156zM608 92h-309v-81
h309v81z" />
    <glyph glyph-name="uniB55F" unicode="&#xb55f;" horiz-adv-x="876" 
d="M60 717h360v-139h-40v-157q48 0 76 16v299h152v-133h36v133h152v-549h-152v268h-36v-182h-152v29q-41 -19 -160 -19h-100q-56 0 -95.5 39.5t-39.5 95.5zM723 -157q-35 11 -80 30.5t-106.5 60t-90.5 83.5h-5q-106 -116 -277 -174l-72 132q85 34 169.5 113t87.5 152h189
q10 -171 258 -265zM244 578h-37v-157h37v157z" />
    <glyph glyph-name="uniB560" unicode="&#xb560;" horiz-adv-x="876" 
d="M66 717h360v-139h-41v-176q49 0 77 16v318h152v-133h35v133h153v-482h-153v201h-35v-201h-152v25q-49 -15 -160 -15h-102q-56 0 -96 40t-39 95zM767 -156q-32 14 -84.5 55.5t-64.5 73.5q-59 -95 -159 -123q-98 39 -154 123q-14 -23 -31.5 -43.5t-32.5 -33t-32 -23.5
t-27.5 -16t-20.5 -9l-10 -4l-91 115q72 33 112.5 106t40.5 156h179q0 -131 61 -178l3 -3q63 53 70 181h179q-2 -82 39.5 -153.5t113.5 -108.5zM249 578h-36v-176h36v176z" />
    <glyph glyph-name="uniB561" unicode="&#xb561;" horiz-adv-x="876" 
d="M60 717h360v-139h-40v-166q48 0 76 16v308h152v-133h36v133h152v-520h-126q126 -61 126 -165q0 -66 -51 -114t-127 -70t-165 -22t-165 22t-127 70t-51 114q0 54 33 96t86 65.5t111 35t116 11.5v30q-68 -16 -160 -16h-100q-56 0 -95.5 40t-39.5 96zM644 455h-36v-197h-108
q96 -14 144 -32v229zM244 578h-37v-166h37v166zM309 51q0 -37 72.5 -52.5t144.5 0t72 52.5q0 38 -72 53.5t-144.5 0t-72.5 -53.5z" />
    <glyph glyph-name="uniB5A0" unicode="&#xb5a0;" horiz-adv-x="845" 
d="M60 718h481v-148h-81v-463q22 -4 64 2t63 22v191h-81v147h81v268h178v-874h-178v123q-37 -27 -129 -27h-229q-70 0 -119.5 49.5t-49.5 119.5v590zM293 570h-56v-463h56v463z" />
    <glyph glyph-name="uniB5A1" unicode="&#xb5a1;" horiz-adv-x="856" 
d="M60 718h493v-105h45v124h178v-501h-178v31q-27 -12 -66.5 -17.5t-66 -4.5t-45.5 0h-190q-70 0 -119.5 50t-49.5 120zM588 -137v191h-487v148h675v-339h-188zM598 465h-80v105h-57v-177q23 0 46.5 -0.5t49 5t41.5 17.5v50zM294 570h-56v-177h56v177z" />
    <glyph glyph-name="uniB5A4" unicode="&#xb5a4;" horiz-adv-x="856" 
d="M60 718h491v-125h46v144h179v-645h-179v156q-45 -22 -178 -22h-190q-70 0 -119.5 49.5t-49.5 119.5v323zM110 183h188v-172h488v-148h-507q-70 0 -119.5 50t-49.5 120v150zM597 446h-80v123h-55v-195q23 0 45.5 -0.5t48 5t41.5 17.5v50zM295 569h-57v-195h57v195z" />
    <glyph glyph-name="uniB5A8" unicode="&#xb5a8;" horiz-adv-x="856" 
d="M60 718h492v-96h46v115h178v-463h-178v31q-57 -22 -178 -22h-190q-70 0 -119.5 50t-49.5 120zM101 116h486v29h-486v105h675v-239h-487v-29h497v-119h-516q-70 0 -119.5 50t-49.5 120v83zM598 474h-81v104h-56v-156q23 0 46.5 -0.5t49 5t41.5 17.5v30zM294 578h-56v-156
h56v156z" />
    <glyph glyph-name="uniB5AB" unicode="&#xb5ab;" horiz-adv-x="856" 
d="M61 718h492v-96h45v115h178v-463h-178v31q-60 -22 -178 -22h-190q-70 0 -120 50t-49 120v265zM456 -137v387h137v-58h46v58h137v-387h-320zM111 116h122v29h-122v105h310v-239h-122v-29h122v-119h-141q-70 0 -120 50t-49 120v83zM598 474h-81v104h-56v-156q105 0 137 22
v30zM294 578h-55v-156h55v156zM639 64h-46v-72h46v72z" />
    <glyph glyph-name="uniB5B3" unicode="&#xb5b3;" horiz-adv-x="856" 
d="M60 717h482v-105h46v124h178v-549h-178v116q-47 -30 -153 -30h-205q-70 0 -119.5 50t-49.5 120zM713 -157q-76 23 -153.5 71.5t-126.5 106.5q-77 -100 -279 -178l-73 132q42 16 84.5 41t84 59t66.5 77.5t22 87.5h190q-3 -42 22.5 -86t67 -78.5t85 -60t83.5 -40.5z
M588 464h-81v115h-52v-158h40q20 0 52 7t41 16v20zM287 579h-49v-158h49v158z" />
    <glyph glyph-name="uniB5B4" unicode="&#xb5b4;" horiz-adv-x="856" 
d="M68 717h491v-95h46v114h177v-482h-177v32q-33 -22 -110 -22h-258q-70 0 -119.5 49.5t-49.5 119.5v284zM767 -156q-122 56 -152 126q-54 -78 -156 -120q-53 22 -89 47t-67 73q-24 -41 -76.5 -78.5t-75.5 -47.5l-91 115q72 33 112.5 106t40.5 156h179q0 -137 67 -182
q17 9 40.5 61t26.5 121h179q-2 -82 39.5 -153.5t113.5 -108.5zM605 474h-82v104h-55v-176q14 1 36.5 -0.5t53 4t47.5 18.5v50zM300 578h-55v-176h55v176z" />
    <glyph glyph-name="uniB5B5" unicode="&#xb5b5;" horiz-adv-x="856" 
d="M61 717h471v-95h46v114h189v-520h-124q123 -62 123 -165q0 -66 -50 -114.5t-125 -70t-162.5 -21.5t-162.5 22t-125 70t-50 114q0 73 54 122t133 66t159 16.5t141 -16.5v67q-23 -13 -56.5 -19t-57.5 -4.5t-43 0.5h-191q-70 0 -120 49.5t-49 119.5v265zM578 474h-81v105
h-50v-158q23 0 45 -1t46 4.5t40 19.5v30zM290 579h-51v-158h51v158zM289 51q0 -38 70 -53t140 0.5t70 52.5q0 38 -70 53.5t-140 0t-70 -53.5z" />
    <glyph glyph-name="uniB5BB" unicode="&#xb5bb;" horiz-adv-x="856" 
d="M60 717h472v-76h46v95h188v-446h-189v39q-25 -11 -64.5 -16t-70.5 -4t-57 0h-155q-70 0 -119.5 49.5t-49.5 119.5zM101 23q0 48 56 88h-56v124h238v50h188v-50h239v-124h-56q56 -40 56 -88q0 -56 -49.5 -97.5t-123 -60t-160 -18.5t-160 18.5t-123 60t-49.5 97.5zM578 493
h-81v86h-50v-139h38.5t34 1.5t30.5 6.5t28 14v31zM290 579h-52v-139h52v139zM298 23q0 -32 67.5 -45t135 0t67.5 45t-67.5 44.5t-135 -0.5t-67.5 -44z" />
    <glyph glyph-name="uniB5BC" unicode="&#xb5bc;" horiz-adv-x="876" 
d="M644 -137v874h152v-874h-152zM60 718h361v-148h-41v-463q11 -3 38 3t38 16v196h-51v147h51v268h152v-874h-152v116q-37 -20 -131 -20h-95q-70 0 -119.5 49.5t-49.5 119.5zM244 570h-37v-463h37v463z" />
    <glyph glyph-name="uniB5C0" unicode="&#xb5c0;" horiz-adv-x="876" 
d="M646 112v625h152v-625h-152zM62 718h360v-115h36v134h152v-625h-152v124q-26 -11 -63 -16t-60 -3.5t-37 0.5h-102q-56 0 -96 39.5t-39 94.5zM123 173h188v-162h497v-148h-516q-70 0 -119.5 50t-49.5 120v140zM458 455h-51v123h-25v-223q48 0 76 16v84zM246 578h-37v-223
h37v223z" />
    <glyph glyph-name="uniB5C4" unicode="&#xb5c4;" horiz-adv-x="876" 
d="M646 283v454h152v-454h-152zM62 718h360v-96h36v115h152v-454h-152v29q-22 -11 -57.5 -15.5t-60.5 -3.5t-42 0h-102q-56 0 -96 39.5t-39 95.5zM113 116h497v29h-497v105h685v-239h-497v-29h507v-119h-526q-70 0 -119.5 50t-49.5 120v83zM458 474h-51v104h-25v-147
q48 0 76 17v26zM246 578h-37v-147h37v147z" />
    <glyph glyph-name="uniB5CF" unicode="&#xb5cf;" horiz-adv-x="876" 
d="M646 207v529h152v-529h-152zM62 717h360v-95h36v114h152v-463h-152v29q-41 -16 -97 -19t-63 0h-102q-56 0 -96 39.5t-39 95.5zM735 -157q-76 23 -153.5 71.5t-126.5 106.5q-110 -119 -279 -178l-72 132q98 34 173 101t84 164h189q4 -53 30 -98.5t67.5 -77.5t79 -52.5
t81.5 -36.5zM458 474h-51v104h-28v-157q50 0 79 16v37zM243 578h-34v-157h34v157z" />
    <glyph glyph-name="uniB5D0" unicode="&#xb5d0;" horiz-adv-x="876" 
d="M649 254v482h153v-482h-153zM66 717h360v-95h36v114h152v-482h-152v25q-40 -15 -160 -15h-102q-56 0 -96 40t-39 95zM767 -156q-46 21 -88 54.5t-64 71.5q-66 -86 -156 -120q-96 40 -156 120q-38 -69 -152 -126l-91 115q67 37 110 110t43 152h179q0 -137 67 -182
q26 21 46.5 68t20.5 114h179q-3 -162 153 -262zM462 474h-51v104h-29v-176q46 -4 80 16v56zM246 578h-33v-176h33v176z" />
    <glyph glyph-name="uniB610" unicode="&#xb610;" 
d="M81 718h319v-148h-131v-196h157v344h319v-148h-132v-196h132v-148h-495q-70 0 -119.5 49.5t-49.5 119.5v323zM40 -118v148h279v153h189v-153h278v-148h-746z" />
    <glyph glyph-name="uniB611" unicode="&#xb611;" 
d="M81 717h309v-138h-132v-72h158v210h329v-138h-152v-72h152v-129h-239v-43h280v-128h-746v128h279v43h-103q-56 0 -95.5 40t-39.5 96v203zM568 -137v162h-487v148h664v-310h-177z" />
    <glyph glyph-name="uniB618" unicode="&#xb618;" 
d="M81 717h309v-129h-132v-43h158v172h329v-129h-152v-43h152v-128h-239v-44h280v-119h-746v119h279v44h-103q-56 0 -95.5 39.5t-39.5 95.5v165zM81 97h477v28h-477v96h664v-220h-478v-29h489v-109h-506q-70 0 -119.5 49.5t-49.5 119.5v65z" />
    <glyph glyph-name="uniB620" unicode="&#xb620;" 
 />
    <glyph glyph-name="uniB625" unicode="&#xb625;" 
d="M81 717h309v-129h-132v-43h158v172h329v-129h-152v-43h152v-119h-237v-43h278v-139h-746v139h281v43h-105q-56 0 -95.5 39t-39.5 95v157zM81 30q0 60 49.5 104.5t123 64.5t160 20t160 -19.5t123 -64t49.5 -104.5t-49.5 -103.5t-123 -63.5t-160 -20t-160 20t-123 63.5
t-49.5 102.5zM279 30q0 -25 67.5 -35.5t134.5 0.5t67 36q0 26 -67 37t-134.5 0t-67.5 -38z" />
    <glyph glyph-name="uniB62C" unicode="&#xb62c;" horiz-adv-x="888" 
d="M61 718h492v-139h-80v-205h80v-138h-323q-70 0 -119.5 49.5t-49.5 119.5v313zM777 322v-459h-178v110q-44 -24 -155 -24h-414v138h193v115h178v-115h67q88 0 131 28v622h178v-268h91v-147h-91zM304 579h-65v-205h65v205z" />
    <glyph glyph-name="uniB648" unicode="&#xb648;" horiz-adv-x="876" 
d="M50 718h371v-139h-40v-186h41v-138h-236q-56 0 -95.5 39t-39.5 95zM649 -137v459h-36v-459h-146v112q-25 -15 -59.5 -21.5t-59 -5.5t-44.5 0h-274v148h132v125h157v-125q24 1 50 -0.5t54.5 4.5t43.5 19v618h146v-268h36v268h147v-874h-147zM244 579h-46v-186h46v186z" />
    <glyph glyph-name="uniB664" unicode="&#xb664;" horiz-adv-x="857" 
d="M60 718h493v-139h-80v-205h80v-138h-322q-70 0 -119.5 49.5t-49.5 119.5zM598 -137v111q-36 -25 -154 -25h-414v138h193v115h177v-115q29 1 64.5 0t75 6.5t58.5 22.5v621h179v-874h-179zM304 579h-65v-205h65v205z" />
    <glyph glyph-name="uniB69C" unicode="&#xb69c;" 
d="M81 717h309v-148h-132v-81h158v229h329v-148h-152v-81h152v-148h-496q-70 0 -119 50t-49 120v207zM508 130v-267h-188v267h-280v148h746v-148h-278z" />
    <glyph glyph-name="uniB69D" unicode="&#xb69d;" 
d="M81 717h309v-129h-132v-71h158v200h329v-129h-152v-71h152v-129h-529q-56 0 -95.5 40t-39.5 96v193zM507 226v-44h238v-319h-177v172h-487v147h238v44h-279v128h746v-128h-279z" />
    <glyph glyph-name="uniB6A4" unicode="&#xb6a4;" 
d="M81 717h309v-129h-132v-43h158v172h329v-129h-152v-43h152v-124h-529q-56 0 -95.5 40t-39.5 96v160zM81 97h477v28h-477v96h238v43h-279v119h746v-119h-279v-43h238v-220h-478v-29h489v-109h-506q-70 0 -119.5 49.5t-49.5 119.5v65z" />
    <glyph glyph-name="uniB6AB" unicode="&#xb6ab;" 
d="M81 716h309v-119h-132v-43h158v162h329v-119h-152v-43h152v-114h-529q-56 0 -95.5 39.5t-39.5 95.5v141zM507 292v-38h-188v38h-279v114h746v-114h-279zM596 -166q-48 0 -88 24.5t-60 62.5t-22.5 83.5t23.5 86.5h-23v100h81v48h178v-48h81v-100h-24q28 -41 25.5 -86
t-22.5 -83t-60.5 -63t-88.5 -25zM81 96h142v29h-142v95h319v-219h-142v-29h152v-110h-160q-70 0 -119.5 50t-49.5 120v64zM596 84q-21 0 -30 -30.5t-0.5 -61t29.5 -30.5q22 0 31 30.5t0 61t-30 30.5z" />
    <glyph glyph-name="uniB6B1" unicode="&#xb6b1;" 
d="M81 717h309v-129h-132v-43h158v172h329v-129h-152v-43h152v-119h-529q-56 0 -95.5 39t-39.5 95v157zM507 254v-40q108 -15 173.5 -63.5t65.5 -119.5q0 -60 -49.5 -104.5t-123 -64t-160 -19.5t-160 19.5t-123 63.5t-49.5 104q0 73 65 120.5t172 63.5l1 40h-279v138h746
v-138h-279zM279 30q0 -25 67.5 -35.5t134.5 0t67 36.5q0 25 -67 36.5t-134.5 1t-67.5 -38.5z" />
    <glyph glyph-name="uniB6F0" unicode="&#xb6f0;" horiz-adv-x="856" 
d="M50 718h503v-139h-102v-130h103v-138h-334q-70 0 -119.5 49.5t-49.5 119.5zM598 -137v274q-23 -13 -72.5 -18t-92.5 -5l-43 1v-252h-177v252h-183v140h416q111 0 152 18v464h178v-874h-178zM284 579h-66v-130h66v130z" />
    <glyph glyph-name="uniB6F4" unicode="&#xb6f4;" horiz-adv-x="837" 
d="M50 718h483v-129h-82v-67h82v-129h-347q-56 0 -95.5 40t-39.5 96zM578 92v133q-40 -21 -126 -18v-95h-158v95h-264v129q47 0 197.5 -1t232.5 0q84 2 118 22v380h178v-645h-178zM81 164h167v-153h518v-148h-516q-70 0 -119.5 50t-49.5 120v131zM284 589h-66v-67h66v67z
" />
    <glyph glyph-name="uniB6F8" unicode="&#xb6f8;" horiz-adv-x="837" 
d="M578 244v65q-24 -14 -81.5 -16t-95.5 0v-48h-178v48h-193v119q285 0 428 -1q88 0 120 22v304h178v-493h-178zM50 718h483v-120h-82v-33h82v-110h-347q-56 0 -95.5 39.5t-39.5 95.5zM91 92h477v29h-477v100h665v-219h-476v-29h486v-110h-506q-70 0 -120 50t-49 120v59z
M284 598h-66v-33h66v33z" />
    <glyph glyph-name="uniB700" unicode="&#xb700;" horiz-adv-x="837" 
d="M578 217v64q-14 -6 -33 -10t-35.5 -5.5t-36 -2.5t-31.5 -1t-26 0.5t-15 0.5v-46h-178v47h-193v119h428q88 0 120 22v332h178v-520h-178zM52 718h483v-120h-82v-52h82v-119h-347q-56 0 -95.5 39.5t-39.5 95.5zM81 188h676v-325h-507q-70 0 -119.5 50t-49.5 120v155z
M286 598h-66v-52h66v52zM568 62h-299v-65h299v65z" />
    <glyph glyph-name="uniB728" unicode="&#xb728;" 
d="M81 718h319v-148h-131v-196h157v344h319v-148h-132v-196h132v-148h-495q-70 0 -119.5 49.5t-49.5 119.5v323zM40 -118v148h746v-148h-746z" />
    <glyph glyph-name="uniB729" unicode="&#xb729;" 
d="M81 717h309v-138h-132v-72h158v210h329v-138h-152v-72h152v-129h-529q-56 0 -95.5 40t-39.5 96v203zM40 207v138h746v-138h-746zM568 -137v172h-487v138h664v-310h-177z" />
    <glyph glyph-name="uniB72C" unicode="&#xb72c;" 
d="M81 717h309v-129h-132v-95h158v224h329v-129h-152v-95h152v-129h-529q-56 0 -95.5 39.5t-39.5 95.5v218zM40 167v139h746v-139h-746zM81 123h187v-112h488v-148h-506q-70 0 -119.5 49.5t-49.5 119.5v91z" />
    <glyph glyph-name="uniB72F" unicode="&#xb72f;" 
d="M81 717h309v-129h-132v-62h158v191h329v-129h-152v-62h152v-128h-529q-56 0 -95.5 39t-39.5 95v185zM40 226v138h746v-138h-746zM81 191h664v-128h-477v-62h488v-138h-506q-70 0 -119.5 49.5t-49.5 119.5v159z" />
    <glyph glyph-name="uniB730" unicode="&#xb730;" 
d="M81 717h309v-129h-132v-43h158v172h329v-129h-152v-43h152v-130l-97 1h-225h-207q-56 0 -95.5 39.5t-39.5 95.5v166zM40 259v124h746v-124h-746zM81 97h477v28h-477v100h664v-224h-478v-29h489v-109h-506q-70 0 -119.5 49.5t-49.5 119.5v65z" />
    <glyph glyph-name="uniB738" unicode="&#xb738;" 
d="M81 717h309v-129h-132v-52h158v181h329v-129h-152v-52h152v-129h-529q-56 0 -95.5 39t-39.5 95v176zM40 245v128h746v-128h-746zM81 211h664v-348h-495q-70 0 -119.5 49.5t-49.5 119.5v179zM558 78h-290v-82h290v82z" />
    <glyph glyph-name="uniB73B" unicode="&#xb73b;" 
d="M81 717h309v-129h-132v-62h158v191h329v-129h-152v-62h152v-119h-529q-56 0 -95.5 39.5t-39.5 95.5v175zM40 235v138h746v-138h-746zM705 -156q-69 14 -149.5 56.5t-131.5 91.5l-4 4q-6 7 -11 2q-53 -52 -134.5 -95.5t-153.5 -58.5l-60 141q56 15 109.5 42t99.5 74
t53 100h180q7 -53 53 -99.5t99.5 -73.5t109.5 -43z" />
    <glyph glyph-name="uniB744" unicode="&#xb744;" horiz-adv-x="857" 
d="M60 718h493v-139h-80v-205h80v-138h-322q-70 0 -119.5 49t-49.5 119zM598 -137v111q-39 -25 -154 -25h-414v148h438q96 0 130 29v611h179v-874h-179zM304 579h-65v-205h65v205z" />
    <glyph glyph-name="uniB748" unicode="&#xb748;" horiz-adv-x="836" 
d="M60 718h473v-129h-82v-91h82v-119h-337q-56 0 -95.5 39.5t-39.5 95.5zM578 112v106q-70 -30 -219 -30h-329v138h428q36 0 120 28v383h178v-625h-178zM91 145h167v-134h509v-148h-507q-70 0 -120 50t-49 120v112zM284 589h-56v-91h56v91z" />
    <glyph glyph-name="uniB74C" unicode="&#xb74c;" horiz-adv-x="836" 
d="M578 264v40q-35 -17 -76.5 -24t-74 -6t-68.5 0h-329v119h428q32 0 120 27v317h178v-473h-178zM60 718h473v-120h-82v-52h82v-119h-337q-56 0 -95.5 39.5t-39.5 95.5zM91 97h477v29h-477v105h665v-229h-478v-29h488v-110h-506q-70 0 -120 50t-49 120v64zM284 598h-56v-52
h56v52z" />
    <glyph glyph-name="uniB754" unicode="&#xb754;" horiz-adv-x="836" 
d="M578 236v39q-24 -9 -49 -15.5t-46 -9.5t-43.5 -4t-41 -1h-38.5h-330v138h428q36 0 120 28v326h178v-501h-178zM61 718h472v-129h-82v-43h82v-119h-337q-56 0 -95.5 39.5t-39.5 95.5v156zM81 202h675v-339h-505q-70 0 -119.5 50t-49.5 120zM284 589h-56v-43h56v43zM568 78
h-299v-81h299v81z" />
    <glyph glyph-name="uniB760" unicode="&#xb760;" horiz-adv-x="846" 
d="M60 718h482v-148h-81v-463q95 0 127 24v606h178v-874h-178v123q-38 -15 -80 -21.5t-67 -5.5t-48 0h-163q-70 0 -119.5 49t-49.5 119zM294 570h-56v-463h56v463z" />
    <glyph glyph-name="uniB764" unicode="&#xb764;" horiz-adv-x="846" 
d="M60 718h491v-149h-81v-195q22 0 43.5 -0.5t45 5t38.5 17.5v341h179v-645h-179v156q-88 -22 -178 -22h-190q-70 0 -119.5 49t-49.5 119v324zM110 183h188v-172h488v-148h-506q-70 0 -120 50t-50 120v150zM303 569h-65v-195h65v195z" />
    <glyph glyph-name="uniB768" unicode="&#xb768;" horiz-adv-x="846" 
d="M61 718h491v-140h-81v-147q36 -1 61 3t66 19v284h178v-454h-178v32q-56 -22 -178 -22h-190q-71 0 -120.5 49t-48.5 119v257zM101 116h486v29h-486v110h675v-244h-487v-29h497v-119h-516q-70 0 -119.5 50t-49.5 120v83zM304 578h-65v-147h65v147z" />
    <glyph glyph-name="uniB775" unicode="&#xb775;" horiz-adv-x="846" 
d="M61 717h471v-138h-81v-158q23 0 44 -0.5t44.5 5t38.5 18.5v292h189v-520h-124q123 -62 123 -165q0 -66 -50 -114.5t-125 -70t-162.5 -21.5t-162.5 22t-125 70t-50 114q0 73 54 122t133 66t159 16.5t141 -16.5v67q-47 -23 -157 -23h-190q-71 0 -121 49.5t-49 119.5v265z
M294 579h-55v-158h55v158zM289 51q0 -38 70 -53t140 0.5t70 52.5q0 38 -70 53.5t-140 0t-70 -53.5z" />
    <glyph glyph-name="uniB77C" unicode="&#xb77c;" horiz-adv-x="870" 
d="M62 425h254v145h-254v148h442v-439h-256v-172h121q119 0 201 28v602h188v-229h92v-148h-92v-497h-188v125q-120 -29 -224 -29h-116q-70 0 -120 49.5t-49 119.5z" />
    <glyph glyph-name="uniB77D" unicode="&#xb77d;" horiz-adv-x="876" 
d="M62 546h262v43h-262v129h450v-301h-264v-43h115q47 0 71.5 0.5t70.5 10t73 27.5v325h189v-153h89v-148h-89v-210h-189v37q-80 -28 -212 -28h-136q-71 0 -120.5 49t-48.5 119zM578 -137v182h-477v147h666v-329h-189z" />
    <glyph glyph-name="uniB780" unicode="&#xb780;" horiz-adv-x="876" 
d="M60 535h262v54h-262v129h450v-311h-264v-62h135q147 0 195 38v354h189v-182h90v-147h-90v-296h-189v114q-73 -29 -208 -29h-139q-70 0 -119.5 50t-49.5 120v168zM109 154h188v-143h477v-148h-496q-70 0 -120 50t-49 120v121z" />
    <glyph glyph-name="uniB784" unicode="&#xb784;" horiz-adv-x="876" 
d="M62 564h262v34h-262v120h450v-272h-264v-43h165q14 -1 36 -1.5t67 6t62 22.5v307h189v-144h90v-147h-90v-183h-189v37q-46 -26 -178 -26h-170q-70 0 -120 49.5t-49 119.5zM101 97h477v29h-477v105h666v-229h-477v-29h487v-110h-509q-70 0 -119 50t-48 120v64z" />
    <glyph glyph-name="uniB78C" unicode="&#xb78c;" horiz-adv-x="876" 
d="M60 546h262v42h-262v130h450v-291h-264v-44h135q132 0 195 28v326h189v-144h90v-148h-90v-200h-189v32q-59 -22 -208 -22h-139q-70 0 -119.5 49t-49.5 119v123zM109 212h656v-349h-486q-70 0 -119.5 50t-49.5 120zM576 71h-279v-65h279v65z" />
    <glyph glyph-name="uniB78D" unicode="&#xb78d;" horiz-adv-x="876" 
d="M60 546h262v42h-262v130h450v-291h-264v-44h135q125 0 195 28v326h189v-144h90v-148h-90v-200h-189v38q-33 -15 -79.5 -22t-76.5 -6t-52 0h-139q-70 0 -119.5 49t-49.5 119v123zM109 212h188v-48h279v48h189v-349h-486q-70 0 -119.5 50t-49.5 120zM576 35h-279v-43h279
v43z" />
    <glyph glyph-name="uniB78F" unicode="&#xb78f;" horiz-adv-x="876" 
d="M62 545h262v43h-262v129h450v-291h-264v-43h135q46 0 68 0.5t59 7t68 20.5v325h189v-144h90v-148h-90v-257h-189v89q-55 -22 -208 -22h-140q-70 0 -120 49.5t-49 119.5zM724 -157q-36 11 -78 28.5t-103.5 58t-96.5 87.5h-5q-26 -32 -61 -60.5t-61 -44.5t-64.5 -33.5
t-49.5 -21.5t-40 -14l-73 133q100 38 176 102.5t81 151.5h191q5 -45 24 -83t42.5 -62.5t60 -47t64 -35t66.5 -26.5z" />
    <glyph glyph-name="uniB790" unicode="&#xb790;" horiz-adv-x="876" 
d="M76 545h264v43h-264v129h451v-291h-263v-43h134q142 0 195 28v325h188v-143h92v-148h-92v-210h-188v32q-61 -22 -208 -22h-139q-70 0 -119.5 49t-49.5 119zM766 -156q-106 48 -149 129q-65 -92 -159 -123q-114 44 -153 123q-48 -64 -156 -129l-89 116q67 39 113.5 109
t43.5 142h177q0 -48 15.5 -102t47.5 -70q7 -3 18.5 15t22 45.5t18 59t6.5 52.5h180q-2 -73 43 -143t112 -109z" />
    <glyph glyph-name="uniB791" unicode="&#xb791;" horiz-adv-x="876" 
d="M62 564h262v33h-262v120h450v-272h-264v-43h135q140 0 195 29v305h189v-144h90v-148h-90v-237h-109q118 -61 118 -160q0 -65 -50 -112.5t-125 -69t-162.5 -21.5t-162.5 21.5t-125 69t-50 112.5q0 58 35.5 100.5t89.5 63.5t119.5 30t125 6t107.5 -14v62q-66 -22 -208 -22
h-140q-70 0 -120 50t-49 120zM299 47q0 -35 70 -49.5t140 0t70 49.5t-70 49.5t-140 0t-70 -49.5z" />
    <glyph glyph-name="uniB797" unicode="&#xb797;" horiz-adv-x="876" 
d="M60 564h263v34h-263v119h451v-262h-264v-34h135q142 0 195 29v286h188v-133h91v-148h-91v-182h-188v41q-58 -21 -209 -21h-138q-70 0 -119 49.5t-50 119.5zM100 23q0 37 54 79h-54v109h239v55h188v-55h238v-109h-54q54 -41 54 -79q0 -56 -49.5 -97.5t-123 -60t-160 -18.5
t-160 18.5t-123 60t-49.5 97.5zM297 23q0 -32 67.5 -45t135 0t67.5 45t-67.5 44.5t-135 -0.5t-67.5 -44z" />
    <glyph glyph-name="uniB798" unicode="&#xb798;" horiz-adv-x="865" 
d="M60 425h151v145h-151v148h329v-439h-152v-172h47q109 0 151 21v609h157v-229h36v229h157v-874h-157v497h-36v-497h-157v118q-68 -22 -198 -22h-8q-70 0 -119.5 49.5t-49.5 119.5v297z" />
    <glyph glyph-name="uniB799" unicode="&#xb799;" horiz-adv-x="868" 
d="M61 536h152v43h-152v139h330v-310h-151v-44h61q66 0 136 19v354h157v-153h36v153h158v-511h-158v210h-36v-210h-157v31q-52 -22 -153 -22h-55q-70 0 -119.5 49t-49.5 119zM599 -137v182h-496v147h685v-329h-189z" />
    <glyph glyph-name="uniB79C" unicode="&#xb79c;" horiz-adv-x="868" 
d="M60 536h152v43h-152v139h330v-310h-151v-44h61q80 0 136 19v354h157v-153h35v153h158v-625h-158v324h-35v-324h-157v132q-58 -28 -137 -28h-103q-56 0 -95.5 39.5t-39.5 95.5zM111 164h188v-153h497v-148h-516q-70 0 -119.5 50t-49.5 120v131z" />
    <glyph glyph-name="uniB7A0" unicode="&#xb7a0;" horiz-adv-x="868" 
d="M61 546h152v43h-152v129h330v-282h-151v-43h45q77 0 152 25v319h157v-124h35v124h159v-473h-159v201h-35v-201h-157v32q-50 -23 -145 -23h-96q-56 0 -96 39.5t-39 95.5v138zM112 97h487v29h-487v105h676v-229h-487v-29h497v-110h-516q-70 0 -119 50t-50 120z" />
    <glyph glyph-name="uniB7A8" unicode="&#xb7a8;" horiz-adv-x="868" 
d="M61 546h152v43h-152v129h330v-282h-151v-43h45q77 0 152 25v319h157v-124h36v124h158v-492h-158v220h-36v-220h-157v32q-62 -23 -145 -23h-96q-56 0 -96 40t-39 95v157zM112 212h676v-349h-506q-70 0 -119.5 50t-49.5 120zM599 73h-299v-67h299v67z" />
    <glyph glyph-name="uniB7A9" unicode="&#xb7a9;" horiz-adv-x="868" 
d="M61 546h152v43h-152v129h330v-282h-151v-43h45q93 0 152 25v319h157v-124h36v124h158v-482h-158v210h-36v-210h-157v31q-54 -23 -145 -23h-96q-56 0 -96 40t-39 96v147zM112 221h188v-49h299v49h189v-358h-507q-70 0 -119.5 50t-49.5 120v188zM599 45h-299v-48h299v48z
" />
    <glyph glyph-name="uniB7AB" unicode="&#xb7ab;" horiz-adv-x="868" 
d="M62 545h152v43h-152v129h330v-281h-151v-44h45q40 0 87.5 7.5t64.5 17.5v319h157v-124h35v124h159v-549h-159v277h-35v-210h-157v32q-67 -23 -145 -23h-63q-70 0 -120 49.5t-49 119.5zM727 -157q-53 17 -140 66t-137 108h-5q-27 -41 -89.5 -81.5t-106 -59.5t-81.5 -33
l-72 133q46 18 85.5 39t79.5 52t64.5 73t26.5 90h191q20 -167 258 -254z" />
    <glyph glyph-name="uniB7AC" unicode="&#xb7ac;" horiz-adv-x="868" 
d="M66 545h152v43h-152v129h330v-281h-152v-53h45q40 0 91.5 8.5t60.5 16.5v328h158v-124h35v124h158v-496h-158v224h-35v-224h-158v32q-51 -23 -144 -23h-63q-70 0 -120 49.5t-49 119.5zM766 -156q-30 13 -84.5 57t-64.5 72q-30 -42 -73 -75.5t-86 -47.5q-36 14 -82 47
t-71 76q-24 -37 -59.5 -64.5t-96.5 -64.5l-89 116q67 39 113.5 109t43.5 142h178q-1 -45 14.5 -100t46.5 -71h3q18 11 39.5 55.5t23.5 115.5h180q1 -77 44.5 -145t110.5 -107z" />
    <glyph glyph-name="uniB7AD" unicode="&#xb7ad;" horiz-adv-x="868" 
d="M60 555h152v43h-152v119h330v-282h-151v-43h45q85 0 152 26v318h157v-134h36v134h157v-520h-146q146 -60 146 -174q0 -66 -50 -114.5t-125 -70t-162.5 -21.5t-162.5 21.5t-125 70t-50 114.5q0 52 30 92.5t79 64t104 36t112 14.5v37q-50 -23 -145 -23h-61
q-70 0 -119.5 49.5t-49.5 119.5zM629 455h-36v-206h-66l-33 -1l1 -1q75 -7 134 -28v236zM309 42q0 -38 70 -53.5t140 0t70 53.5t-70 53t-140 -0.5t-70 -52.5z" />
    <glyph glyph-name="uniB7B4" unicode="&#xb7b4;" horiz-adv-x="876" 
d="M61 425h254v145h-254v148h442v-439h-256v-172h121q49 0 109 8t92 22v600h188v-172h92v-148h-92v-81h92v-148h-92v-325h-188v127q-77 -31 -224 -31h-116q-70 0 -119.5 49.5t-49.5 119.5z" />
    <glyph glyph-name="uniB7B5" unicode="&#xb7b5;" horiz-adv-x="876" 
d="M60 546h262v43h-262v129h450v-301h-264v-43h115q32 1 68.5 -0.5t79 8t67.5 29.5v326h189v-77h91v-147h-91v-53h91v-148h-91v-86h-189v39q-77 -30 -212 -30h-135q-70 0 -119.5 49t-49.5 119v143zM576 -137v182h-477v147h666v-329h-189z" />
    <glyph glyph-name="uniB7C9" unicode="&#xb7c9;" horiz-adv-x="876" 
d="M62 555h262v42h-262v120h450v-282h-264v-43h135h35t37 1t39.5 4t41 9t42.5 15v315h189v-77h90v-148h-90v-53h90v-148h-90v-113h-109q118 -61 118 -160q0 -65 -50 -112.5t-125 -68.5t-162.5 -21t-162.5 21.5t-125 68.5t-50 112q0 58 35.5 100.5t89.5 63.5t119.5 30t125 6
t107.5 -13v61q-78 -21 -208 -21h-140q-70 0 -120 49.5t-49 119.5zM299 37q0 -35 70 -49.5t140 0t70 49.5t-70 49.5t-140 0t-70 -49.5z" />
    <glyph glyph-name="uniB7EC" unicode="&#xb7ec;" horiz-adv-x="846" 
d="M61 425h212v145h-212v148h400v-439h-213v-172h128q106 0 202 29v186h-80v147h80v268h188v-874h-188v126q-95 -30 -224 -30h-124q-70 0 -120 49.5t-49 119.5v297z" />
    <glyph glyph-name="uniB7ED" unicode="&#xb7ed;" horiz-adv-x="846" 
d="M60 546h223v43h-223v129h410v-301h-223v-43h114q32 1 64 -0.5t74.5 7.5t77.5 30v44h-71v148h71v134h189v-511h-189v39q-43 -16 -89 -23.5t-73 -6.5t-51 0h-134q-70 0 -119.5 49t-49.5 119zM577 -137v182h-477v147h666v-329h-189z" />
    <glyph glyph-name="uniB7F0" unicode="&#xb7f0;" horiz-adv-x="846" 
d="M61 535h222v54h-222v129h410v-311h-223v-62h134q115 0 196 37v73h-71v148h71v134h189v-625h-189v116q-104 -31 -209 -31h-173q-56 0 -96 40t-39 96v202zM111 154h188v-143h477v-148h-495q-70 0 -119.5 50t-49.5 120z" />
    <glyph glyph-name="uniB7F4" unicode="&#xb7f4;" horiz-adv-x="846" 
d="M61 559h222v39h-222v120h410v-277h-223v-38h165q102 0 165 26v55h-71v148h71v105h189v-474h-189v39q-33 -15 -72.5 -22t-63 -6t-42.5 0h-204q-56 0 -96 40t-39 95v150zM101 97h477v29h-477v105h666v-229h-477v-29h487v-110h-507q-70 0 -119.5 50t-49.5 120v64z" />
    <glyph glyph-name="uniB7FC" unicode="&#xb7fc;" horiz-adv-x="846" 
d="M61 546h223v42h-223v130h410v-291h-223v-44h135q119 0 195 29v53h-71v148h71v124h189v-492h-189v32q-27 -8 -54.5 -13.5t-53 -7t-42.5 -2t-37 0t-22 0.5h-171q-57 0 -97.5 39.5t-39.5 94.5v157zM111 212h656v-349h-486q-70 0 -119.5 50t-49.5 120zM578 71h-279v-65h279
v65z" />
    <glyph glyph-name="uniB7FD" unicode="&#xb7fd;" horiz-adv-x="846" 
d="M61 546h223v42h-223v130h410v-291h-223v-44h135q106 0 195 29v43h-71v148h71v134h189v-492h-189v32q-26 -9 -53.5 -14.5t-52.5 -7t-42.5 -1.5t-37.5 0.5t-23 0.5h-173q-56 0 -96 39.5t-39 94.5v157zM111 212h188v-49h279v49h189v-349h-486q-70 0 -119.5 50t-49.5 120z
M578 40h-279v-48h279v48z" />
    <glyph glyph-name="uniB7FF" unicode="&#xb7ff;" horiz-adv-x="846" 
d="M61 545h222v43h-222v129h410v-291h-223v-43h134q112 0 196 20v61h-71v148h71v124h189v-549h-189v89q-69 -22 -209 -22h-139q-70 0 -120 49.5t-49 119.5v122zM723 -157q-183 55 -280 178q-61 -64 -125.5 -104.5t-153.5 -73.5l-72 133q46 22 80.5 41.5t79.5 52t70.5 74
t25.5 86.5h191q1 -60 45.5 -114t98 -86t114.5 -54z" />
    <glyph glyph-name="uniB800" unicode="&#xb800;" horiz-adv-x="846" 
d="M77 545h222v43h-222v129h410v-291h-223v-43h134q127 0 195 29v52h-71v148h71v124h189v-496h-189v31q-40 -10 -107 -15.5t-101 -5.5h-138q-70 0 -119.5 49t-49.5 119zM766 -156q-108 49 -152 126q-50 -83 -156 -120q-59 24 -90 48t-65 72q-55 -86 -154 -126l-89 116
q57 33 105.5 104.5t51.5 146.5h178q-1 -49 14.5 -100.5t48.5 -71.5q26 24 45.5 68.5t18.5 103.5h180q-1 -79 43 -145.5t112 -106.5z" />
    <glyph glyph-name="uniB801" unicode="&#xb801;" horiz-adv-x="846" 
d="M60 555h223v42h-223v120h410v-282h-223v-43h135q45 0 64.5 0.5t60 7.5t70.5 21v53h-71v147h71v115h189v-539h-120q119 -60 119 -160q0 -65 -50 -112.5t-125 -68.5t-162.5 -21t-162.5 21.5t-125 68.5t-50 112q0 73 54 120.5t133.5 63.5t159 15.5t140.5 -15.5v64
q-62 -21 -209 -21h-138q-70 0 -119.5 49.5t-49.5 119.5zM288 37q0 -35 70 -49.5t140 0t70 49.5t-70 49.5t-140 0t-70 -49.5z" />
    <glyph glyph-name="uniB807" unicode="&#xb807;" horiz-adv-x="846" 
d="M60 555h224v42h-224v120h411v-272h-223v-43h135q45 0 65 0.5t60.5 7.5t69.5 21v43h-71v147h71v115h188v-472h-188v40q-69 -21 -209 -21h-139q-70 0 -119.5 49.5t-49.5 119.5zM101 13q0 40 54 79h-54v114h238v53h188v-53h239v-114h-54q54 -40 54 -79q0 -56 -49.5 -97.5
t-123 -60t-160 -18.5t-160 18.5t-123 60t-49.5 97.5zM298 13q0 -32 67.5 -45t135 0t67.5 45t-67.5 45t-135 0t-67.5 -45z" />
    <glyph glyph-name="uniB808" unicode="&#xb808;" horiz-adv-x="865" 
d="M628 -137v874h157v-874h-157zM60 425h151v145h-151v148h329v-225h46v244h157v-874h-157v118q-29 -13 -74.5 -18.5t-75.5 -4t-48 0.5h-8q-70 0 -119.5 49.5t-49.5 119.5v297zM435 345h-46v-66h-152v-172q31 1 65 0t72.5 4.5t60.5 16.5v217z" />
    <glyph glyph-name="uniB809" unicode="&#xb809;" horiz-adv-x="869" 
d="M631 226v511h158v-511h-158zM62 536h135v43h-135v139h312v-115h64v134h157v-511h-157v32q-54 -23 -144 -23h-64q-71 0 -120.5 49t-48.5 119zM600 -137v182h-496v147h685v-329h-189zM438 455h-64v-47h-133v-44q148 0 197 21v70z" />
    <glyph glyph-name="uniB80C" unicode="&#xb80c;" horiz-adv-x="869" 
d="M629 112v625h159v-625h-159zM61 531h153v48h-153v139h331v-134h45v153h157v-625h-157v132q-52 -28 -137 -28h-104q-56 0 -96 40t-39 95v180zM112 173h188v-162h498v-148h-516q-70 0 -119.5 50t-49.5 120zM437 436h-45v-33h-152v-48h63q90 0 134 26v55z" />
    <glyph glyph-name="uniB810" unicode="&#xb810;" horiz-adv-x="869" 
d="M629 264v473h159v-473h-159zM61 550h152v39h-152v129h330v-96h46v115h157v-473h-157v31q-50 -22 -145 -22h-95q-56 0 -96.5 40t-39.5 95v142zM112 97h487v29h-487v105h676v-229h-487v-29h497v-110h-516q-70 0 -119 50t-50 120zM437 474h-46v-43h-151v-38h45q97 0 152 20
v61z" />
    <glyph glyph-name="uniB818" unicode="&#xb818;" horiz-adv-x="869" 
d="M630 245v492h158v-492h-158zM61 550h144v39h-144v129h322v-104h54v123h157v-492h-157v32q-46 -23 -145 -23h-96q-56 0 -96 40t-39 95v161zM112 212h676v-349h-506q-70 0 -119.5 50t-49.5 120zM437 467h-54v-36h-143v-38h45q113 0 152 26v48zM599 71h-299v-65h299v65z" />
    <glyph glyph-name="uniB819" unicode="&#xb819;" horiz-adv-x="869" 
d="M630 255v482h158v-482h-158zM61 550h144v39h-144v129h322v-104h54v123h157v-482h-157v31q-26 -13 -50 -18t-45 -5h-50h-96q-56 0 -96 40t-39 96v151zM112 221h188v-48h299v48h189v-358h-506q-70 0 -119.5 50t-49.5 120zM437 467h-54v-36h-143v-38h45q106 0 152 26v48z
M599 43h-299v-46h299v46z" />
    <glyph glyph-name="uniB81B" unicode="&#xb81b;" horiz-adv-x="869" 
d="M630 187v549h159v-549h-159zM62 555h144v33h-144v129h322v-103h54v122h157v-482h-157v32q-53 -23 -145 -23h-63q-70 0 -120 49.5t-49 119.5zM727 -157q-76 23 -153.5 71.5t-126.5 106.5q-110 -124 -279 -178l-72 133q47 18 84.5 37.5t77.5 50t64.5 73t29.5 93.5h191
q6 -53 31 -96t65.5 -73t77.5 -49t84 -36zM438 466h-54v-30h-143v-34h45q97 0 152 26v38z" />
    <glyph glyph-name="uniB81D" unicode="&#xb81d;" horiz-adv-x="869" 
d="M62 555h144v43h-144v119h322v-96h54v115h157v-487h-66l-33 -1l1 -1q55 0 134 -28v517h158v-530l-124 -1q123 -61 123 -163q0 -66 -50 -114.5t-125 -70t-162.5 -21.5t-162.5 21.5t-125 70t-50 114.5q0 52 30 92.5t79 64t104 36t112 14.5v37q-64 -23 -145 -23h-63
q-70 0 -120 49.5t-49 119.5zM438 474h-54v-39h-143v-43h45q105 0 152 26v56zM311 42q0 -38 70 -53.5t140 0t70 53.5t-70 53t-140 -0.5t-70 -52.5z" />
    <glyph glyph-name="uniB824" unicode="&#xb824;" horiz-adv-x="846" 
d="M61 421h212v149h-212v148h400v-444h-213v-167h128q42 0 106.5 9.5t95.5 22.5v87h-80v148h80v81h-80v148h80v134h188v-874h-188v128q-97 -32 -224 -32h-124q-70 0 -120 49.5t-49 119.5v293z" />
    <glyph glyph-name="uniB825" unicode="&#xb825;" horiz-adv-x="846" 
d="M61 546h223v43h-223v129h410v-301h-223v-43h114q8 0 36 -1t44.5 -0.5t42 3.5t49 12t44.5 23v16h-71v119h71v33h-71v119h71v39h189v-511h-189v39q-32 -18 -78 -25.5t-78 -5.5t-57 1h-135q-71 0 -120.5 49t-48.5 119v143zM578 -137v182h-477v147h666v-329h-189z" />
    <glyph glyph-name="uniB828" unicode="&#xb828;" horiz-adv-x="846" 
d="M61 530h222v59h-222v129h410v-316h-223v-57h134q155 0 196 37v16h-71v129h71v33h-71v129h71v48h189v-625h-189v116q-70 -31 -209 -31h-173q-56 0 -96 40t-39 96v197zM111 154h188v-143h477v-148h-495q-70 0 -119.5 50t-49.5 120z" />
    <glyph glyph-name="uniB82C" unicode="&#xb82c;" horiz-adv-x="846" 
d="M61 559h222v39h-222v120h410v-277h-223v-38h165q36 0 96.5 7t68.5 19v17h-71v109h71v34h-71v109h71v39h189v-474h-189v39q-43 -28 -178 -28h-204q-56 0 -96 40t-39 95v150zM101 97h477v29h-477v105h666v-229h-477v-29h487v-110h-506q-70 0 -119 50t-50 120z" />
    <glyph glyph-name="uniB834" unicode="&#xb834;" horiz-adv-x="846" 
d="M61 546h223v42h-223v130h410v-291h-223v-44h135q138 0 195 29v15h-71v119h71v33h-71v119h71v39h189v-492h-189v32q-65 -22 -209 -22h-173q-56 0 -96 39.5t-39 94.5v157zM111 212h656v-349h-486q-70 0 -119.5 50t-49.5 120zM578 71h-279v-65h279v65z" />
    <glyph glyph-name="uniB835" unicode="&#xb835;" horiz-adv-x="846" 
d="M61 546h223v42h-223v130h410v-291h-223v-44h135q138 0 195 29v15h-71v119h71v33h-71v119h71v39h189v-492h-189v32q-69 -22 -209 -22h-173q-56 0 -96 39.5t-39 94.5v157zM111 212h188v-48h279v48h189v-349h-486q-70 0 -119.5 50t-49.5 120zM578 45h-279v-48h279v48z" />
    <glyph glyph-name="uniB837" unicode="&#xb837;" horiz-adv-x="846" 
d="M61 545h222v43h-222v129h410v-291h-223v-43h134q111 0 196 20v23h-71v119h71v34h-71v119h71v38h189v-549h-189v89q-65 -22 -209 -22h-139q-70 0 -120 49.5t-49 119.5v122zM723 -157q-164 49 -280 178q-96 -106 -279 -178l-72 133q34 16 58.5 28.5t65 39t66 51.5t45.5 61
t21 74h191q1 -60 45.5 -114t98 -86t114.5 -54z" />
    <glyph glyph-name="uniB838" unicode="&#xb838;" horiz-adv-x="846" 
d="M77 545h222v43h-222v129h410v-291h-223v-43h134q140 0 195 29v14h-71v119h71v34h-71v119h71v38h189v-501h-189v32q-37 -12 -84 -17.5t-75.5 -4.5t-48.5 0h-138q-70 0 -119.5 49t-49.5 119zM766 -156q-45 20 -87 54t-65 72q-58 -80 -156 -120q-99 41 -155 120
q-54 -72 -154 -126l-89 116q57 36 105.5 105t51.5 146h178q-1 -49 14.5 -100.5t48.5 -71.5q24 15 44 59t20 113h180q3 -162 155 -252z" />
    <glyph glyph-name="uniB839" unicode="&#xb839;" horiz-adv-x="846" 
d="M61 555h223v42h-223v120h410v-282h-223v-43h135q118 0 195 29v24h-71v110h71v33h-71v110h71v38h189v-539h-120q119 -60 119 -160q0 -65 -50 -112.5t-125 -68.5t-162.5 -21t-162.5 21.5t-125 68.5t-50 112q0 73 54 120.5t133.5 63.5t159 15.5t140.5 -15.5v64
q-27 -8 -55.5 -13t-54.5 -6.5t-43 -2t-37 0.5h-19h-139q-70 0 -120 49.5t-49 119.5v122zM289 37q0 -35 70 -49.5t140 0t70 49.5t-70 49.5t-140 0t-70 -49.5z" />
    </font>
</defs>
</svg>
