<?xml version="1.0" standalone="no"?>
<!DOCTYPE svg PUBLIC "-//W3C//DTD SVG 1.1//EN" "http://www.w3.org/Graphics/SVG/1.1/DTD/svg11.dtd" >
<svg xmlns="http://www.w3.org/2000/svg" xmlns:xlink="http://www.w3.org/1999/xlink" version="1.1">
<metadata>
Created by FontForge 20170731 at Mon May 15 13:11:51 2017
 By Aleksey,,,
Copyright (c) 2017, User
</metadata>
<defs>
<font id="p5hatty" horiz-adv-x="9" >
  <font-face 
    font-family="p5hatty"
    font-weight="400"
    font-stretch="normal"
    units-per-em="1024"
    panose-1="2 0 5 3 0 0 0 0 0 0"
    ascent="819"
    descent="-205"
    x-height="475"
    cap-height="677"
    bbox="9.07692 -57.1143 766 730.111"
    underline-thickness="51"
    underline-position="-203"
    unicode-range="U+0020-20AC"
  />
<missing-glyph horiz-adv-x="372" 
d="M34 0v682h271v-682h-271zM68 34h203v614h-203v-614z" />
    <glyph glyph-name=".notdef" horiz-adv-x="372" 
d="M34 0v682h271v-682h-271zM68 34h203v614h-203v-614z" />
    <glyph glyph-name=".null" horiz-adv-x="0" 
 />
    <glyph glyph-name="nonmarkingreturn" horiz-adv-x="340" 
 />
    <glyph glyph-name="space" unicode=" " horiz-adv-x="256" 
 />
    <glyph glyph-name="exclam" unicode="!" horiz-adv-x="181" 
d="M19 643q13 9 79 9q51 0 63 -5q9 -4 11 -30q1 -34 -9 -191q-10 -156 -15 -164q-6 -13 -58 -13q-51 0 -59 13q-7 15 -11 166q-4 152 -9 179q-4 27 8 36zM52 217q13 6 50 3q38 -3 45 -10q12 -9 18 -35t3 -47q-6 -33 -20 -42t-53 -9q-49 0 -63 13q-16 14 -16 53q0 59 36 74z
" />
    <glyph glyph-name="quotedbl" unicode="&#x22;" horiz-adv-x="303" 
d="M42 662q17 10 47 7q29 -3 42 -15q11 -8 15 -8q5 0 20 9q22 13 56 14q20 0 32 -4q9 -3 21 -15q14 -13 17 -22q3 -12 2 -38q0 -35 -14 -72q-13 -34 -35 -58q-21 -23 -43 -23q-30 0 -36 17q-6 16 12 40q14 18 11 29q-3 13 -19 14q-12 1 -18 -5q-8 -8 -19 -30
q-30 -65 -68 -65q-26 0 -33 19t8 40q10 11 10 24t-10 17q-11 3 -20 23q-10 22 -10 38q0 46 32 64z" />
    <glyph glyph-name="numbersign" unicode="#" horiz-adv-x="642" 
d="M232 670q6 9 71 9q63 0 66 -10q4 -10 -11 -54q-12 -38 -10 -51q2 -12 23 -12q17 0 25 7q10 8 10 19q0 9 13 44q14 38 21 49q6 8 70 8h25q6 0 18 -2q2 0 5.5 -0.5t5.5 -1t3 -0.5q5 -3 7 -5q4 -6 4 -8q0 -8 -1 -13q-1 -3 -2 -8t-2 -8l-3.5 -10.5t-3.5 -11.5
q-15 -46 -10 -53q3 -6 33 -6q28 0 36 -8q7 -7 7 -30t-6 -27q-7 -4 -52 -6t-53 -11q-7 -8 -19 -39q-11 -28 -13 -47q-1 -11 5 -14q7 -4 31 -5q35 -4 45 -11t10 -27q0 -10 -4 -18q-3 -6 -13 -11q-9 -4 -23 -6q-9 -1 -37 -1q-43 0 -50 -9q-6 -7 -31 -76q-23 -66 -35 -74
q-13 -8 -66 -11q-60 -5 -67 10q-8 17 17 82q15 40 22 49q14 17 -7 26q-26 8 -43 -8q-10 -14 -31 -73q-20 -57 -36 -72q-16 -14 -68 -16q-27 0 -43 2q-11 1 -19 9q-9 12 -5 27q5 19 34 88q11 24 6 35t-24 11q-25 0 -36 8t-11 29q0 22 13 29q14 8 50 8q31 0 41 8t23 48
q11 33 7 45t-31 12q-15 0 -29 4q-10 3 -15 11q-6 10 -6 20q0 25 12 32q11 7 52 7q36 0 54 8q17 8 17 26q0 10 13 42q13 33 21 42zM357 458q-2 11 -6 14q-4 2 -18 4q-15 2 -19 -1t-9 -15q-16 -40 -17 -43q-21 -49 13 -49q14 0 20 6q8 8 19 30q18 37 17 54z" />
    <glyph glyph-name="dollar" unicode="$" horiz-adv-x="477" 
d="M220 711q11 8 34 5q24 -3 32 -16q9 -12 9 -25q0 -9 3 -15t13 -11q13 -7 27 -10q60 -21 90 -66q26 -40 17 -68q-9 -27 -52 -32q-52 -6 -75 38q-11 20 -20 20q-10 0 -10 -45q0 -44 9 -58q12 -15 57 -34q50 -21 78 -51l17 -17q6 -6 9 -14q4 -9 5 -16q4 -19 4 -21
q3 -37 -6 -61t-36 -51q-17 -17 -33 -25q-15 -8 -42 -15q-30 -7 -39 -12q-10 -5 -15 -19q-12 -28 -20 -34q-7 -6 -27 -7q-19 -1 -26 2q-5 3 -15 25q-7 20 -15 26q-10 8 -29 12q-55 14 -84 35t-53 62q-18 31 -17 47t21 28q19 12 40 7q20 -4 32 -24q13 -21 41 -48
q28 -26 37 -26q18 0 22 15q5 18 5 66v30q0 4 -2 20q-1 9 -4 15q-1 3 -8 8q-9 7 -13 8q-2 0 -8 3t-12 5q-67 27 -96 51q-29 25 -38 60q-12 56 10 99t73 58q14 4 64 18q15 3 25 11q5 4 7 18q3 21 14 29zM208 518q0 40 -9 40q-15 0 -22 -30t5 -42q22 -23 25 15zM300 239
q19 4 10 31q-5 19 -13 19q-9 0 -9 -30q0 -15 2 -18q2 -4 10 -2z" />
    <glyph glyph-name="percent" unicode="%" horiz-adv-x="685" 
d="M105 655q37 15 75 10q39 -5 67 -20q29 -16 48 -44t19 -61t11 -41q5 -5 10 1t16 28q17 34 48 87l31 51h67q65 0 68 -8q2 -4 1 -8q-1 -2 -13 -25q-23 -43 -27 -50q-18 -32 -53 -91q-32 -56 -29 -62q1 -6 79 -7q35 0 55 -2q17 -2 24 -4q10 -3 22 -14q29 -26 40 -52
q12 -29 12 -71q0 -41 -6 -62q-5 -19 -29 -47q-27 -33 -81 -43q-56 -11 -106 7q-30 9 -52 39q-21 28 -29 70q-9 37 -16 39q-4 1 -11.5 -10.5t-19.5 -35.5q-4 -8 -10.5 -19.5t-8.5 -16.5q-6 -13 -15 -27q-3 -4 -7 -11t-6 -9q-5 -7 -13 -12q-13 -8 -15 -9q-7 -2 -17 -3
q-8 -1 -20 -1q-3 0 -27 2q-47 3 -56 12q-10 10 11 36q16 22 26 41q1 2 6.5 11.5t16 28.5t22.5 39q40 69 28 75q-8 2 -21 -2q-26 -7 -62 -7q-78 0 -124 64q-18 26 -20 36q-4 18 -4 51q0 36 3 49q3 14 15 32q35 51 77 66zM186 517q-2 47 -3 52q-3 14 -10 15q-11 2 -16 -5
q-7 -9 -10 -24q-3 -17 -3 -44q0 -52 12 -64q8 -8 11 -8q6 0 11 5q7 7 8 20q1 15 0 53zM543 328q-13 34 -31 -7q-10 -21 -10 -54q0 -31 11 -47q13 -21 26 -16q4 1 4 8q0 3 3 54q2 44 -3 62z" />
    <glyph glyph-name="ampersand" unicode="&#x26;" 
 />
    <glyph glyph-name="quotesingle" unicode="'" horiz-adv-x="270" 
d="M74 711q23 17 57 17q37 0 62 -17l26 -17l-2 -63q-1 -41 -5 -59q-3 -16 -17 -37q-37 -55 -83 -55q-18 0 -28 7q-7 5 -12 26q-1 2 -1 9q0 12 14 29l17 21l-24 22q-19 16 -22 24q-4 11 -5 36v16q0 15 4 23q2 5 19 18z" />
    <glyph glyph-name="parenleft" unicode="(" horiz-adv-x="241" 
d="M122 627q26 27 34 32q12 7 27 7q18 0 35 -10q14 -8 14 -23q0 -11 -16 -47q-31 -73 -44 -139q-13 -64 -13 -147q0 -157 51 -268q15 -30 15 -45t-14 -29q-20 -23 -50 -11q-29 12 -59 57l-18 27l-11 18q-27 43 -51 137q-21 82 -5 200q17 118 57 171q11 15 11 24q0 6 37 46z
" />
    <glyph glyph-name="parenright" unicode=")" horiz-adv-x="240" 
d="M20 653q13 13 39 13q19 0 29 -7q11 -7 33 -32q33 -38 43 -59q1 -3 5 -11q1 -2 3.5 -6.5t3.5 -6.5t3 -5t2 -4q52 -96 50 -228q-2 -131 -57 -242q-16 -32 -36 -59t-42 -46q-20 -17 -34 -17q-16 0 -31 14q-16 15 -16 28q0 11 17 47q51 111 51 268q0 83 -13 147
q-13 66 -44 139q-14 33 -16 44t10 23z" />
    <glyph glyph-name="asterisk" unicode="*" horiz-adv-x="349" 
d="M143 673q8 4 40 2q31 -2 39 -7q5 -3 5 -15t11 -21q8 -5 13 -5q2 0 20 9q19 11 33 6q11 -4 27 -30q8 -16 8 -20q0 -7 -7 -18q-10 -15 -31 -26q-19 -10 -18 -21q2 -12 24 -26q25 -17 29 -27q5 -12 -4 -33q-7 -18 -25 -26q-16 -7 -37 2q-20 7 -27 6q-9 -2 -14 -19
q-6 -16 -21 -22t-44 -3q-16 2 -23 6q-6 4 -14 16q-7 13 -15 17q-5 3 -33 1q-21 -1 -33 1q-7 1 -18 14q-15 20 -15 29q0 5 14 21q11 12 33 29l17 11q-23 20 -67 60l13 23q23 50 63 29q21 -10 25 -9q5 2 11 19q8 22 21 27z" />
    <glyph glyph-name="plus" unicode="+" horiz-adv-x="441" 
d="M151 573q12 14 19 16q9 3 47 3q33 0 46 -3q11 -3 25 -11q11 -8 14 -20q3 -10 3 -46q0 -51 8 -59q9 -9 52 -9q36 0 51 -8q16 -9 16 -29q0 -42 -70 -42q-40 0 -49 -9q-8 -8 -8 -62q0 -37 -2 -46q-3 -15 -10 -20q-20 -18 -72 -17q-53 1 -70 19q-8 8 -11 21t-3 45q0 52 -8 60
q-9 9 -51 9q-38 0 -53 9t-15 34q0 24 12 30t53 6q45 0 57 12t7 57q-1 27 0 37q1 9 12 23z" />
    <glyph glyph-name="comma" unicode="," horiz-adv-x="199" 
d="M50 208q19 9 50 8q34 -2 51 -11q21 -11 30 -28q9 -18 9 -49q0 -47 -22 -88q-21 -39 -56 -60q-34 -20 -62 -5q-11 7 -13 27q-1 19 10 28q12 10 9 22q-3 14 -18 21q-13 6 -18 13q-7 8 -8 19q-2 16 -2 38q0 31 7 42t33 23z" />
    <glyph glyph-name="hyphen" unicode="-" horiz-adv-x="273" 
d="M14 347q5 3 126 2l121 -2l2 -18q3 -28 -15 -33q-20 -5 -110 -5q-112 0 -120 8q-6 5 -8 24q-1 17 4 24z" />
    <glyph glyph-name="period" unicode="." horiz-adv-x="158" 
d="M24 204q1 1 3.5 2.5t3.5 2.5q4 2 7 3l12 3q8 2 14 2h20q45 0 54 -10q10 -13 11 -39q1 -24 -7 -47l-10 -25h-47q-26 0 -32 1q-9 1 -16 5l-12 12q-15 18 -15 47q0 27 14 43z" />
    <glyph glyph-name="slash" unicode="/" horiz-adv-x="390" 
d="M233 672q11 7 77 7q36 0 54 -2q15 -2 16 -9q2 -4 -1 -14q-2 -6 -9 -26q-8 -22 -13 -34q-2 -4 -7.5 -17.5t-8.5 -21.5q-4 -9 -17 -39q-1 -2 -7 -16t-9 -22q-2 -6 -13 -31q-10 -23 -30 -71l-30 -72q-8 -20 -16 -39t-11.5 -28.5t-4.5 -11.5q-22 -49 -22 -51q0 -3 -15 -30
l-16 -25l-65 1h-10q-60 0 -64 13q-4 12 31 94q2 5 5 14q1 2 5 12t13.5 31.5t19.5 43.5q5 12 22 51.5t28 65.5q14 33 33.5 82t21.5 53q32 73 32 77q0 9 11 15z" />
    <glyph glyph-name="zero" unicode="0" horiz-adv-x="454" 
d="M151 666q29 11 78 13q100 0 150 -59q39 -44 53 -94q13 -48 13 -142q0 -74 -9 -118q-8 -38 -35 -84q-14 -23 -44 -48t-51 -31q-22 -7 -78 -7t-77 7q-39 10 -74 55q-34 43 -55 109q-12 36 -12 117t12 117q22 71 51 109q28 37 78 56zM246 598q-14 8 -18 6q-7 -2 -19 -12
q-26 -21 -33 -61q-8 -43 -8 -150q0 -102 2 -118q3 -26 13 -44q16 -30 32 -40q13 -8 17 -7q8 2 20 15q17 15 23 36q9 28 19 84q10 49 10 80q0 27 -12 92q-10 57 -21 84q-11 28 -25 35z" />
    <glyph glyph-name="one" unicode="1" horiz-adv-x="251" 
d="M173 686q9 1 22 3t17 2q5 0 17 -12q11 -11 12 -49q2 -52 2 -231q0 -142 -2 -216q-1 -54 -8 -64q-6 -10 -17 -11q-12 -1 -52 0q-63 2 -72 9q-6 5 -8 47t-3 183l-2 221l-27 2q-26 1 -35 10q-8 7 -7 27q2 21 13 26q24 13 77 32q50 18 73 21z" />
    <glyph glyph-name="two" unicode="2" horiz-adv-x="486" 
d="M120 677q18 9 37 12q13 2 76 2q58 2 76 -1q22 -3 41 -12q77 -35 100 -96q27 -68 1 -132q-25 -63 -112 -142q-47 -42 -73 -72q-29 -33 -27 -41q2 -9 112 -12q109 -3 119 -8q9 -6 8 -25q-1 -18 -12 -29q-8 -7 -45 -8q-38 -2 -169 -3q-140 -1 -174 0q-33 1 -42 10
q-13 13 -13 23q0 14 11 43q7 20 32 48q48 54 89 95q87 89 110 121q26 37 26 71q0 26 -15 56t-29 34q-26 10 -53 -15q-26 -25 -34 -70q-4 -28 -23 -42q-17 -13 -54 -13q-24 0 -36 4q-7 2 -20 17q-17 20 -17 39q0 21 18 58q14 28 35 49q19 20 57 39z" />
    <glyph glyph-name="three" unicode="3" horiz-adv-x="492" 
d="M124 677q18 10 41 13q14 2 82 2q69 0 83 -2q22 -3 44 -14q42 -19 67 -53q24 -33 24 -71q0 -19 -11 -49q-10 -27 -26 -46t-16 -30q0 -10 29 -38q30 -28 39 -65q8 -33 -1 -88l-2.5 -12.5t-2.5 -12t-2 -8.5q-3 -11 -10 -22q-8 -12 -18 -22q-27 -27 -68 -50q-33 -17 -48 -19
q-18 -3 -83 -3q-66 0 -84 3q-19 3 -50 18q-31 16 -49 29q-18 14 -37 38q-15 19 -15 32q0 17 15 30q14 13 32 13q21 0 57 -33q65 -62 130 -41q39 12 57 51t3 85q-18 52 -94 61q-32 5 -42 12t-10 26q0 17 16 32t35 15q25 0 47 14t32 34q10 21 9 44q-2 24 -17 41q-18 19 -37 24
q-7 3 -14 1q-5 -1 -13 -7q-4 -3 -18 -17q-27 -27 -27 -40q0 -17 -23 -29q-22 -12 -49 -12q-25 0 -51 13q-14 8 -19 17q-5 8 -5 18q0 31 29 64q30 34 71 54z" />
    <glyph glyph-name="four" unicode="4" horiz-adv-x="517" 
d="M288 687q10 10 67 12q55 1 64 -8q8 -8 8 -182q0 -172 7 -185q8 -14 32 -14t32 -7q10 -8 10 -25q0 -18 -13 -30q-12 -11 -31 -11q-22 0 -29 -13q-8 -14 -8 -49q0 -36 -8 -44q-9 -7 -65 -9q-42 -2 -48 -1q-11 1 -20 10t-10 16q-2 9 0 28q0 4 1.5 10.5t1.5 8.5q0 9 -1 14
t-4 11q-2 4 -9 7q-5 2 -15 4q-8 2 -23 3q-22 2 -31 2q-4 0 -17.5 0.5t-23.5 0.5q-35 1 -75 1q-18 0 -40 4q-17 3 -21 7t-7 13q-6 16 11 49q17 34 79 121q37 54 88 125t54 76q26 40 44 55zM279 407q-2 60 -9 62q-8 3 -23 -19q-25 -32 -47 -67q-27 -43 -29 -48q-5 -13 9 -19
q13 -6 44 -4q38 2 47 18q9 17 8 77z" />
    <glyph glyph-name="five" unicode="5" horiz-adv-x="452" 
d="M87 659q8 9 34 11q34 2 139 2q106 0 140 -2q26 -2 34 -11q10 -11 4 -29q-5 -16 -15 -23q-9 -5 -99 -9l-91 -3l-12 -40q-13 -35 -6 -49q6 -12 43 -16q57 -6 93 -23t59 -50q14 -20 22 -42q7 -19 10 -45q2 -19 -1 -52q-9 -113 -81 -159q-71 -46 -174 -34q-102 12 -152 74
q-30 36 -23 63q8 28 45 28q16 0 38 -13q23 -14 27 -24t31 -23q26 -13 46 -13q22 0 46 27q37 40 40 94t-30 90q-21 23 -44 23t-52 -20q-17 -13 -30 -16q-9 -2 -37 1q-38 4 -47 12t-6 40q8 64 24 143q16 77 25 88z" />
    <glyph glyph-name="six" unicode="6" horiz-adv-x="470" 
d="M271 691q57 12 81 4t19 -35q-1 -9 -9 -17t-25 -18q-17 -9 -41 -26q-19 -14 -36 -31q-15 -15 -15 -19q0 -9 -14 -21t-12 -26q1 -6 6 -9q7 -5 15 -6q11 -2 35 -3q65 -5 102 -27q37 -23 66 -72q12 -18 15 -34q3 -17 3 -60q0 -41 -3 -59q-3 -17 -12 -37q-62 -126 -241 -108
q-116 11 -164 97q-48 87 -21 234q17 94 92 177q72 79 159 96zM258 397q-17 8 -24 6q-11 -4 -23 -17q-25 -28 -32 -46q-8 -21 -8 -53q0 -77 39 -107q35 -27 65 9q10 12 17 24q17 34 17 75q0 38 -20 72q-18 31 -31 37z" />
    <glyph glyph-name="seven" unicode="7" horiz-adv-x="458" 
d="M17 664q8 8 210 8q135 0 175 -2q30 -2 39 -12q13 -12 8 -29q-4 -16 -27 -46q-24 -30 -24 -37q0 -6 -14 -19q-4 -3 -14 -17q-8 -12 -12 -19l-12 -24l-10 -20q-31 -57 -38 -107q-5 -29 -10 -45q-4 -13 -8 -41q-5 -33 -6 -57q-4 -71 -11 -79q-8 -8 -80 -8q-65 0 -78 9
q-14 10 -10 53q2 26 22 108q17 73 30 101q46 105 77 143q16 20 28 44q11 22 7 26t-114 4q-73 0 -93 3t-28 10q-12 11 -13 28q-2 17 6 25z" />
    <glyph glyph-name="eight" unicode="8" horiz-adv-x="499" 
d="M179 707q42 5 97 2t88 -15q32 -12 60 -38q26 -25 34 -46q8 -22 8 -62q1 -18 -1 -35q-1 -9 -5 -19q-2 -6 -13 -20q-26 -33 -27 -40t16 -24q51 -54 54 -126q3 -71 -47 -119q-29 -29 -69 -44q-27 -12 -49 -15q-28 -4 -75 -4q-58 0 -77 3t-49 15q-46 20 -65 39q-23 23 -36 57
q-32 85 16 157q25 38 35 45t8 16q-1 5 -22 37q-6 9 -15 26q-6 11 -7 21q-1 7 -1 30q0 62 31 101l10 10q1 1 6 5t8 6q10 6 16 9q3 1 9 5t9 5q6 3 18 7l18 6q12 4 17 5zM286 620q-29 35 -67 3q-11 -11 -15 -18q-5 -9 -10 -22q-4 -12 -6 -24q-1 -8 1 -22q7 -35 24 -51
q15 -15 43 -15q17 0 29 12q9 9 22 43q11 27 6 47t-27 47zM293 365q-21 18 -40 18q-22 0 -44 -15q-7 -5 -16 -14q-5 -5 -9 -15q-4 -11 -7 -25q-18 -91 44 -128q17 -10 28 -12q9 -2 21 5q51 28 58 87q8 62 -35 99z" />
    <glyph glyph-name="nine" unicode="9" horiz-adv-x="434" 
d="M204 654q9 1 21 1h13q1 0 6 -1t9 -2t11 -2.5t10 -1.5q48 -6 90 -41t54 -73q8 -32 7 -104q-2 -76 -9 -107q-39 -143 -179 -210q-41 -19 -81 -24q-41 -5 -53 10q-11 14 -2 31q9 16 34 28q34 16 75 62q39 43 31 58q-3 6 -45 6q-56 2 -95 22q-42 22 -64 60q-23 40 -26 93
q-2 34 1 48q3 16 15 43q13 28 21 38q7 9 32 27q51 32 124 39zM254 554q-24 27 -42 24q-20 -3 -40 -34q-21 -35 -16 -90t32 -76q33 -27 66 5q30 30 30 85q0 54 -30 86z" />
    <glyph glyph-name="colon" unicode=":" horiz-adv-x="187" 
d="M28 470q14 15 22 18q12 4 45 4q21 0 35 -2q10 -1 17 -5q8 -4 15 -11q11 -11 13 -19q3 -11 3 -31q0 -26 -9 -49t-22 -27q-11 -4 -60 -4q-37 0 -45 3t-17 20q-16 26 -15 53q2 31 18 50zM25 215q9 16 17 19q9 3 48 3q52 0 68 -12t19 -52q2 -22 1 -28q-1 -10 -5 -17
q-1 -2 -5 -8l-6 -9q-13 -15 -23 -18q-9 -3 -45 -3q-35 0 -44 3q-10 3 -22 18q-17 20 -18 49t15 55z" />
    <glyph glyph-name="semicolon" unicode=";" horiz-adv-x="177" 
d="M28 457q17 14 62 14q46 0 58 -13q13 -15 13 -61q0 -45 -13 -58q-11 -11 -60 -11q-21 0 -41 2q-13 1 -23 10q-8 6 -11 21q-3 13 -3 37q0 32 3 41q4 11 15 18zM24 210q6 6 13 9q2 1 19 3q8 1 34 1q42 0 48 -2q11 -4 18 -15q14 -21 12 -65t-16 -67q-38 -60 -98 -62
q-24 0 -29 3q-6 4 -7 17q-2 13 2 19q5 9 16 17q19 16 20 21q2 8 -10 12q-20 7 -28 20t-8 41q0 34 14 48z" />
    <glyph glyph-name="less" unicode="&#x3c;" horiz-adv-x="354" 
d="M220 596q36 30 48 35q14 6 26 5q20 -5 32 -18q12 -14 12 -32q0 -12 -17 -32q-14 -17 -66 -70q-84 -82 -84 -92t87 -98t87 -98q0 -12 -14 -29t-39 -17h-4q-20 0 -36 12q-23 17 -106 89q-10 9 -17 14q-75 66 -96 88q-23 25 -23 37q0 11 16 33q18 25 35 37q35 25 66 55
q7 6 24 21l34 30t35 30z" />
    <glyph glyph-name="equal" unicode="=" horiz-adv-x="370" 
d="M18 505q8 9 33 11q32 2 132 2q81 0 102 -1q31 -1 46 -3q13 -1 19 -7q26 -23 -4 -52q-12 -12 -32 -15t-123 -3q-139 0 -156 10q-18 9 -23 28t6 30zM17 322l11 15h155q92 0 130 -2q30 -2 37 -9q26 -23 -4 -53q-12 -13 -32 -14q-26 -2 -124 -2q-13 0 -31.5 0.5t-24.5 0.5
q-7 0 -20.5 0.5t-19.5 0.5q-17 0 -31 2q-7 1 -19 3q-10 2 -14 6q-2 2 -4 5t-4 4q-4 5 -9 12q-8 15 4 31z" />
    <glyph glyph-name="greater" unicode="&#x3e;" horiz-adv-x="351" 
d="M43 632q21 8 35 2t55 -39q72 -59 112 -96q51 -47 72 -70q25 -26 25 -36q0 -17 -22 -40q-22 -24 -97 -88l-18 -15q-83 -71 -105 -88q-16 -12 -35 -12h-4q-38 0 -50 38q-3 11 12 29q25 30 71 76q43 45 61 65q26 29 26 33q0 10 -83 93q-64 64 -76 85t0 43q8 15 21 20z" />
    <glyph glyph-name="question" unicode="?" horiz-adv-x="433" 
d="M193 687q44 5 100 -9q59 -15 88 -36q43 -33 43 -99q0 -32 -16 -60q-16 -27 -58 -74q-60 -67 -60 -110q0 -24 -15 -30q-14 -5 -66 -4l-64 2l-2 30q-1 13 2 30q2 12 12 31q5 10 23 38q12 19 37 50q35 43 44 60q8 16 8 36q0 28 -16 48q-17 21 -36 21q-43 0 -55 -72
q-4 -25 -10 -37q-5 -10 -19 -18q-30 -20 -73 -11q-42 9 -48 37q-7 31 13 74q19 42 52 64q19 13 53 24q36 12 63 15zM136 156q0 44 19 63q18 18 65 18q14 0 24 -2q7 -1 14 -5q4 -2 15 -13t16 -22q4 -9 4 -31q2 -44 -26 -64t-77 -13q-32 5 -43 18q-11 14 -11 51z" />
    <glyph glyph-name="at" unicode="@" horiz-adv-x="775" 
d="M291 642q81 21 170 12q90 -9 162 -45q28 -14 65 -51q30 -30 55 -71q11 -19 13 -26q5 -22 6 -28q2 -17 3 -51q2 -31 0 -52q-2 -24 -4 -33q-3 -12 -12 -36q-18 -45 -49 -81q-28 -33 -72 -54q-49 -24 -49 -26t10 -22q18 -34 -11 -57q-27 -21 -105 -35q-55 -9 -83 -8
q-26 1 -133 17q-69 12 -146 71q-27 21 -39 36t-27 45q-23 49 -30 87q-7 36 -4 96q3 67 23 112q21 46 66 93q25 25 57 48q25 18 60 34q32 14 74 25zM502 553q-27 12 -44 15q-16 3 -54 3q-22 0 -40 -2q-12 -1 -25 -5q-8 -2 -28 -14q-39 -22 -64 -44q-48 -42 -53 -70
q-1 -7 6 -7q12 1 39 24q86 73 203 49q100 -21 115 0q11 16 -46 46zM410 423q-12 14 -38 3q-11 -5 -25 -38q-10 -20 -13 -39t-3 -59q0 -54 7 -71t27 -14q16 1 34 39q14 28 16 41q3 18 3 62q0 68 -8 76zM614 350q1 63 -7 66q-8 2 -14 -11q-7 -16 -11 -37q-3 -20 -14 -53
q-10 -23 -10 -47q0 -22 -10 -38q-12 -16 -4 -22t24 5q45 30 46 137zM215 166q-1 6 -8 9q-6 3 -11 1q-6 -2 -6 -7t11 -19t25 -28q16 -16 26 -21q55 -35 128 -41q74 -6 124 20q10 4 18 9t11 8t2 4q-8 10 -62 16q-65 7 -105 6q-41 0 -52 1q-19 2 -29 4q-8 2 -30 11
q-37 15 -42 27z" />
    <glyph glyph-name="A" unicode="A" horiz-adv-x="613" 
d="M239 672q14 6 77 6q61 0 69 -7q10 -6 26 -46q20 -52 26 -64q15 -31 20 -46q23 -67 124 -314q25 -58 22 -84l-2 -24h-138l-17 27q-14 26 -22 59q-8 29 -20 38q-13 10 -50 14q-32 4 -108 -1q-14 0 -22 -7q-11 -9 -19 -25q-9 -19 -18 -46q-1 -4 -3 -11t-3 -10q-4 -10 -7 -15
q-2 -2 -4 -6t-3 -5q-2 -3 -9 -7q-6 -3 -12 -5l-16 -2q-8 -1 -20 -1q-15 0 -27 1l-71 2l-2 26q-2 26 6 35q8 10 23 45q35 84 85 209q6 15 17.5 44.5t16.5 41.5q22 55 31 76l15 35q10 25 16 45q5 17 19 22zM342 415q-16 46 -23 48q-7 1 -21 -18q-15 -22 -22 -44
q-8 -27 -14 -34t-4 -28q1 -13 8 -16q4 -2 44 -2h50l-1 23q0 24 -17 71z" />
    <glyph glyph-name="B" unicode="B" horiz-adv-x="561" 
d="M80 677q87 22 102 7q9 -9 118 -12q83 -3 118 -12q28 -8 61 -40q51 -48 33 -131q-7 -37 -20 -48q-30 -28 13 -64q33 -26 44 -75t-6 -97q-17 -51 -51 -73q-27 -19 -69 -35q-27 -11 -59 -12q-44 -2 -150 -2q-170 0 -175 8q-6 9 -6 257q0 159 -2 213q-1 41 -9 48
q-10 12 -12 27q-1 13 7 20q12 6 63 21zM281 592q-22 0 -38 2q-9 4 -24 -3q-14 -7 -19 -18q-6 -13 -2 -68l3 -58l23 -6q23 -6 56 -1q31 4 47 19q16 13 23 35q8 24 3 45q-3 14 -14 27q-9 11 -26 19q-14 7 -32 7zM389 256q5 52 -30 79q-38 30 -95 30q-11 -1 -22 -1
q-10 0 -17 -2q-3 -1 -5.5 -1.5t-3.5 -0.5t-1.5 -0.5t-1.5 -0.5q-2 0 -7 -8q-6 -10 -6 -11t-0.5 -3t-1 -6.5t-0.5 -8.5q-1 -10 -1 -25q0 -2 0.5 -13t0.5 -20q0 -74 8 -88q7 -13 57 -13q115 0 126 93z" />
    <glyph glyph-name="C" unicode="C" horiz-adv-x="580" 
d="M195 675q42 16 110 16q66 1 114 -13q44 -13 79 -45q18 -18 33 -39q17 -23 23 -41q8 -22 8 -37q0 -32 -33 -50q-32 -17 -71 -7q-12 4 -16 7q-5 4 -12 14q-6 9 -15 27q-49 98 -109 98q-25 0 -52 -23q-26 -22 -45 -58q-45 -91 -29 -197q17 -109 81 -151q18 -14 31 -17
q7 -2 38 0q37 3 70 23q35 22 53 48q20 30 34 38q17 10 40 7q80 -14 16 -100q-53 -71 -135 -96t-186 -4q-72 14 -121 59q-52 47 -74 114q-11 31 -14 52q-3 24 -3 74q0 52 3 75q3 20 14 51q16 42 40 75q28 38 58 61q33 26 70 39z" />
    <glyph glyph-name="D" unicode="D" horiz-adv-x="566" 
d="M77 677q43 11 67 13q21 1 40 -8q14 -8 85 -10q71 0 98 -7q50 -12 103 -65q55 -55 72 -106q15 -45 15 -122q0 -76 -17 -118q-12 -29 -34 -55q-27 -31 -53 -54q-28 -23 -59 -40l-40 -19l-156 -2q-158 -2 -163 5q-7 7 -5 254q1 136 -1 207q-2 47 -9 56q-9 13 -10 29t8 21
q11 6 59 21zM279 583q-26 8 -46 8q-21 0 -29 -9q-8 -11 -11 -204l-4 -194l17 -11q16 -11 37 -8q23 3 44 13q24 11 44 30q21 20 35 44q18 29 26 81q7 47 -1 97q-7 51 -20 68q-13 18 -13 24q0 8 -28 30q-31 24 -51 31z" />
    <glyph glyph-name="E" unicode="E" horiz-adv-x="512" 
d="M77 685q38 10 67 12q21 1 38 -8q16 -8 145 -10q71 0 88 -1q28 -2 36 -4q11 -3 15 -8q21 -23 -7 -57q-8 -8 -29 -9q-34 -2 -103 -1h-11q-92 1 -111 -7q-16 -7 -16 -60v-6v-10q0 -50 15 -57q17 -8 101 -7h20q99 0 119 -6t20 -32q0 -3 -0.5 -7t-0.5 -5q0 -4 -3 -9
q-2 -3 -6 -7q-2 -2 -12 -6q-1 0 -17 -3q-3 -1 -12 -1.5t-13 -0.5q-22 -2 -33 -2q-25 0 -43 -1q-117 -1 -126 -10q-9 -7 -9 -89v-9v-32q0 -15 2 -24l4 -18q2 -5 8 -10t13 -7q5 -2 20 -3q11 -1 27 -1q1 0 37 2h4h3h4q97 3 118 15q23 12 41 9t27 -20q6 -12 6 -17q0 -7 -6 -19
q-7 -14 -19 -20q-18 -9 -52 -19q-33 -10 -194 -10h-156q-18 15 -50 45l-4 237q-4 233 -10 261q-5 24 6 32q10 7 59 20z" />
    <glyph glyph-name="F" unicode="F" horiz-adv-x="500" 
d="M74 677q87 24 112 5q5 -3 13 -5q7 -1 25 -3q22 -2 42 -2h67q133 0 146 -6q14 -8 13 -26q-1 -16 -17 -32q-12 -12 -31 -14q-24 -2 -112 -2q-77 0 -107 -2q-21 -1 -26 -9q-7 -13 -8 -75q-1 -35 2 -54q2 -10 14 -15q18 -6 127 -5q87 0 110 -5q21 -5 21 -26q0 -16 -14 -33
l-14 -18h-116q-87 0 -100 -1q-18 -1 -23 -11q-8 -13 -8 -121v-5v-44q0 -18 -1 -30q-1 -18 -3 -24q-2 -7 -7 -15q-5 -7 -10 -10q-1 0 -3 -0.5t-5.5 -1t-6.5 -1.5q-12 -3 -20 -3h-30h-4q-62 0 -69 9q-7 7 -7 257q1 245 -9 264q-10 24 2 38q13 14 57 26z" />
    <glyph glyph-name="G" unicode="G" horiz-adv-x="599" 
d="M195 683q48 16 110 16q69 0 115 -14q50 -15 87 -44q34 -27 50 -69q10 -28 10 -34q0 -10 -6 -25q-3 -7 -12 -16q-7 -7 -15 -11q-9 -4 -22 -6q-16 -2 -29 -2q-29 0 -41 11q-11 10 -32 53q-26 51 -82 69q-23 7 -41 2q-16 -4 -41 -28q-41 -38 -59 -106q-18 -69 -9 -143
q9 -76 42 -123q34 -49 77 -55q44 -6 82 32q22 21 41 57q17 32 15 52q-1 12 -13 13l-50 2q-41 0 -55 2q-10 1 -20 16q-15 18 -18 34q-3 15 5 23q10 8 105 11q90 3 140 8q39 4 48 -5q13 -12 13 -96v-53v-15q0 -111 -9 -131t-65 -18h-7q-59 0 -74 6q-13 8 -34 -4
q-19 -11 -79 -14q-61 -3 -104 4q-48 7 -88 35q-53 35 -80 81t-36 120q-7 48 -2 112q4 53 21 94q23 59 65 99q43 41 97 60z" />
    <glyph glyph-name="H" unicode="H" horiz-adv-x="545" 
d="M445 695q59 16 80 1q9 -5 10 -49q2 -60 2 -246q0 -229 -5 -262q-6 -42 -27 -48q-12 -2 -64 -1q-65 0 -69 7q-6 7 -4 125q1 108 -6 127q-8 20 -44 22h-34h-10h-26q-7 0 -19 -3q-3 -1 -6.5 -1.5t-5.5 -1t-3 -0.5q-2 -1 -9 -10q-3 -4 -6 -13q-1 -4 -3 -22q-1 -11 -1 -29v-39
v-14q0 -104 -8 -123q-8 -20 -42 -23q-15 0 -33 -1q-66 -1 -73 4q-6 8 -5 255q0 166 -2 216q-1 35 -12 56q-16 26 -5 37t67 25q18 4 31 8q7 2 24 4q16 2 20 3q5 2 14 -3q3 -2 7 -3t4 -2q2 -2 6 -13q5 -13 5 -16q0 -12 1 -25t1 -30v-40v-109l17 -6q16 -8 76 -8q62 0 71 14
q10 15 7 91q-2 37 -6 99q-2 16 12 24q10 6 73 23z" />
    <glyph glyph-name="I" unicode="I" horiz-adv-x="189" 
d="M70 672q86 23 102 5q8 -8 8 -277v-270l-17 -13q-14 -8 -25 -11q-14 -3 -48 -3q-53 0 -62 9q-7 7 -4 234q3 228 -8 265q-10 29 -1 38q10 10 55 23z" />
    <glyph glyph-name="J" unicode="J" horiz-adv-x="254" 
d="M127 713q55 16 74 17q20 1 33 -7q10 -8 11 -41q2 -53 1 -196q-2 -163 -4 -197q-3 -43 -12 -70q-18 -51 -65 -90q-47 -40 -100 -49q-40 -7 -52 16q-11 23 17 56q18 22 32 50q11 21 12 52q1 33 0 185q-1 197 -4 233l-3 22z" />
    <glyph glyph-name="K" unicode="K" horiz-adv-x="532" 
d="M309 434q0 -4 24 -34q23 -29 23 -32q0 -6 26 -34q17 -18 61 -77q60 -79 77 -104q7 -8 -1 -21q-5 -9 -19 -10q-30 -3 -59 -4l-71 -2l-64 86q-87 117 -94 121q-2 1 -6 1q-14 0 -19 -22q-5 -23 -5 -77q0 -53 -2 -64q-3 -15 -12 -27q-10 -14 -21 -15q-16 -2 -58 -1l-64 2
l-5 248q-3 244 -8 268q-4 12 0 21q4 7 19 14q16 7 46 14q11 3 19.5 5t13.5 3q9 2 25 4q13 1 19 0t12 -6q8 -6 9 -11q4 -14 4 -18q0 -1 1.5 -11t1.5 -15v-34q0 -76 10 -84q9 -8 20 0q10 7 10 16q0 8 73 75l72 70l69 -2q69 -2 75 -10q9 -12 -41 -64l-55 -57
q-106 -106 -106 -112z" />
    <glyph glyph-name="L" unicode="L" horiz-adv-x="478" 
d="M76 685q50 13 65 13q20 0 32 -9q10 -8 11 -41q2 -34 3 -201q2 -231 4 -241q4 -10 83 -10t118 12q27 7 37 7q8 0 21 -10q29 -21 14 -42q-13 -19 -68 -33q-33 -8 -65 -11q-23 -2 -117 -2q-87 0 -117 2q-21 1 -37 11q-12 9 -18 18t-10 21q-6 17 -7 46q-1 11 -1.5 34t-0.5 35
q-1 25 -1 114q0 206 -8 232q-8 24 3 33q11 10 59 22z" />
    <glyph glyph-name="M" unicode="M" horiz-adv-x="620" 
d="M513 695q33 10 60 10q25 0 32 -13q7 -12 5 -281l-2 -269l-16 -13q-12 -9 -24 -10q-20 -2 -53 -1l-60 2l2 123q3 122 -3 122q-7 0 -30 -47q-20 -42 -37 -87q-16 -44 -27 -55q-13 -13 -39 -13q-23 0 -36 11q-12 10 -25 46q-10 30 -35 82q-21 42 -27 43q-10 0 -12 -83v-22
q0 -66 -2 -86q-1 -15 -13 -25q-14 -9 -25 -10q-20 -2 -52 -1l-61 2l-3 248q-4 247 -14 266q-6 12 -6 17t6 11q7 7 54 20q44 12 69 12q18 1 25 -3t17 -17q14 -23 18 -33q13 -32 18 -46q11 -33 13 -37q12 -26 59 -156q21 -57 34 -57q5 2 11 6q6 7 26 57q22 54 41 103
q22 58 23 60q0 1 23 62q8 24 24 40q13 13 42 22z" />
    <glyph glyph-name="N" unicode="N" horiz-adv-x="544" 
d="M422 689q64 17 78 16q17 -2 26 -23q10 -27 10 -256q0 -176 -5 -236q-4 -53 -19 -65q-14 -9 -64 -9q-53 0 -66 7q-5 3 -17 20q-8 11 -22 35t-22 37q-3 5 -6.5 10.5t-4.5 8.5l-2 3q-8 14 -15 28q-14 29 -53 103q-27 51 -35 62q-15 15 -20 -6q-4 -21 -4 -134v-140l-17 -18
q-12 -12 -23 -13q-18 -2 -55 -1l-62 2l-6 251q-3 244 -6 274l-2 24l67 16q12 2 19 5q53 14 74 -9q20 -21 100 -174q6 -11 16 -30t14 -27q30 -58 46 -81q18 -26 25 -23q8 2 5 132q-1 130 -14 152q-12 23 0 35q10 11 60 24z" />
    <glyph glyph-name="O" unicode="O" horiz-adv-x="540" 
d="M175 685q28 9 45 10q31 2 65 1q65 -1 97 -15q32 -13 72 -54q44 -46 59 -81q16 -37 17 -104q5 -98 -13 -161q-19 -67 -60 -110q-16 -16 -34 -29q-16 -12 -35 -19q-20 -7 -48 -15q-106 -27 -192 17q-85 44 -119 145q-14 37 -16 57q-3 24 -3 68q0 85 21 142q21 56 69 100
q39 35 75 48zM323 594q-59 63 -116 -19q-20 -28 -29 -62q-9 -33 -12 -92q-4 -82 16 -146q19 -61 58 -86q24 -14 42 -11q17 3 41 30q35 36 50 105t5 146q-11 86 -55 135z" />
    <glyph glyph-name="P" unicode="P" horiz-adv-x="464" 
d="M66 659q46 11 63 11q21 0 37 -8q20 -10 95 -10q62 0 92 -9q28 -8 62 -41q25 -24 33 -45q8 -22 8 -68q0 -37 -3 -51q-3 -13 -17 -35q-20 -32 -40 -47q-19 -14 -58 -28q-46 -18 -99 -18q-56 0 -63 -7q-8 -8 -8 -76q0 -71 -10 -82q-10 -12 -71 -12h-62l2 221q2 147 0 188
q-1 38 -10 57q-11 24 -2 37q8 10 51 23zM262 572q-23 13 -52 13q-27 0 -35 -13q-7 -14 -7 -93t10 -88q11 -9 44 -5q35 5 50 15q17 11 30 40t13 53q0 15 -7 30q-6 14 -19 28q-10 12 -27 20z" />
    <glyph glyph-name="Q" unicode="Q" horiz-adv-x="544" 
d="M164 646q34 12 91 12q59 0 90 -10q34 -12 69 -46q35 -33 55 -74q27 -55 28 -118q2 -66 -19 -163q-3 -13 2 -21q3 -6 25 -21q19 -15 25 -22t6 -22q0 -32 -25 -40q-23 -7 -57 16l-33 21l-33 -20q-35 -21 -58 -27q-24 -7 -80 -7q-52 0 -81 8q-22 6 -44 21q-24 16 -44 36
t-33 43q-34 56 -37 153q-3 96 24 159q15 35 57 74t72 48zM304 557q-16 19 -24 23q-10 5 -26 5q-8 0 -18 -2q-8 -1 -14 -8l-18 -18q-29 -35 -37 -63q-10 -32 -11 -99q-2 -80 9 -120q12 -46 41 -73q24 -23 37 -27q12 -4 30 4q24 12 39 33t27 59q24 73 13 158t-48 128z" />
    <glyph glyph-name="R" unicode="R" horiz-adv-x="465" 
d="M377 328q0 -5 23 -52q24 -50 24 -52q0 -8 16 -40q27 -54 10 -73q-8 -8 -65 -8h-54l-18 35q-12 23 -40 95q-23 59 -34 72q-9 10 -26 12q-14 1 -31 -7q-10 -5 -11 -19q-2 -20 -2 -73v-49q0 -15 -3 -31q-3 -15 -6 -20q-3 -4 -15 -9q-16 -6 -21 -6h-32q-55 0 -60 8
q-5 9 -4 225q1 130 -1 188q-1 36 -10 53q-20 40 26 50q13 1 43 10q20 7 45 7q20 0 38 -9q16 -8 97 -10q46 0 58 -1q15 -1 28 -5q5 -1 28 -13q25 -14 39 -28q15 -15 24 -33t12 -41q6 -52 -2 -80q-7 -26 -40 -57q-36 -36 -36 -39zM267 544q-25 14 -56 14q-16 0 -20 -1t-9 -6
q-4 -4 -7 -11q-6 -15 -4 -78q2 -46 4 -53q4 -11 14 -16q19 -9 53 -1t51 25q9 9 12 15q4 7 5 14q1 5 1 23q0 35 -8 48q-9 15 -36 27z" />
    <glyph glyph-name="S" unicode="S" horiz-adv-x="466" 
d="M133 653q37 13 100 13q65 0 103 -12q51 -17 89 -62q39 -46 27 -77q-2 -4 -11 -13q-10 -10 -16 -13q-11 -5 -20 -8q-11 -3 -20 -3q-40 0 -64 49q-11 21 -18 33q-6 10 -17 19q-8 7 -18 10q-9 3 -22 3q-12 0 -20 -2q-7 -2 -11 -6q-5 -5 -11 -14q-24 -38 -7 -82
q11 -27 117 -64q87 -30 124 -81q14 -19 17 -31q3 -14 3 -48q0 -46 -12 -68q-13 -24 -46 -50q-51 -40 -182 -35q-71 3 -101 18q-23 12 -39 24q-18 13 -29 27t-22 34q-14 24 -16 34q-2 9 5 21q9 18 35 24l26 7l48 -51q52 -55 89 -64q38 -9 71 25q13 14 16 21q3 9 3 29
q0 30 -7 44q-5 8 -19 18q-16 11 -38 20q-27 11 -41 14q-37 10 -72 27q-33 16 -57 38t-31 42q-9 21 -9 56t10 58q8 22 35 44q24 20 58 32z" />
    <glyph glyph-name="T" unicode="T" horiz-adv-x="491" 
d="M11 629q1 5 44 7q64 2 192 1l233 -2l2 -15q2 -16 -8 -32q-7 -10 -19 -14q-11 -3 -59 -3q-61 0 -67 -6l-6 -11q-7 -18 -7 -214v-38q0 -140 -9 -163t-62 -21h-15l-58 2l-2 217q-1 215 -9 226q-8 9 -51 8q-45 -1 -57 0q-10 1 -28 24q-19 23 -14 34z" />
    <glyph glyph-name="U" unicode="U" horiz-adv-x="514" 
d="M387 675q60 18 84 15q25 -3 32 -30q5 -23 1 -213q-3 -134 -6 -170q-3 -38 -14 -64q-18 -44 -46 -69q-40 -38 -63 -44q-28 -7 -111 -7h-104l-35 22q-33 23 -48 42q-19 23 -33 59q-10 24 -12 55q-2 40 -2 149q0 94 -2 142q-1 33 -10 55q-8 22 -8 27q0 4 9 12q13 10 26 10
t47 9q64 20 86 -1q12 -10 12 -224q0 -178 6 -217t35 -56q20 -13 37 -13q16 0 32 13q10 8 19 19q8 11 12 20q6 15 7 39t3 59q0 9 0.5 23t1 35.5t0.5 38.5q1 114 0 150q-1 35 -9 55q-12 30 -5 36q7 7 58 23z" />
    <glyph glyph-name="V" unicode="V" horiz-adv-x="518" 
d="M10 656q4 6 20 7q25 2 66 1l82 -2l11 -33q73 -224 73 -239q0 -11 10 -20q16 -12 34 26q11 26 23 63q7 23 15 46q8 21 12 33q9 24 11 30q7 20 12 40q13 41 18 49q9 9 58 9q39 0 50 -9q10 -8 -4 -35q-12 -24 -12 -33q0 -12 -12 -39q0 -1 -53 -146q-3 -10 -15 -41t-20 -53
q-1 -4 -5 -14.5t-6 -17.5q-50 -136 -63 -159q-14 -23 -49 -23h-7q-41 0 -52 13q-9 13 -13 19q-14 24 -15 28q-2 5 -5.5 13.5t-5.5 12.5q-1 1 -36 105q-19 51 -55 157q-44 130 -45 133q-24 70 -22 79z" />
    <glyph glyph-name="W" unicode="W" horiz-adv-x="662" 
d="M181 629q0 -18 10 -61q11 -47 11 -63q0 -12 3 -27q1 -2 9 -28q4 -13 11 -23q6 -9 9 -9q9 0 12 11q6 23 9 53q8 58 17 83q11 43 14 59q5 27 17 34q14 8 51 8t53 -11q15 -11 20 -42q3 -30 9 -42q8 -13 17 -64q17 -78 31 -79q16 -2 28 70q26 145 34 159q5 9 50 9
q49 0 55 -12t-10 -67q-2 -9 -43 -180q-36 -151 -42 -174q-1 -6 -5.5 -25t-7.5 -31q-6 -28 -17 -53q-7 -15 -22 -22q-14 -6 -43 -6h-6q-40 0 -52 24q-11 22 -46 165q-5 17 -6 25q-15 64 -25 64q-4 0 -8 -4q-9 -6 -9 -29q0 -16 -14 -86q-14 -69 -25 -101q-8 -29 -15 -39
q-8 -11 -19 -15t-39 -4q-35 0 -51 6q-17 6 -21 19q-9 25 -68 310q-5 26 -12 60t-11 55.5t-8 36.5q-12 51 -15 55q-5 8 3 17q8 11 80 11q56 0 73 -7q14 -6 14 -30z" />
    <glyph glyph-name="X" unicode="X" horiz-adv-x="499" 
d="M15 655q9 11 87 11q79 0 86 -10q10 -12 28 -48q16 -32 32 -50q14 -15 24 -11q10 3 36 45q1 2 3.5 6t3.5 6q28 46 41 54q14 8 54 7q4 -1 9 -1q38 -2 49 -4q12 -3 14 -9q2 -14 -79 -133q-66 -98 -66 -109q0 -9 99 -179q25 -42 26 -47q6 -12 17 -26q9 -12 11 -30
q1 -16 -8 -22q-8 -5 -78 -3q-56 2 -64 4q-11 3 -24 19q-16 18 -43 68q-25 44 -39 46q-7 1 -16 -8t-21 -29q-3 -5 -18 -27.5t-26 -39.5l-21 -29h-59q-34 0 -52 3q-10 2 -11 12q-1 15 72 124q29 42 47 71q14 23 22 43q7 18 5 30q-1 8 -12 26q-72 125 -83 140q-2 5 -16 31
q-10 19 -26 41q-6 10 -8 17q-1 4 4 11z" />
    <glyph glyph-name="Y" unicode="Y" horiz-adv-x="529" 
d="M12 656q9 10 83 10q73 0 85 -12q13 -13 13 -18q0 -11 47 -104q48 -95 52 -95q7 0 19 21q16 28 51 98q51 101 62 106q11 4 49 4q41 0 46 -12q6 -13 -35 -91q-11 -19 -14 -26q-70 -132 -94 -180l-37 -70v-77q0 -82 -11 -94q-12 -13 -79 -12l-67 2l2 91l2 90l-54 107
q-52 106 -66 130q-66 118 -54 132z" />
    <glyph glyph-name="Z" unicode="Z" horiz-adv-x="497" 
d="M23 654q3 9 39 10q48 2 181 2q215 0 224 -9q8 -8 8 -32q0 -18 -23 -59q-16 -29 -93 -146q-2 -3 -8 -12.5t-17 -26t-22 -34.5t-22 -34.5t-17.5 -26t-8.5 -12.5q-19 -30 -39 -59q-14 -18 -5 -27q5 -5 102 -5q99 0 118 5t33 -8q15 -14 15 -30q0 -14 -4 -19q-5 -6 -23 -14
q-23 -11 -56 -12q-48 -2 -175 -2h-17q-144 0 -178 6q-25 4 -25 37v4q0 25 23 56q20 29 20 33q0 2 83 127q126 192 126 193q8 11 4 22q-3 8 -17 9q-20 2 -59 2q-71 0 -97 -8q-18 -5 -23 -4q-10 2 -16 8q-14 11 -25 35q-10 22 -6 31z" />
    <glyph glyph-name="bracketleft" unicode="[" 
 />
    <glyph glyph-name="bracketright" unicode="]" 
 />
    <glyph glyph-name="a" unicode="a" horiz-adv-x="416" 
d="M128 492q21 5 97 6q52 0 70 -3q20 -3 42 -13q35 -18 51 -46q12 -21 15 -43q2 -18 4 -123q3 -136 -4 -145q-5 -9 -76 -8q-73 2 -104 -7q-37 -9 -81 -6q-49 3 -74 17q-45 22 -55 66q-11 46 19 86q22 29 46 41q25 11 35 18q16 6 64 13q51 7 70 17q18 9 18 29q0 11 -5 19
t-17 11t-30 3q-30 0 -41 -7q-12 -7 -31 -37q-18 -27 -25 -31q-8 -5 -31 -5q-30 0 -46 11q-14 10 -14 34q0 36 27 63q26 26 76 40zM267 257q2 15 -1 19q-4 6 -14 7q-9 1 -27 -6q-17 -7 -25 -7q-29 0 -42 -32q-14 -34 7 -55q13 -13 23 -13t31 15q45 30 48 72z" />
    <glyph glyph-name="b" unicode="b" horiz-adv-x="460" 
d="M91 650q8 8 37 8q22 0 29 -6q8 -6 11 -23t3 -57q0 -61 7 -65q10 -5 83 -5q54 0 69 -3q13 -3 40 -20q9 -6 23 -18q9 -8 17 -20q9 -15 18 -31q17 -34 20 -50q4 -22 4 -58q0 -57 -14 -93q-14 -35 -51 -71q-36 -32 -66 -41q-31 -10 -84 -5q-35 4 -120 9q-74 4 -85 11
q-10 5 -5 223q4 215 -8 240q-13 21 -7 35q6 13 36 22q34 9 43 18zM280 404q-16 19 -38 21t-37 -18q-17 -21 -23 -49q-6 -25 -4 -73q4 -98 50 -116q13 -5 21 -2q11 3 19 12q8 8 19 27q25 42 22 104q-3 64 -29 94z" />
    <glyph glyph-name="c" unicode="c" horiz-adv-x="394" 
d="M170 484q86 8 133 -15q26 -12 53 -45q28 -34 28 -50q0 -12 -9 -22t-23 -16q-12 -5 -31 -5q-17 0 -25 3q-6 2 -14 12q-6 7 -27 38q-15 24 -37 26q-38 3 -58 -32q-20 -36 -16 -98q1 -23 7 -44q4 -16 14 -29q7 -10 28 -27q40 -29 100 37q18 20 29 27q10 6 23 6q37 0 40 -25
q3 -24 -29 -59q-27 -30 -50 -41q-22 -10 -73 -15q-52 -6 -91 2q-38 8 -69 33q-64 54 -63 145q0 118 91 172q33 19 69 22z" />
    <glyph glyph-name="d" unicode="d" horiz-adv-x="423" 
d="M328 622q7 8 39 10t40 -8q8 -8 8 -250q0 -241 -9 -253q-5 -9 -22 -12q-25 -5 -60 -7q-21 -2 -41 -3q-9 -1 -24 -2.5t-21 -1.5q-21 -1 -30 -3q-41 -4 -76 6q-30 9 -61 38q-35 35 -48 65t-13 86q0 34 4 58q3 17 18 46q10 21 16 30q10 14 16 20q9 9 24 18q25 16 40 19
q12 2 67 4q72 2 78 5q9 5 7 34q-1 25 -10 44q-11 18 -4 28q6 9 31 14q22 4 31 15zM236 403q-38 19 -63 -12q-26 -32 -27 -97q0 -48 8 -70q4 -13 13 -28q8 -14 22 -24q12 -9 22 -9q14 0 32 21q16 18 24 45q13 48 3 105q-10 56 -34 69z" />
    <glyph glyph-name="e" unicode="e" horiz-adv-x="406" 
d="M136 492q20 7 81 5q58 -1 76 -9q42 -17 71 -60q27 -40 32 -96q2 -41 -6 -50q-12 -12 -86 -12h-31q-107 0 -118 -10q-9 -9 6 -34q43 -82 126 -27q48 33 59 37q7 2 24 -6q28 -16 16 -43q-11 -25 -62 -56q-21 -12 -38 -15q-16 -3 -73 -3q-79 0 -98 6q-22 5 -54 38
q-30 31 -38 57q-18 63 -11 118q7 56 38 97q37 48 86 63zM234 415q-23 15 -50 5q-10 -4 -22 -35t-6 -36q6 -6 51 -6t52 7t-2 31q-9 25 -23 34z" />
    <glyph glyph-name="f" unicode="f" horiz-adv-x="372" 
d="M190 627q13 4 75 2q32 -1 53 -6q19 -4 30 -13q9 -8 9 -20q0 -20 -11 -25q-14 -7 -44 -7q-26 0 -32 -2q-9 -3 -13 -10q-7 -14 -7 -38q0 -23 9 -28q7 -4 54 -9q35 -2 42 -5q6 -3 7 -16q2 -24 -9 -31q-13 -8 -46 -8q-41 0 -49 -8t-8 -134q0 -24 -0.5 -52.5t-0.5 -33.5
q0 -24 -3 -36q-3 -13 -9 -20q-11 -13 -21 -15q-16 -2 -52 -1l-58 2q-3 96 -7 288l-32 1q-30 2 -45 13q-14 11 -12 32q1 14 7 18q5 4 32 5q34 1 44 10q9 8 9 32q0 43 25 75t63 40z" />
    <glyph glyph-name="g" unicode="g" horiz-adv-x="421" 
d="M105 484q20 11 48 13q21 1 132 -5q4 -1 58 4q46 4 58 -4q12 -9 12 -146q0 -134 -13 -176q-21 -77 -69 -101q-26 -13 -30 -20q-5 -6 -99 -6h-96l-32 22q-35 23 -36 40q-3 28 17 36q19 7 54 -11q27 -13 63 -17q25 -3 37 -1q9 1 30 14q26 17 24 30q-2 5 -3 5q-3 1 -12 3
q-12 2 -21 3q-5 1 -18 1.5t-19 0.5q-71 2 -97 14t-47 35q-22 23 -29 45q-7 20 -7 60t7 64q5 21 34 53q25 28 54 44zM243 409q-27 26 -48 21q-20 -5 -38 -39q-21 -41 -11 -87t45 -66q14 -7 18 -7t17 8q24 17 33 36q8 17 8 61q0 36 -3 45q-4 11 -21 28z" />
    <glyph glyph-name="h" unicode="h" horiz-adv-x="408" 
d="M75 607q57 17 70 5q14 -12 14 -73q0 -54 7 -58q8 -5 76 -5q51 -2 62 -4q14 -3 31 -16q38 -30 52 -75q12 -40 12 -152q0 -95 -10 -111t-70 -14l-57 2l-1 121q-2 123 -11 145q-13 33 -38 30q-23 -3 -41 -40q-7 -16 -10 -43q-2 -16 -2 -87q0 -97 -11 -114q-10 -16 -70 -14
l-56 2l-5 222q-4 214 -7 236q-2 16 10 23q13 8 55 20z" />
    <glyph glyph-name="i" unicode="i" horiz-adv-x="184" 
d="M85 626q33 3 44 5q5 0 25 -17q15 -12 18 -20q3 -9 3 -36t-3 -36q-3 -8 -18 -20q-8 -8 -16 -11q-10 -4 -16 -5q-12 -2 -24 -2q-17 0 -33 4q-10 2 -23 14q-8 5 -14 14q-4 6 -6 14q-2 10 -2 25q0 36 14 52q13 14 51 19zM54 441q14 8 57 10q40 1 49 -8q7 -7 4 -157
q-3 -151 -10 -165q-5 -8 -16 -9q-8 -1 -49 -1l-58 2l-2 136q-2 85 -3 113q-1 27 -10 39q-8 14 -5 22t16 8q13 2 27 10z" />
    <glyph glyph-name="j" unicode="j" horiz-adv-x="226" 
d="M105 640q54 12 83 -8t29 -66q0 -20 -3 -29q-4 -11 -14 -20q-10 -10 -22 -13q-8 -2 -42 -2q-44 0 -58 13q-15 13 -15 53q0 30 12 49q12 20 30 23zM87 452q34 12 74 11l40 -2v-294l-19 -32q-20 -34 -54 -61q-27 -22 -36 -26q-12 -5 -38 -5q-34 0 -41 9q-8 10 5 30
q31 49 39 80q7 30 9 123q1 115 -8 128q-10 13 -4 21t33 18z" />
    <glyph glyph-name="k" unicode="k" horiz-adv-x="431" 
d="M97 632q45 12 58 -8q13 -21 12 -106v-95q1 -33 60 21q36 33 51 38q11 3 73 1q60 -2 62 -14q-1 -13 -65 -66q-67 -57 -67 -67q0 -13 70 -95q71 -86 71 -94q0 -9 -7 -14t-22 -8q-10 -2 -43 -2h-10q-38 0 -51 9q-11 7 -52 59q-3 5 -9 11q-43 55 -49 55q-8 0 -12 -19
q-4 -16 -2 -45q2 -22 0 -31q-1 -8 -11 -21q-12 -12 -22 -15q-8 -2 -45 -4q-51 -1 -58 3q-10 5 -10 219q0 213 -6 231q-5 13 -2 20q3 8 12 14q10 7 28 11q1 0 4 1t8.5 2t10.5 2q7 2 14.5 4.5t8.5 2.5z" />
    <glyph glyph-name="l" unicode="l" horiz-adv-x="172" 
d="M82 631q39 13 49 13q9 0 20 -10q9 -9 10 -44q2 -50 2 -203q0 -199 -6 -227q-4 -31 -28 -36q-2 -1 -49 1l-58 2l-3 223q-1 225 -7 240q-4 12 5 18q6 4 65 23z" />
    <glyph glyph-name="m" unicode="m" horiz-adv-x="552" 
d="M69 477q23 4 105 4q76 -2 92 -12q15 -11 31 -11q13 0 43 14q36 15 80 12t69 -24q35 -27 44 -60q10 -33 11 -135v-8q2 -111 -8 -130q-9 -18 -67 -16h-3l-58 2l-2 137q-1 101 -7 131q-5 24 -24 21q-14 -1 -19 -27q-3 -19 -5 -121v-7q-2 -101 -10 -117q-9 -17 -65 -17h-3
h-60l-3 140q-1 87 -5 117q-3 26 -9 30q-12 7 -26 -5q-10 -9 -11 -29q-2 -26 -2 -106v-7q0 -106 -10 -126q-9 -18 -67 -16h-4l-57 2v144q0 145 -6 172q-4 16 -2 24q1 6 12 12q14 8 46 12z" />
    <glyph glyph-name="n" unicode="n" horiz-adv-x="404" 
d="M58 475q24 6 39 6q30 0 48 -1q33 -2 42 -1q62 3 91 0q30 -3 54 -16q21 -12 30 -21q11 -11 19 -30q6 -16 9 -32q2 -12 4 -40q1 -17 1 -84q0 -123 -9 -135q-4 -7 -17 -9q-8 -1 -47 -1l-58 2l2 97q3 153 -23 182q-12 13 -32 10t-33 -20q-9 -12 -12 -34q-4 -25 -5 -101
q-3 -117 -14 -126t-58 -12q-49 -3 -60 3q-9 5 -9 152t-7 164q-7 18 3 28t42 19z" />
    <glyph glyph-name="o" unicode="o" horiz-adv-x="408" 
d="M118 480q22 11 86 11t86 -8q28 -12 54 -37q27 -26 39 -51q17 -35 17 -90q0 -50 -19 -91q-46 -104 -181 -104q-62 0 -109 30t-66 81q-16 43 -15 86q1 46 17 80q14 31 39 56q24 24 52 37zM237 409q-18 19 -28 21q-9 2 -27 -13q-38 -29 -38 -115q0 -37 9 -68q8 -26 27 -44
q36 -32 68 23q25 43 22 102q-3 60 -33 94z" />
    <glyph glyph-name="p" unicode="p" horiz-adv-x="432" 
d="M202 484q105 14 162 -32q59 -47 59 -142q0 -84 -45 -128q-16 -15 -24 -20q-16 -12 -21 -14q-12 -6 -25 -9q-10 -2 -28 -4q-14 -1 -38 -3q-67 -2 -73 -5q-7 -4 -7 -37q0 -22 -3 -30t-15 -17q-13 -10 -24 -11q-18 -2 -44 -1l-51 2v190q0 189 -10 207q-9 15 0 25q9 12 48 21
t68 6q28 -3 71 2zM254 408q-17 11 -31 8t-32 -21q-11 -11 -13 -14q-3 -4 -6 -14q-4 -12 -4 -19v-34q0 -60 15 -85t48 -25q18 0 35 23q26 36 22 97q-5 63 -34 84z" />
    <glyph glyph-name="q" unicode="q" horiz-adv-x="418" 
d="M155 484q67 8 110 -6q18 -6 38 0q16 7 62 5l43 -2l2 -215q1 -127 -1 -182q-1 -36 -9 -42q-12 -9 -69 -9h-58v44q0 42 -5 50t-64 4q-45 -2 -58 1q-19 4 -40 15q-43 21 -69 62q-24 39 -26 84t12 86q14 42 49 70q37 29 83 35zM236 407q-35 24 -64 -8t-29 -95q0 -24 13 -56
q12 -30 26 -37q36 -19 62 10t26 90q0 72 -34 96z" />
    <glyph glyph-name="r" unicode="r" horiz-adv-x="316" 
d="M218 483q45 12 70 5q22 -6 19 -31q-1 -11 -9 -17q-4 -4 -45 -23q-34 -15 -60 -52l-28 -36l-4 -97q-1 -60 -5 -82q-3 -18 -11 -24q-15 -10 -65 -10q-51 0 -57 9q-5 9 -4 145q2 139 -5 157q-4 11 -4 17q0 7 7 14q11 13 48 20q39 8 60 4q51 -9 93 1z" />
    <glyph glyph-name="s" unicode="s" horiz-adv-x="367" 
d="M125 502q27 5 52 5q16 0 70 -8q11 -2 33 -10q11 -4 29 -16q13 -9 22 -19q10 -11 11 -21q7 -23 -11 -43q-18 -19 -46 -19q-13 0 -46 33q-31 30 -42 32q-14 3 -31 -13q-26 -25 -8 -48q17 -22 80 -37q98 -25 113 -65q7 -15 7 -50q0 -25 -4 -34t-24 -29q-17 -19 -32 -27
q-12 -7 -40 -13q-60 -12 -115 -6q-56 6 -95 29q-18 10 -29 25q-9 12 -9 30q0 29 27 32t63 -20q65 -41 100 -13q16 13 17 29t-14 27q-16 11 -64 20q-61 12 -90 35q-30 24 -36 59q-7 53 21 87t91 48z" />
    <glyph glyph-name="t" unicode="t" horiz-adv-x="376" 
d="M93 571q3 8 70 8q54 0 70 -9q13 -7 8 -41q-5 -33 6 -42q12 -11 60 -15q31 -1 45 -6q9 -3 10 -13q2 -15 -5 -28q-4 -9 -14 -12q-6 -2 -42 -2q-48 0 -56 -8t-8 -92q0 -83 12 -107q5 -12 6 -13l6 -6q4 -4 13 -3q12 2 18 2q9 0 33 3q24 2 27 1q7 -2 12 -11q11 -20 -9 -40
q-19 -19 -62 -29q-74 -20 -123 -2t-61 68q-7 38 -7 124q0 82 -6 99t-33 11q-14 -2 -19 0q-4 2 -18 12q-18 18 -16 33q1 10 8 13q7 4 28 5q36 5 46 13q8 7 10 31q1 22 -6 37q-7 13 -3 19z" />
    <glyph glyph-name="u" unicode="u" horiz-adv-x="397" 
d="M298 482q5 0 9 1q63 12 71 -6q10 -22 10 -146v-20q0 -156 -8 -175q-3 -6 -6 -9t-13 -6q-1 0 -23 -3q-4 -1 -18.5 -2t-24.5 -2q-91 -6 -131 -6q-37 -2 -56 4q-19 5 -35 20q-12 11 -29 41l-7 14l-5 10q-3 7 -6 26q0 1 -3 35q-2 18 -3 61q-4 107 -9 119q-5 11 7 21
q18 15 69 23q49 7 59 -6q9 -14 10 -135q2 -100 7 -126q6 -29 24 -38q29 -15 53 29q6 12 7 21q2 13 3 34q1 15 1 63q0 94 -6 117q-4 19 4 26q10 8 49 15z" />
    <glyph glyph-name="v" unicode="v" horiz-adv-x="399" 
d="M166 429q5 -15 14 -35q13 -29 13 -37q0 -12 14 -32q8 -11 12.5 -16t7.5 -4q5 1 33 61q27 58 27 69q0 16 20 29q22 14 43 14q37 0 40 -18q3 -17 -28 -79q-8 -17 -50 -111q-53 -119 -67 -139q-15 -21 -48 -21q-11 0 -16 1q-3 1 -7 2.5t-6 1.5q-6 1 -11 5q-1 1 -5 3t-5 3
q-4 3 -6 9t-2 8q0 8 -22 55q-104 230 -107 254q-1 6 1 10t7 6q8 3 18 4q21 3 61 5q22 1 32 -2q6 -2 19 -18q18 -21 18 -28z" />
    <glyph glyph-name="w" unicode="w" horiz-adv-x="492" 
d="M22 470q10 7 56 4t56 -11q9 -5 16 -48q6 -33 13 -49t15 -15q0 1 2 2l2 1q6 6 18 50q11 45 21 55q13 13 43 13q32 0 40 -11q10 -15 21 -45q12 -34 12 -49q0 -16 7 -20q13 -9 27 26q9 30 11 38q12 43 25 55t48 10q18 -2 22 -4q4 -3 6 -20q2 -25 -7 -48q-14 -31 -52 -174
q-1 -4 -5 -16.5t-8.5 -28t-8.5 -31.5q-8 -30 -17 -36q-11 -8 -45 -8q-35 0 -41 9q-5 5 -13 28q-2 5 -7.5 21.5l-8.5 25.5q-7 22 -7 32q0 16 -9 24q-7 6 -14 -1.5t-15 -28.5q-7 -18 -11 -37q-14 -50 -24 -62q-10 -11 -47 -11q-38 0 -46 8q-6 8 -24 76l-4 16q-51 195 -56 220
q-6 33 6 40h3z" />
    <glyph glyph-name="x" unicode="x" horiz-adv-x="392" 
d="M53 472q61 9 88 2q26 -7 48 -37q16 -23 23 -25q6 -3 35 27q16 18 29 26q10 6 36 9q40 5 49 1q14 -8 10 -22q-4 -15 -20 -38q-14 -22 -32 -44q-20 -26 -29 -40q-11 -18 -9 -27q4 -15 35 -56q71 -100 67 -116q-2 -9 -13 -10q-23 -3 -57 -4l-67 -2l-28 38q-27 36 -37 36
q-7 0 -31 -30q-24 -32 -36 -37q-14 -6 -55 -6q-21 0 -27 1q-10 2 -14 3q-5 2 -7 7q-4 10 7 27q12 18 54 68q45 55 45 69q0 12 -47 82q-47 69 -45 82q1 12 28 16z" />
    <glyph glyph-name="y" unicode="y" horiz-adv-x="439" 
d="M40 477q4 7 41 7t49 -6q14 -8 38 -77q8 -24 20 -52q7 -17 16 -26q8 -8 15 0q7 9 15 27q5 12 19 54q8 31 22 53q14 21 25 24q14 4 68 2q51 -1 59 -12q7 -11 -12 -54q-12 -27 -31.5 -70t-26.5 -59q-17 -40 -43 -91q-21 -42 -33 -63t-27 -39q-17 -20 -26 -26
q-22 -14 -27 -16q-20 -11 -28 -13q-9 -2 -25 -4q-9 -1 -34 -1q-48 2 -75 13q-29 12 -29 31q0 35 51 29q32 -3 50 6q16 8 29 36q8 22 5 38q-2 14 -31 79q-29 69 -44 106q-27 67 -30 80q-4 18 0 24z" />
    <glyph glyph-name="z" unicode="z" horiz-adv-x="380" 
d="M25 474q7 9 166 11q158 2 166 -9q12 -15 13 -23q2 -11 -12 -36q-7 -12 -39 -57q-25 -34 -79 -100q-42 -51 -40 -59q3 -8 80 -11q76 -4 85 -9q8 -7 7 -24t-12 -29q-8 -8 -34 -9q-36 -2 -138 -2q-162 0 -170 8q-12 11 -7 37q4 25 21 49q20 27 64 79q30 36 70 81
q27 30 20 37t-68 9q-72 2 -82 12q-12 12 -15 24q-3 14 4 21z" />
    <glyph glyph-name="braceleft" unicode="{" horiz-adv-x="317" 
d="M155 647q11 4 79 4q47 0 56 -1q14 -2 17 -9q4 -11 -4 -23q-7 -10 -25 -16q-6 -2 -20 -9q-6 -3 -11 -8q-6 -6 -7 -18q0 -5 -1 -14t-1 -13t-0.5 -10.5t-1 -16t-0.5 -17.5q0 -44 -4 -72q-3 -19 -11 -39q-11 -22 -11 -28q0 -7 9 -25q8 -17 11 -38q2 -16 2 -86q2 -100 8 -106
q9 -7 36 -14q17 -5 24 -10q5 -4 7 -13q5 -24 -12 -30q-15 -5 -75 -4q-60 3 -75 10t-34 43q-9 19 -13 40q-3 18 -3 76q0 48 -1 59q-2 18 -4 25q-3 8 -12 19q-19 20 -35 23q-19 2 -28 20q-5 13 -5 19t7 17q12 16 31 19q25 6 35 25q9 18 12 81q1 38 9 73q6 26 19 44
q11 15 32 23z" />
    <glyph glyph-name="bar" unicode="|" 
 />
    <glyph glyph-name="braceright" unicode="}" horiz-adv-x="317" 
d="M12 641q1 7 17 9q20 2 60 2q57 0 66 -2q13 -3 28 -15q17 -14 25 -27t11 -33q4 -25 5 -65q3 -60 12 -84q7 -19 35 -25q20 -3 30 -19q8 -13 8 -17q0 -7 -6 -19q-9 -19 -27 -20q-16 -3 -32 -20q-12 -12 -15 -28q-4 -20 -5 -80q-3 -62 -6 -82q-2 -15 -16 -41q-19 -30 -40 -37
q-24 -8 -82 -8q-44 0 -58 6t-11 29q1 13 26 21l15 5l10 5q2 1 5 3t4 2q2 1 6 11q3 8 3 13q0 1 2 21t2 27q0 20 1 36q2 99 14 123q10 20 10 25q0 7 -12 28q-8 20 -11 40q-2 18 -4 77l-2 86l-29 10q-49 16 -39 43z" />
    <glyph glyph-name="asciitilde" unicode="~" horiz-adv-x="506" 
d="M148 465q35 4 63 1q10 -2 33 -10q16 -6 66 -33q35 -19 44 -19q10 0 40 24q38 29 68 23q31 -6 35 -43q1 -9 -1 -21q-1 -7 -8 -21q-6 -12 -21 -36q-25 -38 -34 -45q-14 -11 -38 -20q-50 -20 -85 -14q-36 6 -109 44q-40 21 -54 19q-15 -2 -49 -27q-40 -29 -73 -5
q-25 17 -9 64t61 86q12 10 16 13l12 9q5 4 13 6t13 3q3 1 8.5 1.5t8.5 0.5z" />
    <glyph glyph-name="cent" unicode="&#xa2;" 
 />
    <glyph glyph-name="sterling" unicode="&#xa3;" 
 />
    <glyph glyph-name="section" unicode="&#xa7;" 
 />
    <glyph glyph-name="questiondown" unicode="&#xbf;" 
 />
    <glyph glyph-name="Agrave" unicode="&#xc0;" 
 />
    <glyph glyph-name="Aacute" unicode="&#xc1;" 
 />
    <glyph glyph-name="Acircumflex" unicode="&#xc2;" 
 />
    <glyph glyph-name="Adieresis" unicode="&#xc4;" 
 />
    <glyph glyph-name="Ccedilla" unicode="&#xc7;" 
 />
    <glyph glyph-name="Egrave" unicode="&#xc8;" 
 />
    <glyph glyph-name="Eacute" unicode="&#xc9;" 
 />
    <glyph glyph-name="Ecircumflex" unicode="&#xca;" 
 />
    <glyph glyph-name="Edieresis" unicode="&#xcb;" 
 />
    <glyph glyph-name="Icircumflex" unicode="&#xce;" 
 />
    <glyph glyph-name="Idieresis" unicode="&#xcf;" 
 />
    <glyph glyph-name="Ntilde" unicode="&#xd1;" 
 />
    <glyph glyph-name="Oacute" unicode="&#xd3;" 
 />
    <glyph glyph-name="Ocircumflex" unicode="&#xd4;" 
 />
    <glyph glyph-name="Odieresis" unicode="&#xd6;" 
 />
    <glyph glyph-name="Ugrave" unicode="&#xd9;" 
 />
    <glyph glyph-name="Uacute" unicode="&#xda;" 
 />
    <glyph glyph-name="Ucircumflex" unicode="&#xdb;" 
 />
    <glyph glyph-name="Udieresis" unicode="&#xdc;" 
 />
    <glyph glyph-name="germandbls" unicode="&#xdf;" 
 />
    <glyph glyph-name="agrave" unicode="&#xe0;" 
 />
    <glyph glyph-name="aacute" unicode="&#xe1;" 
 />
    <glyph glyph-name="acircumflex" unicode="&#xe2;" 
 />
    <glyph glyph-name="adieresis" unicode="&#xe4;" 
 />
    <glyph glyph-name="ccedilla" unicode="&#xe7;" 
 />
    <glyph glyph-name="egrave" unicode="&#xe8;" 
 />
    <glyph glyph-name="eacute" unicode="&#xe9;" 
 />
    <glyph glyph-name="ecircumflex" unicode="&#xea;" 
 />
    <glyph glyph-name="edieresis" unicode="&#xeb;" 
 />
    <glyph glyph-name="icircumflex" unicode="&#xee;" 
 />
    <glyph glyph-name="idieresis" unicode="&#xef;" 
 />
    <glyph glyph-name="oacute" unicode="&#xf3;" 
 />
    <glyph glyph-name="ocircumflex" unicode="&#xf4;" 
 />
    <glyph glyph-name="odieresis" unicode="&#xf6;" 
 />
    <glyph glyph-name="ugrave" unicode="&#xf9;" 
 />
    <glyph glyph-name="uacute" unicode="&#xfa;" 
 />
    <glyph glyph-name="ucircumflex" unicode="&#xfb;" 
 />
    <glyph glyph-name="udieresis" unicode="&#xfc;" 
 />
    <glyph glyph-name="eogonek" unicode="&#x119;" 
 />
    <glyph glyph-name="quoteright" unicode="&#x2019;" horiz-adv-x="207" 
d="M61 681q44 9 85 -5t49 -41q12 -41 -7 -98q-18 -57 -57 -94q-15 -15 -18 -17q-7 -4 -16 -6q-10 -2 -21 -2q-30 0 -37 12q-15 30 10 54q17 16 16 28t-26 33q-21 18 -26 34q-5 17 -2 46q1 13 19 34q16 19 31 22z" />
    <glyph glyph-name="quotedblleft" unicode="&#x201c;" horiz-adv-x="315" 
d="M34 200q14 10 53 10q37 0 46 -10q8 -10 17 -10q7 0 27 10q22 12 57 10q37 -2 50 -15q19 -16 22 -50q3 -33 -12 -72q-44 -121 -104 -98q-15 6 -17 24q-2 19 13 37q13 18 13 25q0 8 -13 16q-17 8 -24 2q-7 -5 -22 -36q-12 -22 -23 -37q-13 -18 -27 -27q-15 -10 -23 -10
q-12 0 -27 12q-14 11 -14 20q0 12 13 29q13 16 12 27q-2 12 -16 23q-25 20 -25 61q0 43 24 59z" />
    <glyph glyph-name="quotedblright" unicode="&#x201d;" horiz-adv-x="316" 
d="M79 652q17 12 27 13q9 1 24 -7q13 -7 13 -25q0 -15 -13 -35q-13 -16 -13 -25t12 -15q17 -8 24 -3q7 4 23 36q8 16 18 29q14 18 20 24q7 7 19 15q11 7 17 7q9 0 18 -6q12 -8 16 -13q7 -9 7 -14q0 -12 -13 -28q-13 -17 -13 -28t16 -22q26 -17 26 -59q0 -44 -25 -62
q-14 -10 -53 -10t-46 10q-7 9 -17 9q-9 0 -27 -9q-20 -10 -54 -10q-38 0 -54 16q-17 16 -21 54q-2 41 4 53q11 22 26 53q18 40 39 52z" />
    <glyph glyph-name="bullet" unicode="&#x2022;" 
 />
    <glyph glyph-name="Euro" unicode="&#x20ac;" 
 />
  </font>
</defs>
</svg>
